M48
; DRILL file {KiCad 9.0.4} date 2026-03-24T23:30:38-0500
; FORMAT={-:-/ absolute / metric / decimal}
; #@! TF.CreationDate,2026-03-24T23:30:38-05:00
; #@! TF.GenerationSoftware,Kicad,Pcbnew,9.0.4
; #@! TF.FileFunction,Plated,1,4,PTH
FMAT,2
METRIC
; #@! TA.AperFunction,Plated,PTH,ComponentDrill
T1C0.200
; #@! TA.AperFunction,Plated,PTH,ViaDrill
T2C0.300
; #@! TA.AperFunction,Plated,PTH,ComponentDrill
T3C0.300
; #@! TA.AperFunction,Plated,PTH,ComponentDrill
T4C1.000
; #@! TA.AperFunction,Plated,PTH,ComponentDrill
T5C1.100
%
G90
G05
T1
X139.854Y-40.139
X139.854Y-41.339
X139.854Y-42.539
X141.254Y-40.139
X141.254Y-41.339
X141.254Y-42.539
T2
X62.738Y-65.786
X67.31Y-65.278
X68.58Y-58.166
X69.342Y-51.054
X69.596Y-54.864
X69.949Y-65.939
X70.866Y-51.054
X70.928Y-66.484
X72.96Y-66.484
X73.66Y-54.356
X75.501Y-65.468
X78.74Y-65.024
X79.056Y-54.292
X79.471Y-57.329
X79.564Y-55.308
X79.59Y-58.331
X80.581Y-62.42
X81.534Y-65.786
X84.074Y-58.674
X85.152Y-63.944
X89.154Y-71.628
X101.346Y-64.262
X102.87Y-65.532
X106.426Y-77.978
X108.712Y-64.77
X108.712Y-66.294
X110.49Y-57.912
X111.125Y-77.089
X112.924Y-120.97
X116.788Y-45.394
X117.496Y-120.97
X118.058Y-42.6
X122.068Y-120.97
X122.141Y-91.177
X122.141Y-93.47
X122.174Y-85.09
X123.338Y-100.65
X124.206Y-85.09
X126.64Y-120.97
X130.196Y-95.57
X130.704Y-120.97
X135.53Y-121.224
X135.92Y-42.171
X136.906Y-37.338
X137.19Y-45.219
X137.19Y-45.219
X139.848Y-121.224
X143.002Y-64.262
X143.921Y-45.276
X144.674Y-121.224
X147.69Y-50.292
X148.092Y-60.71
X149.287Y-59.515
T3
X143.764Y-57.174
X143.764Y-58.674
X144.264Y-57.924
X144.764Y-57.174
X144.764Y-58.674
T4
X63.308Y-74.612
X65.849Y-74.612
X68.388Y-74.612
X70.928Y-74.612
X73.468Y-74.612
X76.008Y-74.612
X78.548Y-74.612
X81.088Y-74.612
X83.629Y-74.612
X86.168Y-74.612
X89.216Y-45.656
X89.216Y-48.196
X89.216Y-50.736
X89.216Y-53.276
X89.216Y-55.816
X89.216Y-58.356
X89.216Y-60.896
X89.216Y-63.436
X89.216Y-65.976
X89.216Y-68.516
X105.812Y-128.854
X105.812Y-131.394
X110.892Y-129.103
X110.892Y-131.643
X115.464Y-129.103
X115.464Y-131.643
X120.036Y-129.108
X120.036Y-131.648
X124.608Y-129.103
X124.608Y-131.643
X129.18Y-129.103
X129.18Y-131.643
X133.752Y-129.214
X133.752Y-131.754
X138.324Y-129.214
X138.324Y-131.754
X142.959Y-129.214
X142.959Y-131.754
X148.844Y-129.286
X148.844Y-131.826
T5
X96.266Y-36.576
X96.266Y-43.076
X100.766Y-36.576
X100.766Y-43.076
M30
