G04 #@! TF.GenerationSoftware,KiCad,Pcbnew,9.0.4*
G04 #@! TF.CreationDate,2026-03-24T23:29:56-05:00*
G04 #@! TF.ProjectId,EEG_BLE_PCB_v2,4545475f-424c-4455-9f50-43425f76322e,rev?*
G04 #@! TF.SameCoordinates,Original*
G04 #@! TF.FileFunction,Paste,Top*
G04 #@! TF.FilePolarity,Positive*
%FSLAX46Y46*%
G04 Gerber Fmt 4.6, Leading zero omitted, Abs format (unit mm)*
G04 Created by KiCad (PCBNEW 9.0.4) date 2026-03-24 23:29:56*
%MOMM*%
%LPD*%
G01*
G04 APERTURE LIST*
G04 Aperture macros list*
%AMRoundRect*
0 Rectangle with rounded corners*
0 $1 Rounding radius*
0 $2 $3 $4 $5 $6 $7 $8 $9 X,Y pos of 4 corners*
0 Add a 4 corners polygon primitive as box body*
4,1,4,$2,$3,$4,$5,$6,$7,$8,$9,$2,$3,0*
0 Add four circle primitives for the rounded corners*
1,1,$1+$1,$2,$3*
1,1,$1+$1,$4,$5*
1,1,$1+$1,$6,$7*
1,1,$1+$1,$8,$9*
0 Add four rect primitives between the rounded corners*
20,1,$1+$1,$2,$3,$4,$5,0*
20,1,$1+$1,$4,$5,$6,$7,0*
20,1,$1+$1,$6,$7,$8,$9,0*
20,1,$1+$1,$8,$9,$2,$3,0*%
G04 Aperture macros list end*
%ADD10RoundRect,0.250000X0.450000X-0.350000X0.450000X0.350000X-0.450000X0.350000X-0.450000X-0.350000X0*%
%ADD11RoundRect,0.250000X0.565685X0.070711X0.070711X0.565685X-0.565685X-0.070711X-0.070711X-0.565685X0*%
%ADD12RoundRect,0.250000X-0.574524X-0.097227X-0.097227X-0.574524X0.574524X0.097227X0.097227X0.574524X0*%
%ADD13RoundRect,0.250000X0.475000X-0.337500X0.475000X0.337500X-0.475000X0.337500X-0.475000X-0.337500X0*%
%ADD14RoundRect,0.250000X0.350000X0.450000X-0.350000X0.450000X-0.350000X-0.450000X0.350000X-0.450000X0*%
%ADD15RoundRect,0.250000X-0.337500X-0.475000X0.337500X-0.475000X0.337500X0.475000X-0.337500X0.475000X0*%
%ADD16RoundRect,0.035000X0.105000X-0.745000X0.105000X0.745000X-0.105000X0.745000X-0.105000X-0.745000X0*%
%ADD17RoundRect,0.035000X0.745000X-0.105000X0.745000X0.105000X-0.745000X0.105000X-0.745000X-0.105000X0*%
%ADD18RoundRect,0.250000X0.337500X0.475000X-0.337500X0.475000X-0.337500X-0.475000X0.337500X-0.475000X0*%
%ADD19R,0.838200X0.762000*%
%ADD20R,1.651000X1.016000*%
%ADD21RoundRect,0.147500X-0.457500X-0.147500X0.457500X-0.147500X0.457500X0.147500X-0.457500X0.147500X0*%
%ADD22R,3.400000X1.000000*%
%ADD23R,1.752600X2.082800*%
%ADD24R,1.193800X0.711200*%
%ADD25R,1.193800X0.762000*%
%ADD26R,1.193800X0.812800*%
%ADD27R,0.300000X0.300000*%
%ADD28RoundRect,0.250000X-0.325000X-0.450000X0.325000X-0.450000X0.325000X0.450000X-0.325000X0.450000X0*%
%ADD29RoundRect,0.250000X-0.350000X-0.450000X0.350000X-0.450000X0.350000X0.450000X-0.350000X0.450000X0*%
%ADD30RoundRect,0.025000X0.100000X0.145000X-0.100000X0.145000X-0.100000X-0.145000X0.100000X-0.145000X0*%
%ADD31RoundRect,0.106000X0.644000X0.424000X-0.644000X0.424000X-0.644000X-0.424000X0.644000X-0.424000X0*%
%ADD32RoundRect,0.060000X0.240000X0.060000X-0.240000X0.060000X-0.240000X-0.060000X0.240000X-0.060000X0*%
%ADD33RoundRect,0.250000X-0.475000X0.337500X-0.475000X-0.337500X0.475000X-0.337500X0.475000X0.337500X0*%
%ADD34RoundRect,0.250000X-0.450000X0.350000X-0.450000X-0.350000X0.450000X-0.350000X0.450000X0.350000X0*%
%ADD35RoundRect,0.249999X0.395001X0.395001X-0.395001X0.395001X-0.395001X-0.395001X0.395001X-0.395001X0*%
%ADD36RoundRect,0.062500X0.400000X0.062500X-0.400000X0.062500X-0.400000X-0.062500X0.400000X-0.062500X0*%
%ADD37RoundRect,0.062500X0.062500X0.400000X-0.062500X0.400000X-0.062500X-0.400000X0.062500X-0.400000X0*%
%ADD38R,0.230000X0.230000*%
%ADD39O,0.800000X0.230000*%
%ADD40R,0.680000X1.050000*%
%ADD41R,0.260000X0.500000*%
%ADD42RoundRect,0.150000X-0.512500X-0.150000X0.512500X-0.150000X0.512500X0.150000X-0.512500X0.150000X0*%
%ADD43RoundRect,0.250000X-0.255000X-0.440000X0.255000X-0.440000X0.255000X0.440000X-0.255000X0.440000X0*%
%ADD44RoundRect,0.150000X-0.825000X-0.150000X0.825000X-0.150000X0.825000X0.150000X-0.825000X0.150000X0*%
G04 APERTURE END LIST*
D10*
X124607834Y-125053912D03*
X124607834Y-123053912D03*
D11*
X112830893Y-75492893D03*
X114245107Y-76907107D03*
X115370893Y-73206893D03*
X116785107Y-74621107D03*
D12*
X142162211Y-117679789D03*
X143629457Y-119147035D03*
X133018211Y-117679789D03*
X134485457Y-119147035D03*
X128446211Y-117679789D03*
X129913457Y-119147035D03*
X137590211Y-117679788D03*
X139057457Y-119147036D03*
D10*
X138323834Y-125117912D03*
X138323834Y-123117912D03*
X120019834Y-125038912D03*
X120019834Y-123038912D03*
X142959334Y-125133912D03*
X142959334Y-123133912D03*
X133751834Y-125117912D03*
X133751834Y-123117912D03*
D13*
X139847834Y-95315912D03*
X139847834Y-93240912D03*
D14*
X105779834Y-120217912D03*
X103779834Y-120217912D03*
D15*
X139987127Y-83110102D03*
X142062127Y-83110102D03*
D10*
X129179834Y-125011912D03*
X129179834Y-123011912D03*
D12*
X119302211Y-117679789D03*
X120769457Y-119147035D03*
X123874211Y-117701289D03*
X125341457Y-119168535D03*
D13*
X140123733Y-90354100D03*
X140123733Y-88279100D03*
D15*
X139339834Y-101179413D03*
X141414834Y-101179413D03*
D13*
X142638204Y-90354100D03*
X142638204Y-88279100D03*
X120377338Y-93633250D03*
X120377338Y-91558250D03*
X117583338Y-93654750D03*
X117583338Y-91579750D03*
D15*
X139944127Y-80316103D03*
X142019127Y-80316103D03*
X139339834Y-97877413D03*
X141414834Y-97877413D03*
D12*
X110158211Y-117701289D03*
X111625457Y-119168535D03*
D10*
X115447834Y-125038912D03*
X115447834Y-123038912D03*
X110875834Y-125038912D03*
X110875834Y-123038912D03*
D15*
X139361334Y-104481412D03*
X141436334Y-104481412D03*
D12*
X114730211Y-117701289D03*
X116197457Y-119168535D03*
D11*
X119270214Y-72280214D03*
X117856000Y-70866000D03*
D16*
X126024000Y-98197912D03*
X126523999Y-98197912D03*
X127024000Y-98197912D03*
X127524000Y-98197912D03*
X128024001Y-98197912D03*
X128524000Y-98197912D03*
X129023999Y-98197912D03*
X129524000Y-98197912D03*
X130024000Y-98197912D03*
X130524001Y-98197912D03*
X131024000Y-98197912D03*
X131523999Y-98197912D03*
X132024000Y-98197912D03*
X132524000Y-98197912D03*
X133024001Y-98197912D03*
X133524000Y-98197912D03*
D17*
X135454000Y-96267912D03*
X135454000Y-95767913D03*
X135454000Y-95267912D03*
X135454000Y-94767912D03*
X135454000Y-94267911D03*
X135454000Y-93767912D03*
X135454000Y-93267913D03*
X135454000Y-92767912D03*
X135454000Y-92267912D03*
X135454000Y-91767911D03*
X135454000Y-91267912D03*
X135454000Y-90767913D03*
X135454000Y-90267912D03*
X135454000Y-89767912D03*
X135454000Y-89267911D03*
X135454000Y-88767912D03*
D16*
X133524000Y-86837912D03*
X133024001Y-86837912D03*
X132524000Y-86837912D03*
X132024000Y-86837912D03*
X131523999Y-86837912D03*
X131024000Y-86837912D03*
X130524001Y-86837912D03*
X130024000Y-86837912D03*
X129524000Y-86837912D03*
X129023999Y-86837912D03*
X128524000Y-86837912D03*
X128024001Y-86837912D03*
X127524000Y-86837912D03*
X127024000Y-86837912D03*
X126523999Y-86837912D03*
X126024000Y-86837912D03*
D17*
X124094000Y-88767912D03*
X124094000Y-89267911D03*
X124094000Y-89767912D03*
X124094000Y-90267912D03*
X124094000Y-90767913D03*
X124094000Y-91267912D03*
X124094000Y-91767911D03*
X124094000Y-92267912D03*
X124094000Y-92767912D03*
X124094000Y-93267913D03*
X124094000Y-93767912D03*
X124094000Y-94267911D03*
X124094000Y-94767912D03*
X124094000Y-95267912D03*
X124094000Y-95767913D03*
X124094000Y-96267912D03*
D18*
X105817334Y-123773912D03*
X103742334Y-123773912D03*
D15*
X139944127Y-85904103D03*
X142019127Y-85904103D03*
D11*
X122373107Y-69287107D03*
X120958893Y-67872893D03*
D19*
X67205500Y-53293000D03*
X68555500Y-53293000D03*
X68555500Y-52243000D03*
X67205500Y-52243000D03*
D20*
X74168000Y-37731700D03*
X77673200Y-37731700D03*
X77673200Y-35928300D03*
X74168000Y-35928300D03*
D21*
X113755000Y-41716000D03*
X113755000Y-42666000D03*
X113755000Y-43616000D03*
X116265000Y-41716000D03*
X116265000Y-42666000D03*
X116265000Y-43616000D03*
D22*
X123968000Y-59182000D03*
X123968000Y-57082000D03*
D23*
X145907600Y-52074000D03*
X142656400Y-52074000D03*
D24*
X162603599Y-42416999D03*
D25*
X162603599Y-40397000D03*
D26*
X162603599Y-39167000D03*
D24*
X162603599Y-41417001D03*
D25*
X162603716Y-43436936D03*
D26*
X162603716Y-44666936D03*
D27*
X71886000Y-53436002D03*
X71886000Y-54023001D03*
X71886000Y-54610000D03*
X72386000Y-54610000D03*
X72386000Y-54023001D03*
X72386000Y-53436002D03*
D15*
X80559000Y-53276000D03*
X82634000Y-53276000D03*
X80559000Y-56832000D03*
X82634000Y-56832000D03*
D28*
X150652000Y-44711000D03*
X152702000Y-44711000D03*
D14*
X158780000Y-40393000D03*
X156780000Y-40393000D03*
D13*
X122952000Y-55139500D03*
X122952000Y-53064500D03*
D29*
X146128000Y-41663000D03*
X148128000Y-41663000D03*
D30*
X119516000Y-58426000D03*
X119516000Y-55366000D03*
D31*
X119266000Y-57526000D03*
X119266000Y-56266000D03*
D30*
X119016000Y-58426000D03*
X119016000Y-55366000D03*
D32*
X120666000Y-57896000D03*
X120666000Y-57396000D03*
X120666000Y-56896000D03*
X120666000Y-56396000D03*
X120666000Y-55896000D03*
X117866000Y-55896000D03*
X117866000Y-56396000D03*
X117866000Y-56896000D03*
X117866000Y-57396000D03*
X117866000Y-57896000D03*
D15*
X149848500Y-55884000D03*
X151923500Y-55884000D03*
X80580500Y-60388000D03*
X82655500Y-60388000D03*
D18*
X67394000Y-63436000D03*
X65319000Y-63436000D03*
D33*
X64832500Y-67478500D03*
X64832500Y-69553500D03*
D14*
X120396000Y-53594000D03*
X118396000Y-53594000D03*
D33*
X68388500Y-67478500D03*
X68388500Y-69553500D03*
D14*
X131488000Y-44632000D03*
X129488000Y-44632000D03*
D34*
X135158000Y-38869000D03*
X135158000Y-40869000D03*
D33*
X79056500Y-67478500D03*
X79056500Y-69553500D03*
D18*
X141762000Y-37091000D03*
X139687000Y-37091000D03*
D33*
X75500500Y-67478500D03*
X75500500Y-69553500D03*
D29*
X80596500Y-63944000D03*
X82596500Y-63944000D03*
D35*
X76236500Y-62496000D03*
X76236500Y-60896000D03*
X76236500Y-59296000D03*
X76236500Y-57696000D03*
X74636500Y-62496000D03*
X74636500Y-60896000D03*
X74636500Y-59296000D03*
X74636500Y-57696000D03*
X73036500Y-62496000D03*
X73036500Y-60896000D03*
X73036500Y-59296000D03*
X73036500Y-57696000D03*
X71436500Y-62496000D03*
X71436500Y-60896000D03*
X71436500Y-59296000D03*
X71436500Y-57696000D03*
D36*
X77724000Y-63296000D03*
X77724000Y-62896000D03*
X77724000Y-62496000D03*
X77724000Y-62096000D03*
X77724000Y-61696000D03*
X77724000Y-61296000D03*
X77724000Y-60896000D03*
X77724000Y-60496000D03*
X77724000Y-60096000D03*
X77724000Y-59696000D03*
X77724000Y-59296000D03*
X77724000Y-58896000D03*
X77724000Y-58496000D03*
X77724000Y-58096000D03*
X77724000Y-57696000D03*
X77724000Y-57296000D03*
X77724000Y-56896000D03*
D37*
X77036500Y-56208500D03*
X76636500Y-56208500D03*
X76236500Y-56208500D03*
X75836500Y-56208500D03*
X75436500Y-56208500D03*
X75036500Y-56208500D03*
X74636500Y-56208500D03*
X74236500Y-56208500D03*
X73836500Y-56208500D03*
X73436500Y-56208500D03*
X73036500Y-56208500D03*
X72636500Y-56208500D03*
X72236500Y-56208500D03*
X71836500Y-56208500D03*
X71436500Y-56208500D03*
X71036500Y-56208500D03*
X70636500Y-56208500D03*
D36*
X69949000Y-56896000D03*
X69949000Y-57296000D03*
X69949000Y-57696000D03*
X69949000Y-58096000D03*
X69949000Y-58496000D03*
X69949000Y-58896000D03*
X69949000Y-59296000D03*
X69949000Y-59696000D03*
X69949000Y-60096000D03*
X69949000Y-60496000D03*
X69949000Y-60896000D03*
X69949000Y-61296000D03*
X69949000Y-61696000D03*
X69949000Y-62096000D03*
X69949000Y-62496000D03*
X69949000Y-62896000D03*
X69949000Y-63296000D03*
D37*
X70636500Y-63983500D03*
X71036500Y-63983500D03*
X71436500Y-63983500D03*
X71836500Y-63983500D03*
X72236500Y-63983500D03*
X72636500Y-63983500D03*
X73036500Y-63983500D03*
X73436500Y-63983500D03*
X73836500Y-63983500D03*
X74236500Y-63983500D03*
X74636500Y-63983500D03*
X75036500Y-63983500D03*
X75436500Y-63983500D03*
X75836500Y-63983500D03*
X76236500Y-63983500D03*
X76636500Y-63983500D03*
X77036500Y-63983500D03*
D33*
X82612500Y-67478500D03*
X82612500Y-69553500D03*
D18*
X141529500Y-45473000D03*
X139454500Y-45473000D03*
D33*
X135392000Y-57640500D03*
X135392000Y-59715500D03*
D15*
X137402500Y-63758000D03*
X139477500Y-63758000D03*
D29*
X143028000Y-62488000D03*
X145028000Y-62488000D03*
D13*
X129742000Y-41838000D03*
X129742000Y-39763000D03*
X112792000Y-57933500D03*
X112792000Y-55858500D03*
D10*
X140218000Y-59662000D03*
X140218000Y-57662000D03*
D38*
X142504000Y-56924000D03*
D39*
X142789000Y-56924000D03*
D38*
X142504000Y-57424000D03*
D39*
X142789000Y-57424000D03*
D38*
X142504000Y-57924000D03*
D39*
X142789000Y-57924000D03*
D38*
X142504000Y-58424000D03*
D39*
X142789000Y-58424000D03*
D38*
X142504000Y-58924000D03*
D39*
X142789000Y-58924000D03*
X145739000Y-58924000D03*
D38*
X146024000Y-58924000D03*
D39*
X145739000Y-58424000D03*
D38*
X146024000Y-58424000D03*
D39*
X145739000Y-57924000D03*
D38*
X146024000Y-57924000D03*
D39*
X145739000Y-57424000D03*
D38*
X146024000Y-57424000D03*
D39*
X145739000Y-56924000D03*
D38*
X146024000Y-56924000D03*
D40*
X143814000Y-57289000D03*
X143814000Y-58559000D03*
D41*
X144014000Y-56294000D03*
X144014000Y-59554000D03*
X144514000Y-56294000D03*
X144514000Y-59554000D03*
D40*
X144714000Y-57289000D03*
X144714000Y-58559000D03*
D18*
X67394000Y-56324000D03*
X65319000Y-56324000D03*
D13*
X115332000Y-57971500D03*
X115332000Y-55896500D03*
D14*
X158780000Y-43187000D03*
X156780000Y-43187000D03*
X148112000Y-44711000D03*
X146112000Y-44711000D03*
D42*
X123900000Y-41716000D03*
X123900000Y-42666000D03*
X123900000Y-43616000D03*
X126175000Y-43616000D03*
X126175000Y-42666000D03*
X126175000Y-41716000D03*
D29*
X149886000Y-58424000D03*
X151886000Y-58424000D03*
D28*
X150643000Y-41663000D03*
X152693000Y-41663000D03*
D33*
X135392000Y-61683000D03*
X135392000Y-63758000D03*
D43*
X139954000Y-40514000D03*
X139954000Y-42164000D03*
X141154000Y-40514000D03*
X141154000Y-42164000D03*
D44*
X138079000Y-39434000D03*
X138079000Y-40704000D03*
X138079000Y-41974000D03*
X138079000Y-43244000D03*
X143029000Y-43244000D03*
X143029000Y-41974000D03*
X143029000Y-40704000D03*
X143029000Y-39434000D03*
D18*
X67394000Y-59880000D03*
X65319000Y-59880000D03*
D33*
X71944500Y-67478500D03*
X71944500Y-69553500D03*
D15*
X149848500Y-60964000D03*
X151923500Y-60964000D03*
X118358500Y-51054000D03*
X120433500Y-51054000D03*
D14*
X121598000Y-42600000D03*
X119598000Y-42600000D03*
X90408000Y-42672000D03*
X88408000Y-42672000D03*
X148844000Y-118872000D03*
X146844000Y-118872000D03*
M02*
