%TF.GenerationSoftware,KiCad,Pcbnew,9.0.4*%
%TF.CreationDate,2026-03-09T21:42:57-05:00*%
%TF.ProjectId,ADS1299_Sequential Montage,41445331-3239-4395-9f53-657175656e74,rev?*%
%TF.SameCoordinates,Original*%
%TF.FileFunction,Legend,Top*%
%TF.FilePolarity,Positive*%
%FSLAX46Y46*%
G04 Gerber Fmt 4.6, Leading zero omitted, Abs format (unit mm)*
G04 Created by KiCad (PCBNEW 9.0.4) date 2026-03-09 21:42:57*
%MOMM*%
%LPD*%
G01*
G04 APERTURE LIST*
%ADD10C,0.150000*%
%ADD11C,0.120000*%
%ADD12C,0.127000*%
%ADD13C,0.200000*%
G04 APERTURE END LIST*
D10*
X68047538Y-62091324D02*
X67980194Y-62091324D01*
X67980194Y-62091324D02*
X67845507Y-62023980D01*
X67845507Y-62023980D02*
X67778164Y-61956637D01*
X67778164Y-61956637D02*
X67710820Y-61821950D01*
X67710820Y-61821950D02*
X67710820Y-61687263D01*
X67710820Y-61687263D02*
X67744492Y-61586248D01*
X67744492Y-61586248D02*
X67845507Y-61417889D01*
X67845507Y-61417889D02*
X67946522Y-61316874D01*
X67946522Y-61316874D02*
X68114881Y-61215858D01*
X68114881Y-61215858D02*
X68215896Y-61182187D01*
X68215896Y-61182187D02*
X68350583Y-61182187D01*
X68350583Y-61182187D02*
X68485270Y-61249530D01*
X68485270Y-61249530D02*
X68552614Y-61316874D01*
X68552614Y-61316874D02*
X68619957Y-61451561D01*
X68619957Y-61451561D02*
X68619957Y-61518904D01*
X68889331Y-61788278D02*
X68956675Y-61788278D01*
X68956675Y-61788278D02*
X69057690Y-61821950D01*
X69057690Y-61821950D02*
X69226049Y-61990309D01*
X69226049Y-61990309D02*
X69259721Y-62091324D01*
X69259721Y-62091324D02*
X69259721Y-62158667D01*
X69259721Y-62158667D02*
X69226049Y-62259683D01*
X69226049Y-62259683D02*
X69158705Y-62327026D01*
X69158705Y-62327026D02*
X69024018Y-62394370D01*
X69024018Y-62394370D02*
X68215896Y-62394370D01*
X68215896Y-62394370D02*
X68653629Y-62832102D01*
X69562767Y-62461713D02*
X69630110Y-62461713D01*
X69630110Y-62461713D02*
X69731125Y-62495385D01*
X69731125Y-62495385D02*
X69899484Y-62663744D01*
X69899484Y-62663744D02*
X69933156Y-62764759D01*
X69933156Y-62764759D02*
X69933156Y-62832103D01*
X69933156Y-62832103D02*
X69899484Y-62933118D01*
X69899484Y-62933118D02*
X69832141Y-63000461D01*
X69832141Y-63000461D02*
X69697454Y-63067805D01*
X69697454Y-63067805D02*
X68889332Y-63067805D01*
X68889332Y-63067805D02*
X69327064Y-63505538D01*
X109561142Y-62556819D02*
X109227809Y-62080628D01*
X108989714Y-62556819D02*
X108989714Y-61556819D01*
X108989714Y-61556819D02*
X109370666Y-61556819D01*
X109370666Y-61556819D02*
X109465904Y-61604438D01*
X109465904Y-61604438D02*
X109513523Y-61652057D01*
X109513523Y-61652057D02*
X109561142Y-61747295D01*
X109561142Y-61747295D02*
X109561142Y-61890152D01*
X109561142Y-61890152D02*
X109513523Y-61985390D01*
X109513523Y-61985390D02*
X109465904Y-62033009D01*
X109465904Y-62033009D02*
X109370666Y-62080628D01*
X109370666Y-62080628D02*
X108989714Y-62080628D01*
X109942095Y-61652057D02*
X109989714Y-61604438D01*
X109989714Y-61604438D02*
X110084952Y-61556819D01*
X110084952Y-61556819D02*
X110323047Y-61556819D01*
X110323047Y-61556819D02*
X110418285Y-61604438D01*
X110418285Y-61604438D02*
X110465904Y-61652057D01*
X110465904Y-61652057D02*
X110513523Y-61747295D01*
X110513523Y-61747295D02*
X110513523Y-61842533D01*
X110513523Y-61842533D02*
X110465904Y-61985390D01*
X110465904Y-61985390D02*
X109894476Y-62556819D01*
X109894476Y-62556819D02*
X110513523Y-62556819D01*
X111132571Y-61556819D02*
X111227809Y-61556819D01*
X111227809Y-61556819D02*
X111323047Y-61604438D01*
X111323047Y-61604438D02*
X111370666Y-61652057D01*
X111370666Y-61652057D02*
X111418285Y-61747295D01*
X111418285Y-61747295D02*
X111465904Y-61937771D01*
X111465904Y-61937771D02*
X111465904Y-62175866D01*
X111465904Y-62175866D02*
X111418285Y-62366342D01*
X111418285Y-62366342D02*
X111370666Y-62461580D01*
X111370666Y-62461580D02*
X111323047Y-62509200D01*
X111323047Y-62509200D02*
X111227809Y-62556819D01*
X111227809Y-62556819D02*
X111132571Y-62556819D01*
X111132571Y-62556819D02*
X111037333Y-62509200D01*
X111037333Y-62509200D02*
X110989714Y-62461580D01*
X110989714Y-62461580D02*
X110942095Y-62366342D01*
X110942095Y-62366342D02*
X110894476Y-62175866D01*
X110894476Y-62175866D02*
X110894476Y-61937771D01*
X110894476Y-61937771D02*
X110942095Y-61747295D01*
X110942095Y-61747295D02*
X110989714Y-61652057D01*
X110989714Y-61652057D02*
X111037333Y-61604438D01*
X111037333Y-61604438D02*
X111132571Y-61556819D01*
X109561142Y-67128819D02*
X109227809Y-66652628D01*
X108989714Y-67128819D02*
X108989714Y-66128819D01*
X108989714Y-66128819D02*
X109370666Y-66128819D01*
X109370666Y-66128819D02*
X109465904Y-66176438D01*
X109465904Y-66176438D02*
X109513523Y-66224057D01*
X109513523Y-66224057D02*
X109561142Y-66319295D01*
X109561142Y-66319295D02*
X109561142Y-66462152D01*
X109561142Y-66462152D02*
X109513523Y-66557390D01*
X109513523Y-66557390D02*
X109465904Y-66605009D01*
X109465904Y-66605009D02*
X109370666Y-66652628D01*
X109370666Y-66652628D02*
X108989714Y-66652628D01*
X110513523Y-67128819D02*
X109942095Y-67128819D01*
X110227809Y-67128819D02*
X110227809Y-66128819D01*
X110227809Y-66128819D02*
X110132571Y-66271676D01*
X110132571Y-66271676D02*
X110037333Y-66366914D01*
X110037333Y-66366914D02*
X109942095Y-66414533D01*
X110989714Y-67128819D02*
X111180190Y-67128819D01*
X111180190Y-67128819D02*
X111275428Y-67081200D01*
X111275428Y-67081200D02*
X111323047Y-67033580D01*
X111323047Y-67033580D02*
X111418285Y-66890723D01*
X111418285Y-66890723D02*
X111465904Y-66700247D01*
X111465904Y-66700247D02*
X111465904Y-66319295D01*
X111465904Y-66319295D02*
X111418285Y-66224057D01*
X111418285Y-66224057D02*
X111370666Y-66176438D01*
X111370666Y-66176438D02*
X111275428Y-66128819D01*
X111275428Y-66128819D02*
X111084952Y-66128819D01*
X111084952Y-66128819D02*
X110989714Y-66176438D01*
X110989714Y-66176438D02*
X110942095Y-66224057D01*
X110942095Y-66224057D02*
X110894476Y-66319295D01*
X110894476Y-66319295D02*
X110894476Y-66557390D01*
X110894476Y-66557390D02*
X110942095Y-66652628D01*
X110942095Y-66652628D02*
X110989714Y-66700247D01*
X110989714Y-66700247D02*
X111084952Y-66747866D01*
X111084952Y-66747866D02*
X111275428Y-66747866D01*
X111275428Y-66747866D02*
X111370666Y-66700247D01*
X111370666Y-66700247D02*
X111418285Y-66652628D01*
X111418285Y-66652628D02*
X111465904Y-66557390D01*
X84542476Y-92527819D02*
X84542476Y-93242104D01*
X84542476Y-93242104D02*
X84494857Y-93384961D01*
X84494857Y-93384961D02*
X84399619Y-93480200D01*
X84399619Y-93480200D02*
X84256762Y-93527819D01*
X84256762Y-93527819D02*
X84161524Y-93527819D01*
X85018667Y-93527819D02*
X85018667Y-92527819D01*
X85018667Y-92527819D02*
X85399619Y-92527819D01*
X85399619Y-92527819D02*
X85494857Y-92575438D01*
X85494857Y-92575438D02*
X85542476Y-92623057D01*
X85542476Y-92623057D02*
X85590095Y-92718295D01*
X85590095Y-92718295D02*
X85590095Y-92861152D01*
X85590095Y-92861152D02*
X85542476Y-92956390D01*
X85542476Y-92956390D02*
X85494857Y-93004009D01*
X85494857Y-93004009D02*
X85399619Y-93051628D01*
X85399619Y-93051628D02*
X85018667Y-93051628D01*
X86542476Y-93527819D02*
X85971048Y-93527819D01*
X86256762Y-93527819D02*
X86256762Y-92527819D01*
X86256762Y-92527819D02*
X86161524Y-92670676D01*
X86161524Y-92670676D02*
X86066286Y-92765914D01*
X86066286Y-92765914D02*
X85971048Y-92813533D01*
X86875810Y-92527819D02*
X87494857Y-92527819D01*
X87494857Y-92527819D02*
X87161524Y-92908771D01*
X87161524Y-92908771D02*
X87304381Y-92908771D01*
X87304381Y-92908771D02*
X87399619Y-92956390D01*
X87399619Y-92956390D02*
X87447238Y-93004009D01*
X87447238Y-93004009D02*
X87494857Y-93099247D01*
X87494857Y-93099247D02*
X87494857Y-93337342D01*
X87494857Y-93337342D02*
X87447238Y-93432580D01*
X87447238Y-93432580D02*
X87399619Y-93480200D01*
X87399619Y-93480200D02*
X87304381Y-93527819D01*
X87304381Y-93527819D02*
X87018667Y-93527819D01*
X87018667Y-93527819D02*
X86923429Y-93480200D01*
X86923429Y-93480200D02*
X86875810Y-93432580D01*
X64587333Y-81606819D02*
X64254000Y-81130628D01*
X64015905Y-81606819D02*
X64015905Y-80606819D01*
X64015905Y-80606819D02*
X64396857Y-80606819D01*
X64396857Y-80606819D02*
X64492095Y-80654438D01*
X64492095Y-80654438D02*
X64539714Y-80702057D01*
X64539714Y-80702057D02*
X64587333Y-80797295D01*
X64587333Y-80797295D02*
X64587333Y-80940152D01*
X64587333Y-80940152D02*
X64539714Y-81035390D01*
X64539714Y-81035390D02*
X64492095Y-81083009D01*
X64492095Y-81083009D02*
X64396857Y-81130628D01*
X64396857Y-81130628D02*
X64015905Y-81130628D01*
X65063524Y-81606819D02*
X65254000Y-81606819D01*
X65254000Y-81606819D02*
X65349238Y-81559200D01*
X65349238Y-81559200D02*
X65396857Y-81511580D01*
X65396857Y-81511580D02*
X65492095Y-81368723D01*
X65492095Y-81368723D02*
X65539714Y-81178247D01*
X65539714Y-81178247D02*
X65539714Y-80797295D01*
X65539714Y-80797295D02*
X65492095Y-80702057D01*
X65492095Y-80702057D02*
X65444476Y-80654438D01*
X65444476Y-80654438D02*
X65349238Y-80606819D01*
X65349238Y-80606819D02*
X65158762Y-80606819D01*
X65158762Y-80606819D02*
X65063524Y-80654438D01*
X65063524Y-80654438D02*
X65015905Y-80702057D01*
X65015905Y-80702057D02*
X64968286Y-80797295D01*
X64968286Y-80797295D02*
X64968286Y-81035390D01*
X64968286Y-81035390D02*
X65015905Y-81130628D01*
X65015905Y-81130628D02*
X65063524Y-81178247D01*
X65063524Y-81178247D02*
X65158762Y-81225866D01*
X65158762Y-81225866D02*
X65349238Y-81225866D01*
X65349238Y-81225866D02*
X65444476Y-81178247D01*
X65444476Y-81178247D02*
X65492095Y-81130628D01*
X65492095Y-81130628D02*
X65539714Y-81035390D01*
X69360996Y-38813250D02*
X69462011Y-38240831D01*
X68956935Y-38409189D02*
X69664042Y-37702083D01*
X69664042Y-37702083D02*
X69933416Y-37971457D01*
X69933416Y-37971457D02*
X69967088Y-38072472D01*
X69967088Y-38072472D02*
X69967088Y-38139815D01*
X69967088Y-38139815D02*
X69933416Y-38240831D01*
X69933416Y-38240831D02*
X69832401Y-38341846D01*
X69832401Y-38341846D02*
X69731385Y-38375518D01*
X69731385Y-38375518D02*
X69664042Y-38375518D01*
X69664042Y-38375518D02*
X69563027Y-38341846D01*
X69563027Y-38341846D02*
X69293653Y-38072472D01*
X70270133Y-38442861D02*
X70337477Y-38442861D01*
X70337477Y-38442861D02*
X70438492Y-38476533D01*
X70438492Y-38476533D02*
X70606851Y-38644892D01*
X70606851Y-38644892D02*
X70640523Y-38745907D01*
X70640523Y-38745907D02*
X70640523Y-38813250D01*
X70640523Y-38813250D02*
X70606851Y-38914266D01*
X70606851Y-38914266D02*
X70539507Y-38981609D01*
X70539507Y-38981609D02*
X70404820Y-39048953D01*
X70404820Y-39048953D02*
X69596698Y-39048953D01*
X69596698Y-39048953D02*
X70034431Y-39486685D01*
X70842553Y-39486686D02*
X70808882Y-39385670D01*
X70808882Y-39385670D02*
X70808882Y-39318327D01*
X70808882Y-39318327D02*
X70842553Y-39217312D01*
X70842553Y-39217312D02*
X70876225Y-39183640D01*
X70876225Y-39183640D02*
X70977240Y-39149968D01*
X70977240Y-39149968D02*
X71044584Y-39149968D01*
X71044584Y-39149968D02*
X71145599Y-39183640D01*
X71145599Y-39183640D02*
X71280286Y-39318327D01*
X71280286Y-39318327D02*
X71313958Y-39419342D01*
X71313958Y-39419342D02*
X71313958Y-39486686D01*
X71313958Y-39486686D02*
X71280286Y-39587701D01*
X71280286Y-39587701D02*
X71246614Y-39621373D01*
X71246614Y-39621373D02*
X71145599Y-39655044D01*
X71145599Y-39655044D02*
X71078256Y-39655044D01*
X71078256Y-39655044D02*
X70977240Y-39621373D01*
X70977240Y-39621373D02*
X70842553Y-39486686D01*
X70842553Y-39486686D02*
X70741538Y-39453014D01*
X70741538Y-39453014D02*
X70674195Y-39453014D01*
X70674195Y-39453014D02*
X70573179Y-39486686D01*
X70573179Y-39486686D02*
X70438492Y-39621373D01*
X70438492Y-39621373D02*
X70404821Y-39722388D01*
X70404821Y-39722388D02*
X70404821Y-39789731D01*
X70404821Y-39789731D02*
X70438492Y-39890747D01*
X70438492Y-39890747D02*
X70573179Y-40025434D01*
X70573179Y-40025434D02*
X70674195Y-40059105D01*
X70674195Y-40059105D02*
X70741538Y-40059105D01*
X70741538Y-40059105D02*
X70842553Y-40025434D01*
X70842553Y-40025434D02*
X70977240Y-39890747D01*
X70977240Y-39890747D02*
X71010912Y-39789731D01*
X71010912Y-39789731D02*
X71010912Y-39722388D01*
X71010912Y-39722388D02*
X70977240Y-39621373D01*
X64111142Y-85097580D02*
X64063523Y-85145200D01*
X64063523Y-85145200D02*
X63920666Y-85192819D01*
X63920666Y-85192819D02*
X63825428Y-85192819D01*
X63825428Y-85192819D02*
X63682571Y-85145200D01*
X63682571Y-85145200D02*
X63587333Y-85049961D01*
X63587333Y-85049961D02*
X63539714Y-84954723D01*
X63539714Y-84954723D02*
X63492095Y-84764247D01*
X63492095Y-84764247D02*
X63492095Y-84621390D01*
X63492095Y-84621390D02*
X63539714Y-84430914D01*
X63539714Y-84430914D02*
X63587333Y-84335676D01*
X63587333Y-84335676D02*
X63682571Y-84240438D01*
X63682571Y-84240438D02*
X63825428Y-84192819D01*
X63825428Y-84192819D02*
X63920666Y-84192819D01*
X63920666Y-84192819D02*
X64063523Y-84240438D01*
X64063523Y-84240438D02*
X64111142Y-84288057D01*
X65063523Y-85192819D02*
X64492095Y-85192819D01*
X64777809Y-85192819D02*
X64777809Y-84192819D01*
X64777809Y-84192819D02*
X64682571Y-84335676D01*
X64682571Y-84335676D02*
X64587333Y-84430914D01*
X64587333Y-84430914D02*
X64492095Y-84478533D01*
X65396857Y-84192819D02*
X66063523Y-84192819D01*
X66063523Y-84192819D02*
X65634952Y-85192819D01*
X81541784Y-43929254D02*
X81474440Y-43929254D01*
X81474440Y-43929254D02*
X81339753Y-43861910D01*
X81339753Y-43861910D02*
X81272410Y-43794567D01*
X81272410Y-43794567D02*
X81205066Y-43659880D01*
X81205066Y-43659880D02*
X81205066Y-43525193D01*
X81205066Y-43525193D02*
X81238738Y-43424178D01*
X81238738Y-43424178D02*
X81339753Y-43255819D01*
X81339753Y-43255819D02*
X81440768Y-43154804D01*
X81440768Y-43154804D02*
X81609127Y-43053788D01*
X81609127Y-43053788D02*
X81710142Y-43020117D01*
X81710142Y-43020117D02*
X81844829Y-43020117D01*
X81844829Y-43020117D02*
X81979516Y-43087460D01*
X81979516Y-43087460D02*
X82046860Y-43154804D01*
X82046860Y-43154804D02*
X82114203Y-43289491D01*
X82114203Y-43289491D02*
X82114203Y-43356834D01*
X82383577Y-43626208D02*
X82450921Y-43626208D01*
X82450921Y-43626208D02*
X82551936Y-43659880D01*
X82551936Y-43659880D02*
X82720295Y-43828239D01*
X82720295Y-43828239D02*
X82753967Y-43929254D01*
X82753967Y-43929254D02*
X82753967Y-43996597D01*
X82753967Y-43996597D02*
X82720295Y-44097613D01*
X82720295Y-44097613D02*
X82652951Y-44164956D01*
X82652951Y-44164956D02*
X82518264Y-44232300D01*
X82518264Y-44232300D02*
X81710142Y-44232300D01*
X81710142Y-44232300D02*
X82147875Y-44670032D01*
X83494745Y-44602689D02*
X83158028Y-44265971D01*
X83158028Y-44265971D02*
X82787639Y-44569017D01*
X82787639Y-44569017D02*
X82854982Y-44569017D01*
X82854982Y-44569017D02*
X82955997Y-44602689D01*
X82955997Y-44602689D02*
X83124356Y-44771048D01*
X83124356Y-44771048D02*
X83158028Y-44872063D01*
X83158028Y-44872063D02*
X83158028Y-44939407D01*
X83158028Y-44939407D02*
X83124356Y-45040422D01*
X83124356Y-45040422D02*
X82955997Y-45208781D01*
X82955997Y-45208781D02*
X82854982Y-45242452D01*
X82854982Y-45242452D02*
X82787639Y-45242452D01*
X82787639Y-45242452D02*
X82686623Y-45208781D01*
X82686623Y-45208781D02*
X82518265Y-45040422D01*
X82518265Y-45040422D02*
X82484593Y-44939407D01*
X82484593Y-44939407D02*
X82484593Y-44872063D01*
X87555254Y-49884190D02*
X87487910Y-49884190D01*
X87487910Y-49884190D02*
X87353223Y-49816846D01*
X87353223Y-49816846D02*
X87285880Y-49749503D01*
X87285880Y-49749503D02*
X87218536Y-49614816D01*
X87218536Y-49614816D02*
X87218536Y-49480129D01*
X87218536Y-49480129D02*
X87252208Y-49379114D01*
X87252208Y-49379114D02*
X87353223Y-49210755D01*
X87353223Y-49210755D02*
X87454238Y-49109740D01*
X87454238Y-49109740D02*
X87622597Y-49008724D01*
X87622597Y-49008724D02*
X87723612Y-48975053D01*
X87723612Y-48975053D02*
X87858299Y-48975053D01*
X87858299Y-48975053D02*
X87992986Y-49042396D01*
X87992986Y-49042396D02*
X88060330Y-49109740D01*
X88060330Y-49109740D02*
X88127673Y-49244427D01*
X88127673Y-49244427D02*
X88127673Y-49311770D01*
X88565406Y-50086220D02*
X88094002Y-50557625D01*
X88666421Y-49648488D02*
X87992986Y-49985205D01*
X87992986Y-49985205D02*
X88430719Y-50422938D01*
X89070483Y-50254579D02*
X89137826Y-50254579D01*
X89137826Y-50254579D02*
X89238841Y-50288251D01*
X89238841Y-50288251D02*
X89407200Y-50456610D01*
X89407200Y-50456610D02*
X89440872Y-50557625D01*
X89440872Y-50557625D02*
X89440872Y-50624969D01*
X89440872Y-50624969D02*
X89407200Y-50725984D01*
X89407200Y-50725984D02*
X89339857Y-50793327D01*
X89339857Y-50793327D02*
X89205170Y-50860671D01*
X89205170Y-50860671D02*
X88397048Y-50860671D01*
X88397048Y-50860671D02*
X88834780Y-51298404D01*
X119674819Y-56459333D02*
X120389104Y-56459333D01*
X120389104Y-56459333D02*
X120531961Y-56506952D01*
X120531961Y-56506952D02*
X120627200Y-56602190D01*
X120627200Y-56602190D02*
X120674819Y-56745047D01*
X120674819Y-56745047D02*
X120674819Y-56840285D01*
X120674819Y-55983142D02*
X119674819Y-55983142D01*
X119674819Y-55983142D02*
X119674819Y-55602190D01*
X119674819Y-55602190D02*
X119722438Y-55506952D01*
X119722438Y-55506952D02*
X119770057Y-55459333D01*
X119770057Y-55459333D02*
X119865295Y-55411714D01*
X119865295Y-55411714D02*
X120008152Y-55411714D01*
X120008152Y-55411714D02*
X120103390Y-55459333D01*
X120103390Y-55459333D02*
X120151009Y-55506952D01*
X120151009Y-55506952D02*
X120198628Y-55602190D01*
X120198628Y-55602190D02*
X120198628Y-55983142D01*
X119674819Y-54506952D02*
X119674819Y-54983142D01*
X119674819Y-54983142D02*
X120151009Y-55030761D01*
X120151009Y-55030761D02*
X120103390Y-54983142D01*
X120103390Y-54983142D02*
X120055771Y-54887904D01*
X120055771Y-54887904D02*
X120055771Y-54649809D01*
X120055771Y-54649809D02*
X120103390Y-54554571D01*
X120103390Y-54554571D02*
X120151009Y-54506952D01*
X120151009Y-54506952D02*
X120246247Y-54459333D01*
X120246247Y-54459333D02*
X120484342Y-54459333D01*
X120484342Y-54459333D02*
X120579580Y-54506952D01*
X120579580Y-54506952D02*
X120627200Y-54554571D01*
X120627200Y-54554571D02*
X120674819Y-54649809D01*
X120674819Y-54649809D02*
X120674819Y-54887904D01*
X120674819Y-54887904D02*
X120627200Y-54983142D01*
X120627200Y-54983142D02*
X120579580Y-55030761D01*
X86937285Y-44572999D02*
X86869941Y-44572999D01*
X86869941Y-44572999D02*
X86735254Y-44505655D01*
X86735254Y-44505655D02*
X86667911Y-44438312D01*
X86667911Y-44438312D02*
X86600567Y-44303625D01*
X86600567Y-44303625D02*
X86600567Y-44168938D01*
X86600567Y-44168938D02*
X86634239Y-44067923D01*
X86634239Y-44067923D02*
X86735254Y-43899564D01*
X86735254Y-43899564D02*
X86836269Y-43798549D01*
X86836269Y-43798549D02*
X87004628Y-43697533D01*
X87004628Y-43697533D02*
X87105643Y-43663862D01*
X87105643Y-43663862D02*
X87240330Y-43663862D01*
X87240330Y-43663862D02*
X87375017Y-43731205D01*
X87375017Y-43731205D02*
X87442361Y-43798549D01*
X87442361Y-43798549D02*
X87509704Y-43933236D01*
X87509704Y-43933236D02*
X87509704Y-44000579D01*
X87947437Y-44775029D02*
X87476033Y-45246434D01*
X88048452Y-44337297D02*
X87375017Y-44674014D01*
X87375017Y-44674014D02*
X87812750Y-45111747D01*
X88486185Y-44842373D02*
X88923918Y-45280106D01*
X88923918Y-45280106D02*
X88418842Y-45313778D01*
X88418842Y-45313778D02*
X88519857Y-45414793D01*
X88519857Y-45414793D02*
X88553529Y-45515808D01*
X88553529Y-45515808D02*
X88553529Y-45583152D01*
X88553529Y-45583152D02*
X88519857Y-45684167D01*
X88519857Y-45684167D02*
X88351498Y-45852526D01*
X88351498Y-45852526D02*
X88250483Y-45886197D01*
X88250483Y-45886197D02*
X88183140Y-45886197D01*
X88183140Y-45886197D02*
X88082124Y-45852526D01*
X88082124Y-45852526D02*
X87880094Y-45650495D01*
X87880094Y-45650495D02*
X87846422Y-45549480D01*
X87846422Y-45549480D02*
X87846422Y-45482136D01*
X109561142Y-71700819D02*
X109227809Y-71224628D01*
X108989714Y-71700819D02*
X108989714Y-70700819D01*
X108989714Y-70700819D02*
X109370666Y-70700819D01*
X109370666Y-70700819D02*
X109465904Y-70748438D01*
X109465904Y-70748438D02*
X109513523Y-70796057D01*
X109513523Y-70796057D02*
X109561142Y-70891295D01*
X109561142Y-70891295D02*
X109561142Y-71034152D01*
X109561142Y-71034152D02*
X109513523Y-71129390D01*
X109513523Y-71129390D02*
X109465904Y-71177009D01*
X109465904Y-71177009D02*
X109370666Y-71224628D01*
X109370666Y-71224628D02*
X108989714Y-71224628D01*
X110513523Y-71700819D02*
X109942095Y-71700819D01*
X110227809Y-71700819D02*
X110227809Y-70700819D01*
X110227809Y-70700819D02*
X110132571Y-70843676D01*
X110132571Y-70843676D02*
X110037333Y-70938914D01*
X110037333Y-70938914D02*
X109942095Y-70986533D01*
X111084952Y-71129390D02*
X110989714Y-71081771D01*
X110989714Y-71081771D02*
X110942095Y-71034152D01*
X110942095Y-71034152D02*
X110894476Y-70938914D01*
X110894476Y-70938914D02*
X110894476Y-70891295D01*
X110894476Y-70891295D02*
X110942095Y-70796057D01*
X110942095Y-70796057D02*
X110989714Y-70748438D01*
X110989714Y-70748438D02*
X111084952Y-70700819D01*
X111084952Y-70700819D02*
X111275428Y-70700819D01*
X111275428Y-70700819D02*
X111370666Y-70748438D01*
X111370666Y-70748438D02*
X111418285Y-70796057D01*
X111418285Y-70796057D02*
X111465904Y-70891295D01*
X111465904Y-70891295D02*
X111465904Y-70938914D01*
X111465904Y-70938914D02*
X111418285Y-71034152D01*
X111418285Y-71034152D02*
X111370666Y-71081771D01*
X111370666Y-71081771D02*
X111275428Y-71129390D01*
X111275428Y-71129390D02*
X111084952Y-71129390D01*
X111084952Y-71129390D02*
X110989714Y-71177009D01*
X110989714Y-71177009D02*
X110942095Y-71224628D01*
X110942095Y-71224628D02*
X110894476Y-71319866D01*
X110894476Y-71319866D02*
X110894476Y-71510342D01*
X110894476Y-71510342D02*
X110942095Y-71605580D01*
X110942095Y-71605580D02*
X110989714Y-71653200D01*
X110989714Y-71653200D02*
X111084952Y-71700819D01*
X111084952Y-71700819D02*
X111275428Y-71700819D01*
X111275428Y-71700819D02*
X111370666Y-71653200D01*
X111370666Y-71653200D02*
X111418285Y-71605580D01*
X111418285Y-71605580D02*
X111465904Y-71510342D01*
X111465904Y-71510342D02*
X111465904Y-71319866D01*
X111465904Y-71319866D02*
X111418285Y-71224628D01*
X111418285Y-71224628D02*
X111370666Y-71177009D01*
X111370666Y-71177009D02*
X111275428Y-71129390D01*
X50212666Y-60254819D02*
X50212666Y-60969104D01*
X50212666Y-60969104D02*
X50165047Y-61111961D01*
X50165047Y-61111961D02*
X50069809Y-61207200D01*
X50069809Y-61207200D02*
X49926952Y-61254819D01*
X49926952Y-61254819D02*
X49831714Y-61254819D01*
X51212666Y-61254819D02*
X50641238Y-61254819D01*
X50926952Y-61254819D02*
X50926952Y-60254819D01*
X50926952Y-60254819D02*
X50831714Y-60397676D01*
X50831714Y-60397676D02*
X50736476Y-60492914D01*
X50736476Y-60492914D02*
X50641238Y-60540533D01*
X89890121Y-47549323D02*
X89822777Y-47549323D01*
X89822777Y-47549323D02*
X89688090Y-47481979D01*
X89688090Y-47481979D02*
X89620747Y-47414636D01*
X89620747Y-47414636D02*
X89553403Y-47279949D01*
X89553403Y-47279949D02*
X89553403Y-47145262D01*
X89553403Y-47145262D02*
X89587075Y-47044247D01*
X89587075Y-47044247D02*
X89688090Y-46875888D01*
X89688090Y-46875888D02*
X89789105Y-46774873D01*
X89789105Y-46774873D02*
X89957464Y-46673857D01*
X89957464Y-46673857D02*
X90058479Y-46640186D01*
X90058479Y-46640186D02*
X90193166Y-46640186D01*
X90193166Y-46640186D02*
X90327853Y-46707529D01*
X90327853Y-46707529D02*
X90395197Y-46774873D01*
X90395197Y-46774873D02*
X90462540Y-46909560D01*
X90462540Y-46909560D02*
X90462540Y-46976903D01*
X90765586Y-47145262D02*
X91203319Y-47582995D01*
X91203319Y-47582995D02*
X90698243Y-47616666D01*
X90698243Y-47616666D02*
X90799258Y-47717682D01*
X90799258Y-47717682D02*
X90832930Y-47818697D01*
X90832930Y-47818697D02*
X90832930Y-47886040D01*
X90832930Y-47886040D02*
X90799258Y-47987056D01*
X90799258Y-47987056D02*
X90630899Y-48155414D01*
X90630899Y-48155414D02*
X90529884Y-48189086D01*
X90529884Y-48189086D02*
X90462540Y-48189086D01*
X90462540Y-48189086D02*
X90361525Y-48155414D01*
X90361525Y-48155414D02*
X90159495Y-47953384D01*
X90159495Y-47953384D02*
X90125823Y-47852369D01*
X90125823Y-47852369D02*
X90125823Y-47785025D01*
X91843082Y-48222758D02*
X91506365Y-47886040D01*
X91506365Y-47886040D02*
X91135976Y-48189086D01*
X91135976Y-48189086D02*
X91203319Y-48189086D01*
X91203319Y-48189086D02*
X91304334Y-48222758D01*
X91304334Y-48222758D02*
X91472693Y-48391117D01*
X91472693Y-48391117D02*
X91506365Y-48492132D01*
X91506365Y-48492132D02*
X91506365Y-48559476D01*
X91506365Y-48559476D02*
X91472693Y-48660491D01*
X91472693Y-48660491D02*
X91304334Y-48828850D01*
X91304334Y-48828850D02*
X91203319Y-48862521D01*
X91203319Y-48862521D02*
X91135976Y-48862521D01*
X91135976Y-48862521D02*
X91034960Y-48828850D01*
X91034960Y-48828850D02*
X90866602Y-48660491D01*
X90866602Y-48660491D02*
X90832930Y-48559476D01*
X90832930Y-48559476D02*
X90832930Y-48492132D01*
X70007992Y-60100465D02*
X69940648Y-60100465D01*
X69940648Y-60100465D02*
X69805961Y-60033121D01*
X69805961Y-60033121D02*
X69738618Y-59965778D01*
X69738618Y-59965778D02*
X69671274Y-59831091D01*
X69671274Y-59831091D02*
X69671274Y-59696404D01*
X69671274Y-59696404D02*
X69704946Y-59595389D01*
X69704946Y-59595389D02*
X69805961Y-59427030D01*
X69805961Y-59427030D02*
X69906976Y-59326015D01*
X69906976Y-59326015D02*
X70075335Y-59224999D01*
X70075335Y-59224999D02*
X70176350Y-59191328D01*
X70176350Y-59191328D02*
X70311037Y-59191328D01*
X70311037Y-59191328D02*
X70445724Y-59258671D01*
X70445724Y-59258671D02*
X70513068Y-59326015D01*
X70513068Y-59326015D02*
X70580411Y-59460702D01*
X70580411Y-59460702D02*
X70580411Y-59528045D01*
X70849785Y-59797419D02*
X70917129Y-59797419D01*
X70917129Y-59797419D02*
X71018144Y-59831091D01*
X71018144Y-59831091D02*
X71186503Y-59999450D01*
X71186503Y-59999450D02*
X71220175Y-60100465D01*
X71220175Y-60100465D02*
X71220175Y-60167808D01*
X71220175Y-60167808D02*
X71186503Y-60268824D01*
X71186503Y-60268824D02*
X71119159Y-60336167D01*
X71119159Y-60336167D02*
X70984472Y-60403511D01*
X70984472Y-60403511D02*
X70176350Y-60403511D01*
X70176350Y-60403511D02*
X70614083Y-60841243D01*
X71556892Y-60369839D02*
X71994625Y-60807572D01*
X71994625Y-60807572D02*
X71489549Y-60841244D01*
X71489549Y-60841244D02*
X71590564Y-60942259D01*
X71590564Y-60942259D02*
X71624236Y-61043274D01*
X71624236Y-61043274D02*
X71624236Y-61110618D01*
X71624236Y-61110618D02*
X71590564Y-61211633D01*
X71590564Y-61211633D02*
X71422205Y-61379992D01*
X71422205Y-61379992D02*
X71321190Y-61413663D01*
X71321190Y-61413663D02*
X71253847Y-61413663D01*
X71253847Y-61413663D02*
X71152831Y-61379992D01*
X71152831Y-61379992D02*
X70950801Y-61177961D01*
X70950801Y-61177961D02*
X70917129Y-61076946D01*
X70917129Y-61076946D02*
X70917129Y-61009602D01*
X104835580Y-53496357D02*
X104883200Y-53543976D01*
X104883200Y-53543976D02*
X104930819Y-53686833D01*
X104930819Y-53686833D02*
X104930819Y-53782071D01*
X104930819Y-53782071D02*
X104883200Y-53924928D01*
X104883200Y-53924928D02*
X104787961Y-54020166D01*
X104787961Y-54020166D02*
X104692723Y-54067785D01*
X104692723Y-54067785D02*
X104502247Y-54115404D01*
X104502247Y-54115404D02*
X104359390Y-54115404D01*
X104359390Y-54115404D02*
X104168914Y-54067785D01*
X104168914Y-54067785D02*
X104073676Y-54020166D01*
X104073676Y-54020166D02*
X103978438Y-53924928D01*
X103978438Y-53924928D02*
X103930819Y-53782071D01*
X103930819Y-53782071D02*
X103930819Y-53686833D01*
X103930819Y-53686833D02*
X103978438Y-53543976D01*
X103978438Y-53543976D02*
X104026057Y-53496357D01*
X104026057Y-53115404D02*
X103978438Y-53067785D01*
X103978438Y-53067785D02*
X103930819Y-52972547D01*
X103930819Y-52972547D02*
X103930819Y-52734452D01*
X103930819Y-52734452D02*
X103978438Y-52639214D01*
X103978438Y-52639214D02*
X104026057Y-52591595D01*
X104026057Y-52591595D02*
X104121295Y-52543976D01*
X104121295Y-52543976D02*
X104216533Y-52543976D01*
X104216533Y-52543976D02*
X104359390Y-52591595D01*
X104359390Y-52591595D02*
X104930819Y-53163023D01*
X104930819Y-53163023D02*
X104930819Y-52543976D01*
X103930819Y-51924928D02*
X103930819Y-51829690D01*
X103930819Y-51829690D02*
X103978438Y-51734452D01*
X103978438Y-51734452D02*
X104026057Y-51686833D01*
X104026057Y-51686833D02*
X104121295Y-51639214D01*
X104121295Y-51639214D02*
X104311771Y-51591595D01*
X104311771Y-51591595D02*
X104549866Y-51591595D01*
X104549866Y-51591595D02*
X104740342Y-51639214D01*
X104740342Y-51639214D02*
X104835580Y-51686833D01*
X104835580Y-51686833D02*
X104883200Y-51734452D01*
X104883200Y-51734452D02*
X104930819Y-51829690D01*
X104930819Y-51829690D02*
X104930819Y-51924928D01*
X104930819Y-51924928D02*
X104883200Y-52020166D01*
X104883200Y-52020166D02*
X104835580Y-52067785D01*
X104835580Y-52067785D02*
X104740342Y-52115404D01*
X104740342Y-52115404D02*
X104549866Y-52163023D01*
X104549866Y-52163023D02*
X104311771Y-52163023D01*
X104311771Y-52163023D02*
X104121295Y-52115404D01*
X104121295Y-52115404D02*
X104026057Y-52067785D01*
X104026057Y-52067785D02*
X103978438Y-52020166D01*
X103978438Y-52020166D02*
X103930819Y-51924928D01*
X84640819Y-82954857D02*
X84164628Y-83288190D01*
X84640819Y-83526285D02*
X83640819Y-83526285D01*
X83640819Y-83526285D02*
X83640819Y-83145333D01*
X83640819Y-83145333D02*
X83688438Y-83050095D01*
X83688438Y-83050095D02*
X83736057Y-83002476D01*
X83736057Y-83002476D02*
X83831295Y-82954857D01*
X83831295Y-82954857D02*
X83974152Y-82954857D01*
X83974152Y-82954857D02*
X84069390Y-83002476D01*
X84069390Y-83002476D02*
X84117009Y-83050095D01*
X84117009Y-83050095D02*
X84164628Y-83145333D01*
X84164628Y-83145333D02*
X84164628Y-83526285D01*
X84640819Y-82002476D02*
X84640819Y-82573904D01*
X84640819Y-82288190D02*
X83640819Y-82288190D01*
X83640819Y-82288190D02*
X83783676Y-82383428D01*
X83783676Y-82383428D02*
X83878914Y-82478666D01*
X83878914Y-82478666D02*
X83926533Y-82573904D01*
X83640819Y-81669142D02*
X83640819Y-81050095D01*
X83640819Y-81050095D02*
X84021771Y-81383428D01*
X84021771Y-81383428D02*
X84021771Y-81240571D01*
X84021771Y-81240571D02*
X84069390Y-81145333D01*
X84069390Y-81145333D02*
X84117009Y-81097714D01*
X84117009Y-81097714D02*
X84212247Y-81050095D01*
X84212247Y-81050095D02*
X84450342Y-81050095D01*
X84450342Y-81050095D02*
X84545580Y-81097714D01*
X84545580Y-81097714D02*
X84593200Y-81145333D01*
X84593200Y-81145333D02*
X84640819Y-81240571D01*
X84640819Y-81240571D02*
X84640819Y-81526285D01*
X84640819Y-81526285D02*
X84593200Y-81621523D01*
X84593200Y-81621523D02*
X84545580Y-81669142D01*
X64286000Y-92989009D02*
X64428857Y-93036628D01*
X64428857Y-93036628D02*
X64476476Y-93084247D01*
X64476476Y-93084247D02*
X64524095Y-93179485D01*
X64524095Y-93179485D02*
X64524095Y-93322342D01*
X64524095Y-93322342D02*
X64476476Y-93417580D01*
X64476476Y-93417580D02*
X64428857Y-93465200D01*
X64428857Y-93465200D02*
X64333619Y-93512819D01*
X64333619Y-93512819D02*
X63952667Y-93512819D01*
X63952667Y-93512819D02*
X63952667Y-92512819D01*
X63952667Y-92512819D02*
X64286000Y-92512819D01*
X64286000Y-92512819D02*
X64381238Y-92560438D01*
X64381238Y-92560438D02*
X64428857Y-92608057D01*
X64428857Y-92608057D02*
X64476476Y-92703295D01*
X64476476Y-92703295D02*
X64476476Y-92798533D01*
X64476476Y-92798533D02*
X64428857Y-92893771D01*
X64428857Y-92893771D02*
X64381238Y-92941390D01*
X64381238Y-92941390D02*
X64286000Y-92989009D01*
X64286000Y-92989009D02*
X63952667Y-92989009D01*
X64952667Y-93512819D02*
X64952667Y-92846152D01*
X64952667Y-92512819D02*
X64905048Y-92560438D01*
X64905048Y-92560438D02*
X64952667Y-92608057D01*
X64952667Y-92608057D02*
X65000286Y-92560438D01*
X65000286Y-92560438D02*
X64952667Y-92512819D01*
X64952667Y-92512819D02*
X64952667Y-92608057D01*
X65857428Y-93512819D02*
X65857428Y-92989009D01*
X65857428Y-92989009D02*
X65809809Y-92893771D01*
X65809809Y-92893771D02*
X65714571Y-92846152D01*
X65714571Y-92846152D02*
X65524095Y-92846152D01*
X65524095Y-92846152D02*
X65428857Y-92893771D01*
X65857428Y-93465200D02*
X65762190Y-93512819D01*
X65762190Y-93512819D02*
X65524095Y-93512819D01*
X65524095Y-93512819D02*
X65428857Y-93465200D01*
X65428857Y-93465200D02*
X65381238Y-93369961D01*
X65381238Y-93369961D02*
X65381238Y-93274723D01*
X65381238Y-93274723D02*
X65428857Y-93179485D01*
X65428857Y-93179485D02*
X65524095Y-93131866D01*
X65524095Y-93131866D02*
X65762190Y-93131866D01*
X65762190Y-93131866D02*
X65857428Y-93084247D01*
X66286000Y-93465200D02*
X66381238Y-93512819D01*
X66381238Y-93512819D02*
X66571714Y-93512819D01*
X66571714Y-93512819D02*
X66666952Y-93465200D01*
X66666952Y-93465200D02*
X66714571Y-93369961D01*
X66714571Y-93369961D02*
X66714571Y-93322342D01*
X66714571Y-93322342D02*
X66666952Y-93227104D01*
X66666952Y-93227104D02*
X66571714Y-93179485D01*
X66571714Y-93179485D02*
X66428857Y-93179485D01*
X66428857Y-93179485D02*
X66333619Y-93131866D01*
X66333619Y-93131866D02*
X66286000Y-93036628D01*
X66286000Y-93036628D02*
X66286000Y-92989009D01*
X66286000Y-92989009D02*
X66333619Y-92893771D01*
X66333619Y-92893771D02*
X66428857Y-92846152D01*
X66428857Y-92846152D02*
X66571714Y-92846152D01*
X66571714Y-92846152D02*
X66666952Y-92893771D01*
X67666952Y-93512819D02*
X67095524Y-93512819D01*
X67381238Y-93512819D02*
X67381238Y-92512819D01*
X67381238Y-92512819D02*
X67286000Y-92655676D01*
X67286000Y-92655676D02*
X67190762Y-92750914D01*
X67190762Y-92750914D02*
X67095524Y-92798533D01*
X63389992Y-45538655D02*
X63491007Y-44966236D01*
X62985931Y-45134594D02*
X63693038Y-44427488D01*
X63693038Y-44427488D02*
X63962412Y-44696862D01*
X63962412Y-44696862D02*
X63996084Y-44797877D01*
X63996084Y-44797877D02*
X63996084Y-44865220D01*
X63996084Y-44865220D02*
X63962412Y-44966236D01*
X63962412Y-44966236D02*
X63861397Y-45067251D01*
X63861397Y-45067251D02*
X63760381Y-45100923D01*
X63760381Y-45100923D02*
X63693038Y-45100923D01*
X63693038Y-45100923D02*
X63592023Y-45067251D01*
X63592023Y-45067251D02*
X63322649Y-44797877D01*
X64299129Y-45168266D02*
X64366473Y-45168266D01*
X64366473Y-45168266D02*
X64467488Y-45201938D01*
X64467488Y-45201938D02*
X64635847Y-45370297D01*
X64635847Y-45370297D02*
X64669519Y-45471312D01*
X64669519Y-45471312D02*
X64669519Y-45538655D01*
X64669519Y-45538655D02*
X64635847Y-45639671D01*
X64635847Y-45639671D02*
X64568503Y-45707014D01*
X64568503Y-45707014D02*
X64433816Y-45774358D01*
X64433816Y-45774358D02*
X63625694Y-45774358D01*
X63625694Y-45774358D02*
X64063427Y-46212090D01*
X65376626Y-46111075D02*
X65241939Y-45976388D01*
X65241939Y-45976388D02*
X65140923Y-45942717D01*
X65140923Y-45942717D02*
X65073580Y-45942717D01*
X65073580Y-45942717D02*
X64905221Y-45976388D01*
X64905221Y-45976388D02*
X64736862Y-46077404D01*
X64736862Y-46077404D02*
X64467488Y-46346778D01*
X64467488Y-46346778D02*
X64433817Y-46447793D01*
X64433817Y-46447793D02*
X64433817Y-46515136D01*
X64433817Y-46515136D02*
X64467488Y-46616152D01*
X64467488Y-46616152D02*
X64602175Y-46750839D01*
X64602175Y-46750839D02*
X64703191Y-46784510D01*
X64703191Y-46784510D02*
X64770534Y-46784510D01*
X64770534Y-46784510D02*
X64871549Y-46750839D01*
X64871549Y-46750839D02*
X65039908Y-46582480D01*
X65039908Y-46582480D02*
X65073580Y-46481465D01*
X65073580Y-46481465D02*
X65073580Y-46414121D01*
X65073580Y-46414121D02*
X65039908Y-46313106D01*
X65039908Y-46313106D02*
X64905221Y-46178419D01*
X64905221Y-46178419D02*
X64804206Y-46144747D01*
X64804206Y-46144747D02*
X64736862Y-46144747D01*
X64736862Y-46144747D02*
X64635847Y-46178419D01*
X74636476Y-92527819D02*
X74636476Y-93242104D01*
X74636476Y-93242104D02*
X74588857Y-93384961D01*
X74588857Y-93384961D02*
X74493619Y-93480200D01*
X74493619Y-93480200D02*
X74350762Y-93527819D01*
X74350762Y-93527819D02*
X74255524Y-93527819D01*
X75112667Y-93527819D02*
X75112667Y-92527819D01*
X75112667Y-92527819D02*
X75493619Y-92527819D01*
X75493619Y-92527819D02*
X75588857Y-92575438D01*
X75588857Y-92575438D02*
X75636476Y-92623057D01*
X75636476Y-92623057D02*
X75684095Y-92718295D01*
X75684095Y-92718295D02*
X75684095Y-92861152D01*
X75684095Y-92861152D02*
X75636476Y-92956390D01*
X75636476Y-92956390D02*
X75588857Y-93004009D01*
X75588857Y-93004009D02*
X75493619Y-93051628D01*
X75493619Y-93051628D02*
X75112667Y-93051628D01*
X76636476Y-93527819D02*
X76065048Y-93527819D01*
X76350762Y-93527819D02*
X76350762Y-92527819D01*
X76350762Y-92527819D02*
X76255524Y-92670676D01*
X76255524Y-92670676D02*
X76160286Y-92765914D01*
X76160286Y-92765914D02*
X76065048Y-92813533D01*
X77588857Y-93527819D02*
X77017429Y-93527819D01*
X77303143Y-93527819D02*
X77303143Y-92527819D01*
X77303143Y-92527819D02*
X77207905Y-92670676D01*
X77207905Y-92670676D02*
X77112667Y-92765914D01*
X77112667Y-92765914D02*
X77017429Y-92813533D01*
X119674819Y-46553333D02*
X120389104Y-46553333D01*
X120389104Y-46553333D02*
X120531961Y-46600952D01*
X120531961Y-46600952D02*
X120627200Y-46696190D01*
X120627200Y-46696190D02*
X120674819Y-46839047D01*
X120674819Y-46839047D02*
X120674819Y-46934285D01*
X120674819Y-46077142D02*
X119674819Y-46077142D01*
X119674819Y-46077142D02*
X119674819Y-45696190D01*
X119674819Y-45696190D02*
X119722438Y-45600952D01*
X119722438Y-45600952D02*
X119770057Y-45553333D01*
X119770057Y-45553333D02*
X119865295Y-45505714D01*
X119865295Y-45505714D02*
X120008152Y-45505714D01*
X120008152Y-45505714D02*
X120103390Y-45553333D01*
X120103390Y-45553333D02*
X120151009Y-45600952D01*
X120151009Y-45600952D02*
X120198628Y-45696190D01*
X120198628Y-45696190D02*
X120198628Y-46077142D01*
X119674819Y-45172380D02*
X119674819Y-44505714D01*
X119674819Y-44505714D02*
X120674819Y-44934285D01*
X82653142Y-77165580D02*
X82605523Y-77213200D01*
X82605523Y-77213200D02*
X82462666Y-77260819D01*
X82462666Y-77260819D02*
X82367428Y-77260819D01*
X82367428Y-77260819D02*
X82224571Y-77213200D01*
X82224571Y-77213200D02*
X82129333Y-77117961D01*
X82129333Y-77117961D02*
X82081714Y-77022723D01*
X82081714Y-77022723D02*
X82034095Y-76832247D01*
X82034095Y-76832247D02*
X82034095Y-76689390D01*
X82034095Y-76689390D02*
X82081714Y-76498914D01*
X82081714Y-76498914D02*
X82129333Y-76403676D01*
X82129333Y-76403676D02*
X82224571Y-76308438D01*
X82224571Y-76308438D02*
X82367428Y-76260819D01*
X82367428Y-76260819D02*
X82462666Y-76260819D01*
X82462666Y-76260819D02*
X82605523Y-76308438D01*
X82605523Y-76308438D02*
X82653142Y-76356057D01*
X83034095Y-76356057D02*
X83081714Y-76308438D01*
X83081714Y-76308438D02*
X83176952Y-76260819D01*
X83176952Y-76260819D02*
X83415047Y-76260819D01*
X83415047Y-76260819D02*
X83510285Y-76308438D01*
X83510285Y-76308438D02*
X83557904Y-76356057D01*
X83557904Y-76356057D02*
X83605523Y-76451295D01*
X83605523Y-76451295D02*
X83605523Y-76546533D01*
X83605523Y-76546533D02*
X83557904Y-76689390D01*
X83557904Y-76689390D02*
X82986476Y-77260819D01*
X82986476Y-77260819D02*
X83605523Y-77260819D01*
X84176952Y-76689390D02*
X84081714Y-76641771D01*
X84081714Y-76641771D02*
X84034095Y-76594152D01*
X84034095Y-76594152D02*
X83986476Y-76498914D01*
X83986476Y-76498914D02*
X83986476Y-76451295D01*
X83986476Y-76451295D02*
X84034095Y-76356057D01*
X84034095Y-76356057D02*
X84081714Y-76308438D01*
X84081714Y-76308438D02*
X84176952Y-76260819D01*
X84176952Y-76260819D02*
X84367428Y-76260819D01*
X84367428Y-76260819D02*
X84462666Y-76308438D01*
X84462666Y-76308438D02*
X84510285Y-76356057D01*
X84510285Y-76356057D02*
X84557904Y-76451295D01*
X84557904Y-76451295D02*
X84557904Y-76498914D01*
X84557904Y-76498914D02*
X84510285Y-76594152D01*
X84510285Y-76594152D02*
X84462666Y-76641771D01*
X84462666Y-76641771D02*
X84367428Y-76689390D01*
X84367428Y-76689390D02*
X84176952Y-76689390D01*
X84176952Y-76689390D02*
X84081714Y-76737009D01*
X84081714Y-76737009D02*
X84034095Y-76784628D01*
X84034095Y-76784628D02*
X83986476Y-76879866D01*
X83986476Y-76879866D02*
X83986476Y-77070342D01*
X83986476Y-77070342D02*
X84034095Y-77165580D01*
X84034095Y-77165580D02*
X84081714Y-77213200D01*
X84081714Y-77213200D02*
X84176952Y-77260819D01*
X84176952Y-77260819D02*
X84367428Y-77260819D01*
X84367428Y-77260819D02*
X84462666Y-77213200D01*
X84462666Y-77213200D02*
X84510285Y-77165580D01*
X84510285Y-77165580D02*
X84557904Y-77070342D01*
X84557904Y-77070342D02*
X84557904Y-76879866D01*
X84557904Y-76879866D02*
X84510285Y-76784628D01*
X84510285Y-76784628D02*
X84462666Y-76737009D01*
X84462666Y-76737009D02*
X84367428Y-76689390D01*
X99020476Y-92527819D02*
X99020476Y-93242104D01*
X99020476Y-93242104D02*
X98972857Y-93384961D01*
X98972857Y-93384961D02*
X98877619Y-93480200D01*
X98877619Y-93480200D02*
X98734762Y-93527819D01*
X98734762Y-93527819D02*
X98639524Y-93527819D01*
X99496667Y-93527819D02*
X99496667Y-92527819D01*
X99496667Y-92527819D02*
X99877619Y-92527819D01*
X99877619Y-92527819D02*
X99972857Y-92575438D01*
X99972857Y-92575438D02*
X100020476Y-92623057D01*
X100020476Y-92623057D02*
X100068095Y-92718295D01*
X100068095Y-92718295D02*
X100068095Y-92861152D01*
X100068095Y-92861152D02*
X100020476Y-92956390D01*
X100020476Y-92956390D02*
X99972857Y-93004009D01*
X99972857Y-93004009D02*
X99877619Y-93051628D01*
X99877619Y-93051628D02*
X99496667Y-93051628D01*
X101020476Y-93527819D02*
X100449048Y-93527819D01*
X100734762Y-93527819D02*
X100734762Y-92527819D01*
X100734762Y-92527819D02*
X100639524Y-92670676D01*
X100639524Y-92670676D02*
X100544286Y-92765914D01*
X100544286Y-92765914D02*
X100449048Y-92813533D01*
X101877619Y-92527819D02*
X101687143Y-92527819D01*
X101687143Y-92527819D02*
X101591905Y-92575438D01*
X101591905Y-92575438D02*
X101544286Y-92623057D01*
X101544286Y-92623057D02*
X101449048Y-92765914D01*
X101449048Y-92765914D02*
X101401429Y-92956390D01*
X101401429Y-92956390D02*
X101401429Y-93337342D01*
X101401429Y-93337342D02*
X101449048Y-93432580D01*
X101449048Y-93432580D02*
X101496667Y-93480200D01*
X101496667Y-93480200D02*
X101591905Y-93527819D01*
X101591905Y-93527819D02*
X101782381Y-93527819D01*
X101782381Y-93527819D02*
X101877619Y-93480200D01*
X101877619Y-93480200D02*
X101925238Y-93432580D01*
X101925238Y-93432580D02*
X101972857Y-93337342D01*
X101972857Y-93337342D02*
X101972857Y-93099247D01*
X101972857Y-93099247D02*
X101925238Y-93004009D01*
X101925238Y-93004009D02*
X101877619Y-92956390D01*
X101877619Y-92956390D02*
X101782381Y-92908771D01*
X101782381Y-92908771D02*
X101591905Y-92908771D01*
X101591905Y-92908771D02*
X101496667Y-92956390D01*
X101496667Y-92956390D02*
X101449048Y-93004009D01*
X101449048Y-93004009D02*
X101401429Y-93099247D01*
X92209784Y-45199254D02*
X92142440Y-45199254D01*
X92142440Y-45199254D02*
X92007753Y-45131910D01*
X92007753Y-45131910D02*
X91940410Y-45064567D01*
X91940410Y-45064567D02*
X91873066Y-44929880D01*
X91873066Y-44929880D02*
X91873066Y-44795193D01*
X91873066Y-44795193D02*
X91906738Y-44694178D01*
X91906738Y-44694178D02*
X92007753Y-44525819D01*
X92007753Y-44525819D02*
X92108768Y-44424804D01*
X92108768Y-44424804D02*
X92277127Y-44323788D01*
X92277127Y-44323788D02*
X92378142Y-44290117D01*
X92378142Y-44290117D02*
X92512829Y-44290117D01*
X92512829Y-44290117D02*
X92647516Y-44357460D01*
X92647516Y-44357460D02*
X92714860Y-44424804D01*
X92714860Y-44424804D02*
X92782203Y-44559491D01*
X92782203Y-44559491D02*
X92782203Y-44626834D01*
X93085249Y-44795193D02*
X93522982Y-45232926D01*
X93522982Y-45232926D02*
X93017906Y-45266597D01*
X93017906Y-45266597D02*
X93118921Y-45367613D01*
X93118921Y-45367613D02*
X93152593Y-45468628D01*
X93152593Y-45468628D02*
X93152593Y-45535971D01*
X93152593Y-45535971D02*
X93118921Y-45636987D01*
X93118921Y-45636987D02*
X92950562Y-45805345D01*
X92950562Y-45805345D02*
X92849547Y-45839017D01*
X92849547Y-45839017D02*
X92782203Y-45839017D01*
X92782203Y-45839017D02*
X92681188Y-45805345D01*
X92681188Y-45805345D02*
X92479158Y-45603315D01*
X92479158Y-45603315D02*
X92445486Y-45502300D01*
X92445486Y-45502300D02*
X92445486Y-45434956D01*
X93893371Y-46074720D02*
X93421967Y-46546124D01*
X93994387Y-45636987D02*
X93320952Y-45973704D01*
X93320952Y-45973704D02*
X93758684Y-46411437D01*
X101935642Y-77165580D02*
X101888023Y-77213200D01*
X101888023Y-77213200D02*
X101745166Y-77260819D01*
X101745166Y-77260819D02*
X101649928Y-77260819D01*
X101649928Y-77260819D02*
X101507071Y-77213200D01*
X101507071Y-77213200D02*
X101411833Y-77117961D01*
X101411833Y-77117961D02*
X101364214Y-77022723D01*
X101364214Y-77022723D02*
X101316595Y-76832247D01*
X101316595Y-76832247D02*
X101316595Y-76689390D01*
X101316595Y-76689390D02*
X101364214Y-76498914D01*
X101364214Y-76498914D02*
X101411833Y-76403676D01*
X101411833Y-76403676D02*
X101507071Y-76308438D01*
X101507071Y-76308438D02*
X101649928Y-76260819D01*
X101649928Y-76260819D02*
X101745166Y-76260819D01*
X101745166Y-76260819D02*
X101888023Y-76308438D01*
X101888023Y-76308438D02*
X101935642Y-76356057D01*
X102268976Y-76260819D02*
X102888023Y-76260819D01*
X102888023Y-76260819D02*
X102554690Y-76641771D01*
X102554690Y-76641771D02*
X102697547Y-76641771D01*
X102697547Y-76641771D02*
X102792785Y-76689390D01*
X102792785Y-76689390D02*
X102840404Y-76737009D01*
X102840404Y-76737009D02*
X102888023Y-76832247D01*
X102888023Y-76832247D02*
X102888023Y-77070342D01*
X102888023Y-77070342D02*
X102840404Y-77165580D01*
X102840404Y-77165580D02*
X102792785Y-77213200D01*
X102792785Y-77213200D02*
X102697547Y-77260819D01*
X102697547Y-77260819D02*
X102411833Y-77260819D01*
X102411833Y-77260819D02*
X102316595Y-77213200D01*
X102316595Y-77213200D02*
X102268976Y-77165580D01*
X103507071Y-76260819D02*
X103602309Y-76260819D01*
X103602309Y-76260819D02*
X103697547Y-76308438D01*
X103697547Y-76308438D02*
X103745166Y-76356057D01*
X103745166Y-76356057D02*
X103792785Y-76451295D01*
X103792785Y-76451295D02*
X103840404Y-76641771D01*
X103840404Y-76641771D02*
X103840404Y-76879866D01*
X103840404Y-76879866D02*
X103792785Y-77070342D01*
X103792785Y-77070342D02*
X103745166Y-77165580D01*
X103745166Y-77165580D02*
X103697547Y-77213200D01*
X103697547Y-77213200D02*
X103602309Y-77260819D01*
X103602309Y-77260819D02*
X103507071Y-77260819D01*
X103507071Y-77260819D02*
X103411833Y-77213200D01*
X103411833Y-77213200D02*
X103364214Y-77165580D01*
X103364214Y-77165580D02*
X103316595Y-77070342D01*
X103316595Y-77070342D02*
X103268976Y-76879866D01*
X103268976Y-76879866D02*
X103268976Y-76641771D01*
X103268976Y-76641771D02*
X103316595Y-76451295D01*
X103316595Y-76451295D02*
X103364214Y-76356057D01*
X103364214Y-76356057D02*
X103411833Y-76308438D01*
X103411833Y-76308438D02*
X103507071Y-76260819D01*
X79814819Y-82954857D02*
X79338628Y-83288190D01*
X79814819Y-83526285D02*
X78814819Y-83526285D01*
X78814819Y-83526285D02*
X78814819Y-83145333D01*
X78814819Y-83145333D02*
X78862438Y-83050095D01*
X78862438Y-83050095D02*
X78910057Y-83002476D01*
X78910057Y-83002476D02*
X79005295Y-82954857D01*
X79005295Y-82954857D02*
X79148152Y-82954857D01*
X79148152Y-82954857D02*
X79243390Y-83002476D01*
X79243390Y-83002476D02*
X79291009Y-83050095D01*
X79291009Y-83050095D02*
X79338628Y-83145333D01*
X79338628Y-83145333D02*
X79338628Y-83526285D01*
X79814819Y-82002476D02*
X79814819Y-82573904D01*
X79814819Y-82288190D02*
X78814819Y-82288190D01*
X78814819Y-82288190D02*
X78957676Y-82383428D01*
X78957676Y-82383428D02*
X79052914Y-82478666D01*
X79052914Y-82478666D02*
X79100533Y-82573904D01*
X78910057Y-81621523D02*
X78862438Y-81573904D01*
X78862438Y-81573904D02*
X78814819Y-81478666D01*
X78814819Y-81478666D02*
X78814819Y-81240571D01*
X78814819Y-81240571D02*
X78862438Y-81145333D01*
X78862438Y-81145333D02*
X78910057Y-81097714D01*
X78910057Y-81097714D02*
X79005295Y-81050095D01*
X79005295Y-81050095D02*
X79100533Y-81050095D01*
X79100533Y-81050095D02*
X79243390Y-81097714D01*
X79243390Y-81097714D02*
X79814819Y-81669142D01*
X79814819Y-81669142D02*
X79814819Y-81050095D01*
X61008457Y-47965446D02*
X61109472Y-47393027D01*
X60604396Y-47561385D02*
X61311503Y-46854279D01*
X61311503Y-46854279D02*
X61580877Y-47123653D01*
X61580877Y-47123653D02*
X61614549Y-47224668D01*
X61614549Y-47224668D02*
X61614549Y-47292011D01*
X61614549Y-47292011D02*
X61580877Y-47393027D01*
X61580877Y-47393027D02*
X61479862Y-47494042D01*
X61479862Y-47494042D02*
X61378846Y-47527714D01*
X61378846Y-47527714D02*
X61311503Y-47527714D01*
X61311503Y-47527714D02*
X61210488Y-47494042D01*
X61210488Y-47494042D02*
X60941114Y-47224668D01*
X61917594Y-47595057D02*
X61984938Y-47595057D01*
X61984938Y-47595057D02*
X62085953Y-47628729D01*
X62085953Y-47628729D02*
X62254312Y-47797088D01*
X62254312Y-47797088D02*
X62287984Y-47898103D01*
X62287984Y-47898103D02*
X62287984Y-47965446D01*
X62287984Y-47965446D02*
X62254312Y-48066462D01*
X62254312Y-48066462D02*
X62186968Y-48133805D01*
X62186968Y-48133805D02*
X62052281Y-48201149D01*
X62052281Y-48201149D02*
X61244159Y-48201149D01*
X61244159Y-48201149D02*
X61681892Y-48638881D01*
X63028762Y-48571538D02*
X62692045Y-48234820D01*
X62692045Y-48234820D02*
X62321656Y-48537866D01*
X62321656Y-48537866D02*
X62388999Y-48537866D01*
X62388999Y-48537866D02*
X62490014Y-48571538D01*
X62490014Y-48571538D02*
X62658373Y-48739897D01*
X62658373Y-48739897D02*
X62692045Y-48840912D01*
X62692045Y-48840912D02*
X62692045Y-48908256D01*
X62692045Y-48908256D02*
X62658373Y-49009271D01*
X62658373Y-49009271D02*
X62490014Y-49177630D01*
X62490014Y-49177630D02*
X62388999Y-49211301D01*
X62388999Y-49211301D02*
X62321656Y-49211301D01*
X62321656Y-49211301D02*
X62220640Y-49177630D01*
X62220640Y-49177630D02*
X62052282Y-49009271D01*
X62052282Y-49009271D02*
X62018610Y-48908256D01*
X62018610Y-48908256D02*
X62018610Y-48840912D01*
X99118819Y-82922857D02*
X98642628Y-83256190D01*
X99118819Y-83494285D02*
X98118819Y-83494285D01*
X98118819Y-83494285D02*
X98118819Y-83113333D01*
X98118819Y-83113333D02*
X98166438Y-83018095D01*
X98166438Y-83018095D02*
X98214057Y-82970476D01*
X98214057Y-82970476D02*
X98309295Y-82922857D01*
X98309295Y-82922857D02*
X98452152Y-82922857D01*
X98452152Y-82922857D02*
X98547390Y-82970476D01*
X98547390Y-82970476D02*
X98595009Y-83018095D01*
X98595009Y-83018095D02*
X98642628Y-83113333D01*
X98642628Y-83113333D02*
X98642628Y-83494285D01*
X99118819Y-81970476D02*
X99118819Y-82541904D01*
X99118819Y-82256190D02*
X98118819Y-82256190D01*
X98118819Y-82256190D02*
X98261676Y-82351428D01*
X98261676Y-82351428D02*
X98356914Y-82446666D01*
X98356914Y-82446666D02*
X98404533Y-82541904D01*
X98118819Y-81113333D02*
X98118819Y-81303809D01*
X98118819Y-81303809D02*
X98166438Y-81399047D01*
X98166438Y-81399047D02*
X98214057Y-81446666D01*
X98214057Y-81446666D02*
X98356914Y-81541904D01*
X98356914Y-81541904D02*
X98547390Y-81589523D01*
X98547390Y-81589523D02*
X98928342Y-81589523D01*
X98928342Y-81589523D02*
X99023580Y-81541904D01*
X99023580Y-81541904D02*
X99071200Y-81494285D01*
X99071200Y-81494285D02*
X99118819Y-81399047D01*
X99118819Y-81399047D02*
X99118819Y-81208571D01*
X99118819Y-81208571D02*
X99071200Y-81113333D01*
X99071200Y-81113333D02*
X99023580Y-81065714D01*
X99023580Y-81065714D02*
X98928342Y-81018095D01*
X98928342Y-81018095D02*
X98690247Y-81018095D01*
X98690247Y-81018095D02*
X98595009Y-81065714D01*
X98595009Y-81065714D02*
X98547390Y-81113333D01*
X98547390Y-81113333D02*
X98499771Y-81208571D01*
X98499771Y-81208571D02*
X98499771Y-81399047D01*
X98499771Y-81399047D02*
X98547390Y-81494285D01*
X98547390Y-81494285D02*
X98595009Y-81541904D01*
X98595009Y-81541904D02*
X98690247Y-81589523D01*
X104835580Y-63148357D02*
X104883200Y-63195976D01*
X104883200Y-63195976D02*
X104930819Y-63338833D01*
X104930819Y-63338833D02*
X104930819Y-63434071D01*
X104930819Y-63434071D02*
X104883200Y-63576928D01*
X104883200Y-63576928D02*
X104787961Y-63672166D01*
X104787961Y-63672166D02*
X104692723Y-63719785D01*
X104692723Y-63719785D02*
X104502247Y-63767404D01*
X104502247Y-63767404D02*
X104359390Y-63767404D01*
X104359390Y-63767404D02*
X104168914Y-63719785D01*
X104168914Y-63719785D02*
X104073676Y-63672166D01*
X104073676Y-63672166D02*
X103978438Y-63576928D01*
X103978438Y-63576928D02*
X103930819Y-63434071D01*
X103930819Y-63434071D02*
X103930819Y-63338833D01*
X103930819Y-63338833D02*
X103978438Y-63195976D01*
X103978438Y-63195976D02*
X104026057Y-63148357D01*
X104930819Y-62195976D02*
X104930819Y-62767404D01*
X104930819Y-62481690D02*
X103930819Y-62481690D01*
X103930819Y-62481690D02*
X104073676Y-62576928D01*
X104073676Y-62576928D02*
X104168914Y-62672166D01*
X104168914Y-62672166D02*
X104216533Y-62767404D01*
X104930819Y-61719785D02*
X104930819Y-61529309D01*
X104930819Y-61529309D02*
X104883200Y-61434071D01*
X104883200Y-61434071D02*
X104835580Y-61386452D01*
X104835580Y-61386452D02*
X104692723Y-61291214D01*
X104692723Y-61291214D02*
X104502247Y-61243595D01*
X104502247Y-61243595D02*
X104121295Y-61243595D01*
X104121295Y-61243595D02*
X104026057Y-61291214D01*
X104026057Y-61291214D02*
X103978438Y-61338833D01*
X103978438Y-61338833D02*
X103930819Y-61434071D01*
X103930819Y-61434071D02*
X103930819Y-61624547D01*
X103930819Y-61624547D02*
X103978438Y-61719785D01*
X103978438Y-61719785D02*
X104026057Y-61767404D01*
X104026057Y-61767404D02*
X104121295Y-61815023D01*
X104121295Y-61815023D02*
X104359390Y-61815023D01*
X104359390Y-61815023D02*
X104454628Y-61767404D01*
X104454628Y-61767404D02*
X104502247Y-61719785D01*
X104502247Y-61719785D02*
X104549866Y-61624547D01*
X104549866Y-61624547D02*
X104549866Y-61434071D01*
X104549866Y-61434071D02*
X104502247Y-61338833D01*
X104502247Y-61338833D02*
X104454628Y-61291214D01*
X104454628Y-61291214D02*
X104359390Y-61243595D01*
X110069333Y-38172819D02*
X109736000Y-37696628D01*
X109497905Y-38172819D02*
X109497905Y-37172819D01*
X109497905Y-37172819D02*
X109878857Y-37172819D01*
X109878857Y-37172819D02*
X109974095Y-37220438D01*
X109974095Y-37220438D02*
X110021714Y-37268057D01*
X110021714Y-37268057D02*
X110069333Y-37363295D01*
X110069333Y-37363295D02*
X110069333Y-37506152D01*
X110069333Y-37506152D02*
X110021714Y-37601390D01*
X110021714Y-37601390D02*
X109974095Y-37649009D01*
X109974095Y-37649009D02*
X109878857Y-37696628D01*
X109878857Y-37696628D02*
X109497905Y-37696628D01*
X111021714Y-38172819D02*
X110450286Y-38172819D01*
X110736000Y-38172819D02*
X110736000Y-37172819D01*
X110736000Y-37172819D02*
X110640762Y-37315676D01*
X110640762Y-37315676D02*
X110545524Y-37410914D01*
X110545524Y-37410914D02*
X110450286Y-37458533D01*
X92283642Y-77165580D02*
X92236023Y-77213200D01*
X92236023Y-77213200D02*
X92093166Y-77260819D01*
X92093166Y-77260819D02*
X91997928Y-77260819D01*
X91997928Y-77260819D02*
X91855071Y-77213200D01*
X91855071Y-77213200D02*
X91759833Y-77117961D01*
X91759833Y-77117961D02*
X91712214Y-77022723D01*
X91712214Y-77022723D02*
X91664595Y-76832247D01*
X91664595Y-76832247D02*
X91664595Y-76689390D01*
X91664595Y-76689390D02*
X91712214Y-76498914D01*
X91712214Y-76498914D02*
X91759833Y-76403676D01*
X91759833Y-76403676D02*
X91855071Y-76308438D01*
X91855071Y-76308438D02*
X91997928Y-76260819D01*
X91997928Y-76260819D02*
X92093166Y-76260819D01*
X92093166Y-76260819D02*
X92236023Y-76308438D01*
X92236023Y-76308438D02*
X92283642Y-76356057D01*
X92664595Y-76356057D02*
X92712214Y-76308438D01*
X92712214Y-76308438D02*
X92807452Y-76260819D01*
X92807452Y-76260819D02*
X93045547Y-76260819D01*
X93045547Y-76260819D02*
X93140785Y-76308438D01*
X93140785Y-76308438D02*
X93188404Y-76356057D01*
X93188404Y-76356057D02*
X93236023Y-76451295D01*
X93236023Y-76451295D02*
X93236023Y-76546533D01*
X93236023Y-76546533D02*
X93188404Y-76689390D01*
X93188404Y-76689390D02*
X92616976Y-77260819D01*
X92616976Y-77260819D02*
X93236023Y-77260819D01*
X93712214Y-77260819D02*
X93902690Y-77260819D01*
X93902690Y-77260819D02*
X93997928Y-77213200D01*
X93997928Y-77213200D02*
X94045547Y-77165580D01*
X94045547Y-77165580D02*
X94140785Y-77022723D01*
X94140785Y-77022723D02*
X94188404Y-76832247D01*
X94188404Y-76832247D02*
X94188404Y-76451295D01*
X94188404Y-76451295D02*
X94140785Y-76356057D01*
X94140785Y-76356057D02*
X94093166Y-76308438D01*
X94093166Y-76308438D02*
X93997928Y-76260819D01*
X93997928Y-76260819D02*
X93807452Y-76260819D01*
X93807452Y-76260819D02*
X93712214Y-76308438D01*
X93712214Y-76308438D02*
X93664595Y-76356057D01*
X93664595Y-76356057D02*
X93616976Y-76451295D01*
X93616976Y-76451295D02*
X93616976Y-76689390D01*
X93616976Y-76689390D02*
X93664595Y-76784628D01*
X93664595Y-76784628D02*
X93712214Y-76832247D01*
X93712214Y-76832247D02*
X93807452Y-76879866D01*
X93807452Y-76879866D02*
X93997928Y-76879866D01*
X93997928Y-76879866D02*
X94093166Y-76832247D01*
X94093166Y-76832247D02*
X94140785Y-76784628D01*
X94140785Y-76784628D02*
X94188404Y-76689390D01*
X89368476Y-92532819D02*
X89368476Y-93247104D01*
X89368476Y-93247104D02*
X89320857Y-93389961D01*
X89320857Y-93389961D02*
X89225619Y-93485200D01*
X89225619Y-93485200D02*
X89082762Y-93532819D01*
X89082762Y-93532819D02*
X88987524Y-93532819D01*
X89844667Y-93532819D02*
X89844667Y-92532819D01*
X89844667Y-92532819D02*
X90225619Y-92532819D01*
X90225619Y-92532819D02*
X90320857Y-92580438D01*
X90320857Y-92580438D02*
X90368476Y-92628057D01*
X90368476Y-92628057D02*
X90416095Y-92723295D01*
X90416095Y-92723295D02*
X90416095Y-92866152D01*
X90416095Y-92866152D02*
X90368476Y-92961390D01*
X90368476Y-92961390D02*
X90320857Y-93009009D01*
X90320857Y-93009009D02*
X90225619Y-93056628D01*
X90225619Y-93056628D02*
X89844667Y-93056628D01*
X91368476Y-93532819D02*
X90797048Y-93532819D01*
X91082762Y-93532819D02*
X91082762Y-92532819D01*
X91082762Y-92532819D02*
X90987524Y-92675676D01*
X90987524Y-92675676D02*
X90892286Y-92770914D01*
X90892286Y-92770914D02*
X90797048Y-92818533D01*
X92225619Y-92866152D02*
X92225619Y-93532819D01*
X91987524Y-92485200D02*
X91749429Y-93199485D01*
X91749429Y-93199485D02*
X92368476Y-93199485D01*
X84369846Y-40585332D02*
X84302502Y-40585332D01*
X84302502Y-40585332D02*
X84167815Y-40517988D01*
X84167815Y-40517988D02*
X84100472Y-40450645D01*
X84100472Y-40450645D02*
X84033128Y-40315958D01*
X84033128Y-40315958D02*
X84033128Y-40181271D01*
X84033128Y-40181271D02*
X84066800Y-40080256D01*
X84066800Y-40080256D02*
X84167815Y-39911897D01*
X84167815Y-39911897D02*
X84268830Y-39810882D01*
X84268830Y-39810882D02*
X84437189Y-39709866D01*
X84437189Y-39709866D02*
X84538204Y-39676195D01*
X84538204Y-39676195D02*
X84672891Y-39676195D01*
X84672891Y-39676195D02*
X84807578Y-39743538D01*
X84807578Y-39743538D02*
X84874922Y-39810882D01*
X84874922Y-39810882D02*
X84942265Y-39945569D01*
X84942265Y-39945569D02*
X84942265Y-40012912D01*
X85211639Y-40282286D02*
X85278983Y-40282286D01*
X85278983Y-40282286D02*
X85379998Y-40315958D01*
X85379998Y-40315958D02*
X85548357Y-40484317D01*
X85548357Y-40484317D02*
X85582029Y-40585332D01*
X85582029Y-40585332D02*
X85582029Y-40652675D01*
X85582029Y-40652675D02*
X85548357Y-40753691D01*
X85548357Y-40753691D02*
X85481013Y-40821034D01*
X85481013Y-40821034D02*
X85346326Y-40888378D01*
X85346326Y-40888378D02*
X84538204Y-40888378D01*
X84538204Y-40888378D02*
X84975937Y-41326110D01*
X86053433Y-41460798D02*
X85582029Y-41932202D01*
X86154449Y-41023065D02*
X85481014Y-41359782D01*
X85481014Y-41359782D02*
X85918746Y-41797515D01*
X89466819Y-82954857D02*
X88990628Y-83288190D01*
X89466819Y-83526285D02*
X88466819Y-83526285D01*
X88466819Y-83526285D02*
X88466819Y-83145333D01*
X88466819Y-83145333D02*
X88514438Y-83050095D01*
X88514438Y-83050095D02*
X88562057Y-83002476D01*
X88562057Y-83002476D02*
X88657295Y-82954857D01*
X88657295Y-82954857D02*
X88800152Y-82954857D01*
X88800152Y-82954857D02*
X88895390Y-83002476D01*
X88895390Y-83002476D02*
X88943009Y-83050095D01*
X88943009Y-83050095D02*
X88990628Y-83145333D01*
X88990628Y-83145333D02*
X88990628Y-83526285D01*
X89466819Y-82002476D02*
X89466819Y-82573904D01*
X89466819Y-82288190D02*
X88466819Y-82288190D01*
X88466819Y-82288190D02*
X88609676Y-82383428D01*
X88609676Y-82383428D02*
X88704914Y-82478666D01*
X88704914Y-82478666D02*
X88752533Y-82573904D01*
X88800152Y-81145333D02*
X89466819Y-81145333D01*
X88419200Y-81383428D02*
X89133485Y-81621523D01*
X89133485Y-81621523D02*
X89133485Y-81002476D01*
X119674819Y-51633333D02*
X120389104Y-51633333D01*
X120389104Y-51633333D02*
X120531961Y-51680952D01*
X120531961Y-51680952D02*
X120627200Y-51776190D01*
X120627200Y-51776190D02*
X120674819Y-51919047D01*
X120674819Y-51919047D02*
X120674819Y-52014285D01*
X120674819Y-51157142D02*
X119674819Y-51157142D01*
X119674819Y-51157142D02*
X119674819Y-50776190D01*
X119674819Y-50776190D02*
X119722438Y-50680952D01*
X119722438Y-50680952D02*
X119770057Y-50633333D01*
X119770057Y-50633333D02*
X119865295Y-50585714D01*
X119865295Y-50585714D02*
X120008152Y-50585714D01*
X120008152Y-50585714D02*
X120103390Y-50633333D01*
X120103390Y-50633333D02*
X120151009Y-50680952D01*
X120151009Y-50680952D02*
X120198628Y-50776190D01*
X120198628Y-50776190D02*
X120198628Y-51157142D01*
X119674819Y-49728571D02*
X119674819Y-49919047D01*
X119674819Y-49919047D02*
X119722438Y-50014285D01*
X119722438Y-50014285D02*
X119770057Y-50061904D01*
X119770057Y-50061904D02*
X119912914Y-50157142D01*
X119912914Y-50157142D02*
X120103390Y-50204761D01*
X120103390Y-50204761D02*
X120484342Y-50204761D01*
X120484342Y-50204761D02*
X120579580Y-50157142D01*
X120579580Y-50157142D02*
X120627200Y-50109523D01*
X120627200Y-50109523D02*
X120674819Y-50014285D01*
X120674819Y-50014285D02*
X120674819Y-49823809D01*
X120674819Y-49823809D02*
X120627200Y-49728571D01*
X120627200Y-49728571D02*
X120579580Y-49680952D01*
X120579580Y-49680952D02*
X120484342Y-49633333D01*
X120484342Y-49633333D02*
X120246247Y-49633333D01*
X120246247Y-49633333D02*
X120151009Y-49680952D01*
X120151009Y-49680952D02*
X120103390Y-49728571D01*
X120103390Y-49728571D02*
X120055771Y-49823809D01*
X120055771Y-49823809D02*
X120055771Y-50014285D01*
X120055771Y-50014285D02*
X120103390Y-50109523D01*
X120103390Y-50109523D02*
X120151009Y-50157142D01*
X120151009Y-50157142D02*
X120246247Y-50204761D01*
X65857795Y-43116107D02*
X65958810Y-42543688D01*
X65453734Y-42712046D02*
X66160841Y-42004940D01*
X66160841Y-42004940D02*
X66430215Y-42274314D01*
X66430215Y-42274314D02*
X66463887Y-42375329D01*
X66463887Y-42375329D02*
X66463887Y-42442672D01*
X66463887Y-42442672D02*
X66430215Y-42543688D01*
X66430215Y-42543688D02*
X66329200Y-42644703D01*
X66329200Y-42644703D02*
X66228184Y-42678375D01*
X66228184Y-42678375D02*
X66160841Y-42678375D01*
X66160841Y-42678375D02*
X66059826Y-42644703D01*
X66059826Y-42644703D02*
X65790452Y-42375329D01*
X66766932Y-42745718D02*
X66834276Y-42745718D01*
X66834276Y-42745718D02*
X66935291Y-42779390D01*
X66935291Y-42779390D02*
X67103650Y-42947749D01*
X67103650Y-42947749D02*
X67137322Y-43048764D01*
X67137322Y-43048764D02*
X67137322Y-43116107D01*
X67137322Y-43116107D02*
X67103650Y-43217123D01*
X67103650Y-43217123D02*
X67036306Y-43284466D01*
X67036306Y-43284466D02*
X66901619Y-43351810D01*
X66901619Y-43351810D02*
X66093497Y-43351810D01*
X66093497Y-43351810D02*
X66531230Y-43789542D01*
X67474039Y-43318138D02*
X67945444Y-43789543D01*
X67945444Y-43789543D02*
X66935291Y-44193604D01*
X119674819Y-65857333D02*
X120389104Y-65857333D01*
X120389104Y-65857333D02*
X120531961Y-65904952D01*
X120531961Y-65904952D02*
X120627200Y-66000190D01*
X120627200Y-66000190D02*
X120674819Y-66143047D01*
X120674819Y-66143047D02*
X120674819Y-66238285D01*
X120674819Y-65381142D02*
X119674819Y-65381142D01*
X119674819Y-65381142D02*
X119674819Y-65000190D01*
X119674819Y-65000190D02*
X119722438Y-64904952D01*
X119722438Y-64904952D02*
X119770057Y-64857333D01*
X119770057Y-64857333D02*
X119865295Y-64809714D01*
X119865295Y-64809714D02*
X120008152Y-64809714D01*
X120008152Y-64809714D02*
X120103390Y-64857333D01*
X120103390Y-64857333D02*
X120151009Y-64904952D01*
X120151009Y-64904952D02*
X120198628Y-65000190D01*
X120198628Y-65000190D02*
X120198628Y-65381142D01*
X119674819Y-64476380D02*
X119674819Y-63857333D01*
X119674819Y-63857333D02*
X120055771Y-64190666D01*
X120055771Y-64190666D02*
X120055771Y-64047809D01*
X120055771Y-64047809D02*
X120103390Y-63952571D01*
X120103390Y-63952571D02*
X120151009Y-63904952D01*
X120151009Y-63904952D02*
X120246247Y-63857333D01*
X120246247Y-63857333D02*
X120484342Y-63857333D01*
X120484342Y-63857333D02*
X120579580Y-63904952D01*
X120579580Y-63904952D02*
X120627200Y-63952571D01*
X120627200Y-63952571D02*
X120674819Y-64047809D01*
X120674819Y-64047809D02*
X120674819Y-64333523D01*
X120674819Y-64333523D02*
X120627200Y-64428761D01*
X120627200Y-64428761D02*
X120579580Y-64476380D01*
X119695819Y-36901333D02*
X120410104Y-36901333D01*
X120410104Y-36901333D02*
X120552961Y-36948952D01*
X120552961Y-36948952D02*
X120648200Y-37044190D01*
X120648200Y-37044190D02*
X120695819Y-37187047D01*
X120695819Y-37187047D02*
X120695819Y-37282285D01*
X120695819Y-36425142D02*
X119695819Y-36425142D01*
X119695819Y-36425142D02*
X119695819Y-36044190D01*
X119695819Y-36044190D02*
X119743438Y-35948952D01*
X119743438Y-35948952D02*
X119791057Y-35901333D01*
X119791057Y-35901333D02*
X119886295Y-35853714D01*
X119886295Y-35853714D02*
X120029152Y-35853714D01*
X120029152Y-35853714D02*
X120124390Y-35901333D01*
X120124390Y-35901333D02*
X120172009Y-35948952D01*
X120172009Y-35948952D02*
X120219628Y-36044190D01*
X120219628Y-36044190D02*
X120219628Y-36425142D01*
X120695819Y-35377523D02*
X120695819Y-35187047D01*
X120695819Y-35187047D02*
X120648200Y-35091809D01*
X120648200Y-35091809D02*
X120600580Y-35044190D01*
X120600580Y-35044190D02*
X120457723Y-34948952D01*
X120457723Y-34948952D02*
X120267247Y-34901333D01*
X120267247Y-34901333D02*
X119886295Y-34901333D01*
X119886295Y-34901333D02*
X119791057Y-34948952D01*
X119791057Y-34948952D02*
X119743438Y-34996571D01*
X119743438Y-34996571D02*
X119695819Y-35091809D01*
X119695819Y-35091809D02*
X119695819Y-35282285D01*
X119695819Y-35282285D02*
X119743438Y-35377523D01*
X119743438Y-35377523D02*
X119791057Y-35425142D01*
X119791057Y-35425142D02*
X119886295Y-35472761D01*
X119886295Y-35472761D02*
X120124390Y-35472761D01*
X120124390Y-35472761D02*
X120219628Y-35425142D01*
X120219628Y-35425142D02*
X120267247Y-35377523D01*
X120267247Y-35377523D02*
X120314866Y-35282285D01*
X120314866Y-35282285D02*
X120314866Y-35091809D01*
X120314866Y-35091809D02*
X120267247Y-34996571D01*
X120267247Y-34996571D02*
X120219628Y-34948952D01*
X120219628Y-34948952D02*
X120124390Y-34901333D01*
X119674819Y-41473333D02*
X120389104Y-41473333D01*
X120389104Y-41473333D02*
X120531961Y-41520952D01*
X120531961Y-41520952D02*
X120627200Y-41616190D01*
X120627200Y-41616190D02*
X120674819Y-41759047D01*
X120674819Y-41759047D02*
X120674819Y-41854285D01*
X120674819Y-40997142D02*
X119674819Y-40997142D01*
X119674819Y-40997142D02*
X119674819Y-40616190D01*
X119674819Y-40616190D02*
X119722438Y-40520952D01*
X119722438Y-40520952D02*
X119770057Y-40473333D01*
X119770057Y-40473333D02*
X119865295Y-40425714D01*
X119865295Y-40425714D02*
X120008152Y-40425714D01*
X120008152Y-40425714D02*
X120103390Y-40473333D01*
X120103390Y-40473333D02*
X120151009Y-40520952D01*
X120151009Y-40520952D02*
X120198628Y-40616190D01*
X120198628Y-40616190D02*
X120198628Y-40997142D01*
X120103390Y-39854285D02*
X120055771Y-39949523D01*
X120055771Y-39949523D02*
X120008152Y-39997142D01*
X120008152Y-39997142D02*
X119912914Y-40044761D01*
X119912914Y-40044761D02*
X119865295Y-40044761D01*
X119865295Y-40044761D02*
X119770057Y-39997142D01*
X119770057Y-39997142D02*
X119722438Y-39949523D01*
X119722438Y-39949523D02*
X119674819Y-39854285D01*
X119674819Y-39854285D02*
X119674819Y-39663809D01*
X119674819Y-39663809D02*
X119722438Y-39568571D01*
X119722438Y-39568571D02*
X119770057Y-39520952D01*
X119770057Y-39520952D02*
X119865295Y-39473333D01*
X119865295Y-39473333D02*
X119912914Y-39473333D01*
X119912914Y-39473333D02*
X120008152Y-39520952D01*
X120008152Y-39520952D02*
X120055771Y-39568571D01*
X120055771Y-39568571D02*
X120103390Y-39663809D01*
X120103390Y-39663809D02*
X120103390Y-39854285D01*
X120103390Y-39854285D02*
X120151009Y-39949523D01*
X120151009Y-39949523D02*
X120198628Y-39997142D01*
X120198628Y-39997142D02*
X120293866Y-40044761D01*
X120293866Y-40044761D02*
X120484342Y-40044761D01*
X120484342Y-40044761D02*
X120579580Y-39997142D01*
X120579580Y-39997142D02*
X120627200Y-39949523D01*
X120627200Y-39949523D02*
X120674819Y-39854285D01*
X120674819Y-39854285D02*
X120674819Y-39663809D01*
X120674819Y-39663809D02*
X120627200Y-39568571D01*
X120627200Y-39568571D02*
X120579580Y-39520952D01*
X120579580Y-39520952D02*
X120484342Y-39473333D01*
X120484342Y-39473333D02*
X120293866Y-39473333D01*
X120293866Y-39473333D02*
X120198628Y-39520952D01*
X120198628Y-39520952D02*
X120151009Y-39568571D01*
X120151009Y-39568571D02*
X120103390Y-39663809D01*
X94194476Y-92532819D02*
X94194476Y-93247104D01*
X94194476Y-93247104D02*
X94146857Y-93389961D01*
X94146857Y-93389961D02*
X94051619Y-93485200D01*
X94051619Y-93485200D02*
X93908762Y-93532819D01*
X93908762Y-93532819D02*
X93813524Y-93532819D01*
X94670667Y-93532819D02*
X94670667Y-92532819D01*
X94670667Y-92532819D02*
X95051619Y-92532819D01*
X95051619Y-92532819D02*
X95146857Y-92580438D01*
X95146857Y-92580438D02*
X95194476Y-92628057D01*
X95194476Y-92628057D02*
X95242095Y-92723295D01*
X95242095Y-92723295D02*
X95242095Y-92866152D01*
X95242095Y-92866152D02*
X95194476Y-92961390D01*
X95194476Y-92961390D02*
X95146857Y-93009009D01*
X95146857Y-93009009D02*
X95051619Y-93056628D01*
X95051619Y-93056628D02*
X94670667Y-93056628D01*
X96194476Y-93532819D02*
X95623048Y-93532819D01*
X95908762Y-93532819D02*
X95908762Y-92532819D01*
X95908762Y-92532819D02*
X95813524Y-92675676D01*
X95813524Y-92675676D02*
X95718286Y-92770914D01*
X95718286Y-92770914D02*
X95623048Y-92818533D01*
X97099238Y-92532819D02*
X96623048Y-92532819D01*
X96623048Y-92532819D02*
X96575429Y-93009009D01*
X96575429Y-93009009D02*
X96623048Y-92961390D01*
X96623048Y-92961390D02*
X96718286Y-92913771D01*
X96718286Y-92913771D02*
X96956381Y-92913771D01*
X96956381Y-92913771D02*
X97051619Y-92961390D01*
X97051619Y-92961390D02*
X97099238Y-93009009D01*
X97099238Y-93009009D02*
X97146857Y-93104247D01*
X97146857Y-93104247D02*
X97146857Y-93342342D01*
X97146857Y-93342342D02*
X97099238Y-93437580D01*
X97099238Y-93437580D02*
X97051619Y-93485200D01*
X97051619Y-93485200D02*
X96956381Y-93532819D01*
X96956381Y-93532819D02*
X96718286Y-93532819D01*
X96718286Y-93532819D02*
X96623048Y-93485200D01*
X96623048Y-93485200D02*
X96575429Y-93437580D01*
X104835580Y-72292357D02*
X104883200Y-72339976D01*
X104883200Y-72339976D02*
X104930819Y-72482833D01*
X104930819Y-72482833D02*
X104930819Y-72578071D01*
X104930819Y-72578071D02*
X104883200Y-72720928D01*
X104883200Y-72720928D02*
X104787961Y-72816166D01*
X104787961Y-72816166D02*
X104692723Y-72863785D01*
X104692723Y-72863785D02*
X104502247Y-72911404D01*
X104502247Y-72911404D02*
X104359390Y-72911404D01*
X104359390Y-72911404D02*
X104168914Y-72863785D01*
X104168914Y-72863785D02*
X104073676Y-72816166D01*
X104073676Y-72816166D02*
X103978438Y-72720928D01*
X103978438Y-72720928D02*
X103930819Y-72578071D01*
X103930819Y-72578071D02*
X103930819Y-72482833D01*
X103930819Y-72482833D02*
X103978438Y-72339976D01*
X103978438Y-72339976D02*
X104026057Y-72292357D01*
X104264152Y-71435214D02*
X104930819Y-71435214D01*
X103883200Y-71673309D02*
X104597485Y-71911404D01*
X104597485Y-71911404D02*
X104597485Y-71292357D01*
X103930819Y-70435214D02*
X103930819Y-70911404D01*
X103930819Y-70911404D02*
X104407009Y-70959023D01*
X104407009Y-70959023D02*
X104359390Y-70911404D01*
X104359390Y-70911404D02*
X104311771Y-70816166D01*
X104311771Y-70816166D02*
X104311771Y-70578071D01*
X104311771Y-70578071D02*
X104359390Y-70482833D01*
X104359390Y-70482833D02*
X104407009Y-70435214D01*
X104407009Y-70435214D02*
X104502247Y-70387595D01*
X104502247Y-70387595D02*
X104740342Y-70387595D01*
X104740342Y-70387595D02*
X104835580Y-70435214D01*
X104835580Y-70435214D02*
X104883200Y-70482833D01*
X104883200Y-70482833D02*
X104930819Y-70578071D01*
X104930819Y-70578071D02*
X104930819Y-70816166D01*
X104930819Y-70816166D02*
X104883200Y-70911404D01*
X104883200Y-70911404D02*
X104835580Y-70959023D01*
X119674819Y-75255333D02*
X120389104Y-75255333D01*
X120389104Y-75255333D02*
X120531961Y-75302952D01*
X120531961Y-75302952D02*
X120627200Y-75398190D01*
X120627200Y-75398190D02*
X120674819Y-75541047D01*
X120674819Y-75541047D02*
X120674819Y-75636285D01*
X120674819Y-74779142D02*
X119674819Y-74779142D01*
X119674819Y-74779142D02*
X119674819Y-74398190D01*
X119674819Y-74398190D02*
X119722438Y-74302952D01*
X119722438Y-74302952D02*
X119770057Y-74255333D01*
X119770057Y-74255333D02*
X119865295Y-74207714D01*
X119865295Y-74207714D02*
X120008152Y-74207714D01*
X120008152Y-74207714D02*
X120103390Y-74255333D01*
X120103390Y-74255333D02*
X120151009Y-74302952D01*
X120151009Y-74302952D02*
X120198628Y-74398190D01*
X120198628Y-74398190D02*
X120198628Y-74779142D01*
X119770057Y-73826761D02*
X119722438Y-73779142D01*
X119722438Y-73779142D02*
X119674819Y-73683904D01*
X119674819Y-73683904D02*
X119674819Y-73445809D01*
X119674819Y-73445809D02*
X119722438Y-73350571D01*
X119722438Y-73350571D02*
X119770057Y-73302952D01*
X119770057Y-73302952D02*
X119865295Y-73255333D01*
X119865295Y-73255333D02*
X119960533Y-73255333D01*
X119960533Y-73255333D02*
X120103390Y-73302952D01*
X120103390Y-73302952D02*
X120674819Y-73874380D01*
X120674819Y-73874380D02*
X120674819Y-73255333D01*
X119669819Y-70429333D02*
X120384104Y-70429333D01*
X120384104Y-70429333D02*
X120526961Y-70476952D01*
X120526961Y-70476952D02*
X120622200Y-70572190D01*
X120622200Y-70572190D02*
X120669819Y-70715047D01*
X120669819Y-70715047D02*
X120669819Y-70810285D01*
X120669819Y-69953142D02*
X119669819Y-69953142D01*
X119669819Y-69953142D02*
X119669819Y-69572190D01*
X119669819Y-69572190D02*
X119717438Y-69476952D01*
X119717438Y-69476952D02*
X119765057Y-69429333D01*
X119765057Y-69429333D02*
X119860295Y-69381714D01*
X119860295Y-69381714D02*
X120003152Y-69381714D01*
X120003152Y-69381714D02*
X120098390Y-69429333D01*
X120098390Y-69429333D02*
X120146009Y-69476952D01*
X120146009Y-69476952D02*
X120193628Y-69572190D01*
X120193628Y-69572190D02*
X120193628Y-69953142D01*
X120669819Y-68429333D02*
X120669819Y-69000761D01*
X120669819Y-68715047D02*
X119669819Y-68715047D01*
X119669819Y-68715047D02*
X119812676Y-68810285D01*
X119812676Y-68810285D02*
X119907914Y-68905523D01*
X119907914Y-68905523D02*
X119955533Y-69000761D01*
X69556476Y-92527819D02*
X69556476Y-93242104D01*
X69556476Y-93242104D02*
X69508857Y-93384961D01*
X69508857Y-93384961D02*
X69413619Y-93480200D01*
X69413619Y-93480200D02*
X69270762Y-93527819D01*
X69270762Y-93527819D02*
X69175524Y-93527819D01*
X70032667Y-93527819D02*
X70032667Y-92527819D01*
X70032667Y-92527819D02*
X70413619Y-92527819D01*
X70413619Y-92527819D02*
X70508857Y-92575438D01*
X70508857Y-92575438D02*
X70556476Y-92623057D01*
X70556476Y-92623057D02*
X70604095Y-92718295D01*
X70604095Y-92718295D02*
X70604095Y-92861152D01*
X70604095Y-92861152D02*
X70556476Y-92956390D01*
X70556476Y-92956390D02*
X70508857Y-93004009D01*
X70508857Y-93004009D02*
X70413619Y-93051628D01*
X70413619Y-93051628D02*
X70032667Y-93051628D01*
X71556476Y-93527819D02*
X70985048Y-93527819D01*
X71270762Y-93527819D02*
X71270762Y-92527819D01*
X71270762Y-92527819D02*
X71175524Y-92670676D01*
X71175524Y-92670676D02*
X71080286Y-92765914D01*
X71080286Y-92765914D02*
X70985048Y-92813533D01*
X72175524Y-92527819D02*
X72270762Y-92527819D01*
X72270762Y-92527819D02*
X72366000Y-92575438D01*
X72366000Y-92575438D02*
X72413619Y-92623057D01*
X72413619Y-92623057D02*
X72461238Y-92718295D01*
X72461238Y-92718295D02*
X72508857Y-92908771D01*
X72508857Y-92908771D02*
X72508857Y-93146866D01*
X72508857Y-93146866D02*
X72461238Y-93337342D01*
X72461238Y-93337342D02*
X72413619Y-93432580D01*
X72413619Y-93432580D02*
X72366000Y-93480200D01*
X72366000Y-93480200D02*
X72270762Y-93527819D01*
X72270762Y-93527819D02*
X72175524Y-93527819D01*
X72175524Y-93527819D02*
X72080286Y-93480200D01*
X72080286Y-93480200D02*
X72032667Y-93432580D01*
X72032667Y-93432580D02*
X71985048Y-93337342D01*
X71985048Y-93337342D02*
X71937429Y-93146866D01*
X71937429Y-93146866D02*
X71937429Y-92908771D01*
X71937429Y-92908771D02*
X71985048Y-92718295D01*
X71985048Y-92718295D02*
X72032667Y-92623057D01*
X72032667Y-92623057D02*
X72080286Y-92575438D01*
X72080286Y-92575438D02*
X72175524Y-92527819D01*
X74734819Y-82954857D02*
X74258628Y-83288190D01*
X74734819Y-83526285D02*
X73734819Y-83526285D01*
X73734819Y-83526285D02*
X73734819Y-83145333D01*
X73734819Y-83145333D02*
X73782438Y-83050095D01*
X73782438Y-83050095D02*
X73830057Y-83002476D01*
X73830057Y-83002476D02*
X73925295Y-82954857D01*
X73925295Y-82954857D02*
X74068152Y-82954857D01*
X74068152Y-82954857D02*
X74163390Y-83002476D01*
X74163390Y-83002476D02*
X74211009Y-83050095D01*
X74211009Y-83050095D02*
X74258628Y-83145333D01*
X74258628Y-83145333D02*
X74258628Y-83526285D01*
X74734819Y-82002476D02*
X74734819Y-82573904D01*
X74734819Y-82288190D02*
X73734819Y-82288190D01*
X73734819Y-82288190D02*
X73877676Y-82383428D01*
X73877676Y-82383428D02*
X73972914Y-82478666D01*
X73972914Y-82478666D02*
X74020533Y-82573904D01*
X74734819Y-81050095D02*
X74734819Y-81621523D01*
X74734819Y-81335809D02*
X73734819Y-81335809D01*
X73734819Y-81335809D02*
X73877676Y-81431047D01*
X73877676Y-81431047D02*
X73972914Y-81526285D01*
X73972914Y-81526285D02*
X74020533Y-81621523D01*
X72768642Y-77165580D02*
X72721023Y-77213200D01*
X72721023Y-77213200D02*
X72578166Y-77260819D01*
X72578166Y-77260819D02*
X72482928Y-77260819D01*
X72482928Y-77260819D02*
X72340071Y-77213200D01*
X72340071Y-77213200D02*
X72244833Y-77117961D01*
X72244833Y-77117961D02*
X72197214Y-77022723D01*
X72197214Y-77022723D02*
X72149595Y-76832247D01*
X72149595Y-76832247D02*
X72149595Y-76689390D01*
X72149595Y-76689390D02*
X72197214Y-76498914D01*
X72197214Y-76498914D02*
X72244833Y-76403676D01*
X72244833Y-76403676D02*
X72340071Y-76308438D01*
X72340071Y-76308438D02*
X72482928Y-76260819D01*
X72482928Y-76260819D02*
X72578166Y-76260819D01*
X72578166Y-76260819D02*
X72721023Y-76308438D01*
X72721023Y-76308438D02*
X72768642Y-76356057D01*
X73149595Y-76356057D02*
X73197214Y-76308438D01*
X73197214Y-76308438D02*
X73292452Y-76260819D01*
X73292452Y-76260819D02*
X73530547Y-76260819D01*
X73530547Y-76260819D02*
X73625785Y-76308438D01*
X73625785Y-76308438D02*
X73673404Y-76356057D01*
X73673404Y-76356057D02*
X73721023Y-76451295D01*
X73721023Y-76451295D02*
X73721023Y-76546533D01*
X73721023Y-76546533D02*
X73673404Y-76689390D01*
X73673404Y-76689390D02*
X73101976Y-77260819D01*
X73101976Y-77260819D02*
X73721023Y-77260819D01*
X74054357Y-76260819D02*
X74721023Y-76260819D01*
X74721023Y-76260819D02*
X74292452Y-77260819D01*
X109577142Y-42744819D02*
X109243809Y-42268628D01*
X109005714Y-42744819D02*
X109005714Y-41744819D01*
X109005714Y-41744819D02*
X109386666Y-41744819D01*
X109386666Y-41744819D02*
X109481904Y-41792438D01*
X109481904Y-41792438D02*
X109529523Y-41840057D01*
X109529523Y-41840057D02*
X109577142Y-41935295D01*
X109577142Y-41935295D02*
X109577142Y-42078152D01*
X109577142Y-42078152D02*
X109529523Y-42173390D01*
X109529523Y-42173390D02*
X109481904Y-42221009D01*
X109481904Y-42221009D02*
X109386666Y-42268628D01*
X109386666Y-42268628D02*
X109005714Y-42268628D01*
X109958095Y-41840057D02*
X110005714Y-41792438D01*
X110005714Y-41792438D02*
X110100952Y-41744819D01*
X110100952Y-41744819D02*
X110339047Y-41744819D01*
X110339047Y-41744819D02*
X110434285Y-41792438D01*
X110434285Y-41792438D02*
X110481904Y-41840057D01*
X110481904Y-41840057D02*
X110529523Y-41935295D01*
X110529523Y-41935295D02*
X110529523Y-42030533D01*
X110529523Y-42030533D02*
X110481904Y-42173390D01*
X110481904Y-42173390D02*
X109910476Y-42744819D01*
X109910476Y-42744819D02*
X110529523Y-42744819D01*
X111386666Y-42078152D02*
X111386666Y-42744819D01*
X111148571Y-41697200D02*
X110910476Y-42411485D01*
X110910476Y-42411485D02*
X111529523Y-42411485D01*
X103830476Y-92512819D02*
X103830476Y-93227104D01*
X103830476Y-93227104D02*
X103782857Y-93369961D01*
X103782857Y-93369961D02*
X103687619Y-93465200D01*
X103687619Y-93465200D02*
X103544762Y-93512819D01*
X103544762Y-93512819D02*
X103449524Y-93512819D01*
X104306667Y-93512819D02*
X104306667Y-92512819D01*
X104306667Y-92512819D02*
X104687619Y-92512819D01*
X104687619Y-92512819D02*
X104782857Y-92560438D01*
X104782857Y-92560438D02*
X104830476Y-92608057D01*
X104830476Y-92608057D02*
X104878095Y-92703295D01*
X104878095Y-92703295D02*
X104878095Y-92846152D01*
X104878095Y-92846152D02*
X104830476Y-92941390D01*
X104830476Y-92941390D02*
X104782857Y-92989009D01*
X104782857Y-92989009D02*
X104687619Y-93036628D01*
X104687619Y-93036628D02*
X104306667Y-93036628D01*
X105830476Y-93512819D02*
X105259048Y-93512819D01*
X105544762Y-93512819D02*
X105544762Y-92512819D01*
X105544762Y-92512819D02*
X105449524Y-92655676D01*
X105449524Y-92655676D02*
X105354286Y-92750914D01*
X105354286Y-92750914D02*
X105259048Y-92798533D01*
X106163810Y-92512819D02*
X106830476Y-92512819D01*
X106830476Y-92512819D02*
X106401905Y-93512819D01*
X109561142Y-52904819D02*
X109227809Y-52428628D01*
X108989714Y-52904819D02*
X108989714Y-51904819D01*
X108989714Y-51904819D02*
X109370666Y-51904819D01*
X109370666Y-51904819D02*
X109465904Y-51952438D01*
X109465904Y-51952438D02*
X109513523Y-52000057D01*
X109513523Y-52000057D02*
X109561142Y-52095295D01*
X109561142Y-52095295D02*
X109561142Y-52238152D01*
X109561142Y-52238152D02*
X109513523Y-52333390D01*
X109513523Y-52333390D02*
X109465904Y-52381009D01*
X109465904Y-52381009D02*
X109370666Y-52428628D01*
X109370666Y-52428628D02*
X108989714Y-52428628D01*
X109942095Y-52000057D02*
X109989714Y-51952438D01*
X109989714Y-51952438D02*
X110084952Y-51904819D01*
X110084952Y-51904819D02*
X110323047Y-51904819D01*
X110323047Y-51904819D02*
X110418285Y-51952438D01*
X110418285Y-51952438D02*
X110465904Y-52000057D01*
X110465904Y-52000057D02*
X110513523Y-52095295D01*
X110513523Y-52095295D02*
X110513523Y-52190533D01*
X110513523Y-52190533D02*
X110465904Y-52333390D01*
X110465904Y-52333390D02*
X109894476Y-52904819D01*
X109894476Y-52904819D02*
X110513523Y-52904819D01*
X110894476Y-52000057D02*
X110942095Y-51952438D01*
X110942095Y-51952438D02*
X111037333Y-51904819D01*
X111037333Y-51904819D02*
X111275428Y-51904819D01*
X111275428Y-51904819D02*
X111370666Y-51952438D01*
X111370666Y-51952438D02*
X111418285Y-52000057D01*
X111418285Y-52000057D02*
X111465904Y-52095295D01*
X111465904Y-52095295D02*
X111465904Y-52190533D01*
X111465904Y-52190533D02*
X111418285Y-52333390D01*
X111418285Y-52333390D02*
X110846857Y-52904819D01*
X110846857Y-52904819D02*
X111465904Y-52904819D01*
X79716476Y-92527819D02*
X79716476Y-93242104D01*
X79716476Y-93242104D02*
X79668857Y-93384961D01*
X79668857Y-93384961D02*
X79573619Y-93480200D01*
X79573619Y-93480200D02*
X79430762Y-93527819D01*
X79430762Y-93527819D02*
X79335524Y-93527819D01*
X80192667Y-93527819D02*
X80192667Y-92527819D01*
X80192667Y-92527819D02*
X80573619Y-92527819D01*
X80573619Y-92527819D02*
X80668857Y-92575438D01*
X80668857Y-92575438D02*
X80716476Y-92623057D01*
X80716476Y-92623057D02*
X80764095Y-92718295D01*
X80764095Y-92718295D02*
X80764095Y-92861152D01*
X80764095Y-92861152D02*
X80716476Y-92956390D01*
X80716476Y-92956390D02*
X80668857Y-93004009D01*
X80668857Y-93004009D02*
X80573619Y-93051628D01*
X80573619Y-93051628D02*
X80192667Y-93051628D01*
X81716476Y-93527819D02*
X81145048Y-93527819D01*
X81430762Y-93527819D02*
X81430762Y-92527819D01*
X81430762Y-92527819D02*
X81335524Y-92670676D01*
X81335524Y-92670676D02*
X81240286Y-92765914D01*
X81240286Y-92765914D02*
X81145048Y-92813533D01*
X82097429Y-92623057D02*
X82145048Y-92575438D01*
X82145048Y-92575438D02*
X82240286Y-92527819D01*
X82240286Y-92527819D02*
X82478381Y-92527819D01*
X82478381Y-92527819D02*
X82573619Y-92575438D01*
X82573619Y-92575438D02*
X82621238Y-92623057D01*
X82621238Y-92623057D02*
X82668857Y-92718295D01*
X82668857Y-92718295D02*
X82668857Y-92813533D01*
X82668857Y-92813533D02*
X82621238Y-92956390D01*
X82621238Y-92956390D02*
X82049810Y-93527819D01*
X82049810Y-93527819D02*
X82668857Y-93527819D01*
X80243931Y-39442890D02*
X80243931Y-39510234D01*
X80243931Y-39510234D02*
X80176587Y-39644921D01*
X80176587Y-39644921D02*
X80109244Y-39712264D01*
X80109244Y-39712264D02*
X79974557Y-39779608D01*
X79974557Y-39779608D02*
X79839870Y-39779608D01*
X79839870Y-39779608D02*
X79738855Y-39745936D01*
X79738855Y-39745936D02*
X79570496Y-39644921D01*
X79570496Y-39644921D02*
X79469481Y-39543906D01*
X79469481Y-39543906D02*
X79368465Y-39375547D01*
X79368465Y-39375547D02*
X79334794Y-39274532D01*
X79334794Y-39274532D02*
X79334794Y-39139845D01*
X79334794Y-39139845D02*
X79402137Y-39005158D01*
X79402137Y-39005158D02*
X79469481Y-38937814D01*
X79469481Y-38937814D02*
X79604168Y-38870471D01*
X79604168Y-38870471D02*
X79671511Y-38870471D01*
X79940885Y-38601097D02*
X79940885Y-38533753D01*
X79940885Y-38533753D02*
X79974557Y-38432738D01*
X79974557Y-38432738D02*
X80142916Y-38264379D01*
X80142916Y-38264379D02*
X80243931Y-38230707D01*
X80243931Y-38230707D02*
X80311274Y-38230707D01*
X80311274Y-38230707D02*
X80412290Y-38264379D01*
X80412290Y-38264379D02*
X80479633Y-38331723D01*
X80479633Y-38331723D02*
X80546977Y-38466410D01*
X80546977Y-38466410D02*
X80546977Y-39274532D01*
X80546977Y-39274532D02*
X80984709Y-38836799D01*
X80883694Y-37523600D02*
X80749007Y-37658287D01*
X80749007Y-37658287D02*
X80715336Y-37759303D01*
X80715336Y-37759303D02*
X80715336Y-37826646D01*
X80715336Y-37826646D02*
X80749007Y-37995005D01*
X80749007Y-37995005D02*
X80850023Y-38163364D01*
X80850023Y-38163364D02*
X81119397Y-38432738D01*
X81119397Y-38432738D02*
X81220412Y-38466409D01*
X81220412Y-38466409D02*
X81287755Y-38466409D01*
X81287755Y-38466409D02*
X81388771Y-38432738D01*
X81388771Y-38432738D02*
X81523458Y-38298051D01*
X81523458Y-38298051D02*
X81557129Y-38197035D01*
X81557129Y-38197035D02*
X81557129Y-38129692D01*
X81557129Y-38129692D02*
X81523458Y-38028677D01*
X81523458Y-38028677D02*
X81355099Y-37860318D01*
X81355099Y-37860318D02*
X81254084Y-37826646D01*
X81254084Y-37826646D02*
X81186740Y-37826646D01*
X81186740Y-37826646D02*
X81085725Y-37860318D01*
X81085725Y-37860318D02*
X80951038Y-37995005D01*
X80951038Y-37995005D02*
X80917366Y-38096020D01*
X80917366Y-38096020D02*
X80917366Y-38163364D01*
X80917366Y-38163364D02*
X80951038Y-38264379D01*
X119674819Y-61285333D02*
X120389104Y-61285333D01*
X120389104Y-61285333D02*
X120531961Y-61332952D01*
X120531961Y-61332952D02*
X120627200Y-61428190D01*
X120627200Y-61428190D02*
X120674819Y-61571047D01*
X120674819Y-61571047D02*
X120674819Y-61666285D01*
X120674819Y-60809142D02*
X119674819Y-60809142D01*
X119674819Y-60809142D02*
X119674819Y-60428190D01*
X119674819Y-60428190D02*
X119722438Y-60332952D01*
X119722438Y-60332952D02*
X119770057Y-60285333D01*
X119770057Y-60285333D02*
X119865295Y-60237714D01*
X119865295Y-60237714D02*
X120008152Y-60237714D01*
X120008152Y-60237714D02*
X120103390Y-60285333D01*
X120103390Y-60285333D02*
X120151009Y-60332952D01*
X120151009Y-60332952D02*
X120198628Y-60428190D01*
X120198628Y-60428190D02*
X120198628Y-60809142D01*
X120008152Y-59380571D02*
X120674819Y-59380571D01*
X119627200Y-59618666D02*
X120341485Y-59856761D01*
X120341485Y-59856761D02*
X120341485Y-59237714D01*
X69654819Y-83176857D02*
X69178628Y-83510190D01*
X69654819Y-83748285D02*
X68654819Y-83748285D01*
X68654819Y-83748285D02*
X68654819Y-83367333D01*
X68654819Y-83367333D02*
X68702438Y-83272095D01*
X68702438Y-83272095D02*
X68750057Y-83224476D01*
X68750057Y-83224476D02*
X68845295Y-83176857D01*
X68845295Y-83176857D02*
X68988152Y-83176857D01*
X68988152Y-83176857D02*
X69083390Y-83224476D01*
X69083390Y-83224476D02*
X69131009Y-83272095D01*
X69131009Y-83272095D02*
X69178628Y-83367333D01*
X69178628Y-83367333D02*
X69178628Y-83748285D01*
X69654819Y-82224476D02*
X69654819Y-82795904D01*
X69654819Y-82510190D02*
X68654819Y-82510190D01*
X68654819Y-82510190D02*
X68797676Y-82605428D01*
X68797676Y-82605428D02*
X68892914Y-82700666D01*
X68892914Y-82700666D02*
X68940533Y-82795904D01*
X68654819Y-81605428D02*
X68654819Y-81510190D01*
X68654819Y-81510190D02*
X68702438Y-81414952D01*
X68702438Y-81414952D02*
X68750057Y-81367333D01*
X68750057Y-81367333D02*
X68845295Y-81319714D01*
X68845295Y-81319714D02*
X69035771Y-81272095D01*
X69035771Y-81272095D02*
X69273866Y-81272095D01*
X69273866Y-81272095D02*
X69464342Y-81319714D01*
X69464342Y-81319714D02*
X69559580Y-81367333D01*
X69559580Y-81367333D02*
X69607200Y-81414952D01*
X69607200Y-81414952D02*
X69654819Y-81510190D01*
X69654819Y-81510190D02*
X69654819Y-81605428D01*
X69654819Y-81605428D02*
X69607200Y-81700666D01*
X69607200Y-81700666D02*
X69559580Y-81748285D01*
X69559580Y-81748285D02*
X69464342Y-81795904D01*
X69464342Y-81795904D02*
X69273866Y-81843523D01*
X69273866Y-81843523D02*
X69035771Y-81843523D01*
X69035771Y-81843523D02*
X68845295Y-81795904D01*
X68845295Y-81795904D02*
X68750057Y-81748285D01*
X68750057Y-81748285D02*
X68702438Y-81700666D01*
X68702438Y-81700666D02*
X68654819Y-81605428D01*
X104835580Y-43590357D02*
X104883200Y-43637976D01*
X104883200Y-43637976D02*
X104930819Y-43780833D01*
X104930819Y-43780833D02*
X104930819Y-43876071D01*
X104930819Y-43876071D02*
X104883200Y-44018928D01*
X104883200Y-44018928D02*
X104787961Y-44114166D01*
X104787961Y-44114166D02*
X104692723Y-44161785D01*
X104692723Y-44161785D02*
X104502247Y-44209404D01*
X104502247Y-44209404D02*
X104359390Y-44209404D01*
X104359390Y-44209404D02*
X104168914Y-44161785D01*
X104168914Y-44161785D02*
X104073676Y-44114166D01*
X104073676Y-44114166D02*
X103978438Y-44018928D01*
X103978438Y-44018928D02*
X103930819Y-43876071D01*
X103930819Y-43876071D02*
X103930819Y-43780833D01*
X103930819Y-43780833D02*
X103978438Y-43637976D01*
X103978438Y-43637976D02*
X104026057Y-43590357D01*
X104026057Y-43209404D02*
X103978438Y-43161785D01*
X103978438Y-43161785D02*
X103930819Y-43066547D01*
X103930819Y-43066547D02*
X103930819Y-42828452D01*
X103930819Y-42828452D02*
X103978438Y-42733214D01*
X103978438Y-42733214D02*
X104026057Y-42685595D01*
X104026057Y-42685595D02*
X104121295Y-42637976D01*
X104121295Y-42637976D02*
X104216533Y-42637976D01*
X104216533Y-42637976D02*
X104359390Y-42685595D01*
X104359390Y-42685595D02*
X104930819Y-43257023D01*
X104930819Y-43257023D02*
X104930819Y-42637976D01*
X104930819Y-41685595D02*
X104930819Y-42257023D01*
X104930819Y-41971309D02*
X103930819Y-41971309D01*
X103930819Y-41971309D02*
X104073676Y-42066547D01*
X104073676Y-42066547D02*
X104168914Y-42161785D01*
X104168914Y-42161785D02*
X104216533Y-42257023D01*
X76292618Y-35491578D02*
X76292618Y-35558922D01*
X76292618Y-35558922D02*
X76225274Y-35693609D01*
X76225274Y-35693609D02*
X76157931Y-35760952D01*
X76157931Y-35760952D02*
X76023244Y-35828296D01*
X76023244Y-35828296D02*
X75888557Y-35828296D01*
X75888557Y-35828296D02*
X75787542Y-35794624D01*
X75787542Y-35794624D02*
X75619183Y-35693609D01*
X75619183Y-35693609D02*
X75518168Y-35592594D01*
X75518168Y-35592594D02*
X75417152Y-35424235D01*
X75417152Y-35424235D02*
X75383481Y-35323220D01*
X75383481Y-35323220D02*
X75383481Y-35188533D01*
X75383481Y-35188533D02*
X75450824Y-35053846D01*
X75450824Y-35053846D02*
X75518168Y-34986502D01*
X75518168Y-34986502D02*
X75652855Y-34919159D01*
X75652855Y-34919159D02*
X75720198Y-34919159D01*
X77033396Y-34885487D02*
X76629335Y-35289548D01*
X76831366Y-35087517D02*
X76124259Y-34380411D01*
X76124259Y-34380411D02*
X76157931Y-34548769D01*
X76157931Y-34548769D02*
X76157931Y-34683456D01*
X76157931Y-34683456D02*
X76124259Y-34784472D01*
X77033397Y-34077365D02*
X76932381Y-34111036D01*
X76932381Y-34111036D02*
X76865038Y-34111036D01*
X76865038Y-34111036D02*
X76764023Y-34077365D01*
X76764023Y-34077365D02*
X76730351Y-34043693D01*
X76730351Y-34043693D02*
X76696679Y-33942678D01*
X76696679Y-33942678D02*
X76696679Y-33875334D01*
X76696679Y-33875334D02*
X76730351Y-33774319D01*
X76730351Y-33774319D02*
X76865038Y-33639632D01*
X76865038Y-33639632D02*
X76966053Y-33605960D01*
X76966053Y-33605960D02*
X77033397Y-33605960D01*
X77033397Y-33605960D02*
X77134412Y-33639632D01*
X77134412Y-33639632D02*
X77168084Y-33673304D01*
X77168084Y-33673304D02*
X77201755Y-33774319D01*
X77201755Y-33774319D02*
X77201755Y-33841662D01*
X77201755Y-33841662D02*
X77168084Y-33942678D01*
X77168084Y-33942678D02*
X77033397Y-34077365D01*
X77033397Y-34077365D02*
X76999725Y-34178380D01*
X76999725Y-34178380D02*
X76999725Y-34245723D01*
X76999725Y-34245723D02*
X77033397Y-34346739D01*
X77033397Y-34346739D02*
X77168084Y-34481426D01*
X77168084Y-34481426D02*
X77269099Y-34515097D01*
X77269099Y-34515097D02*
X77336442Y-34515097D01*
X77336442Y-34515097D02*
X77437458Y-34481426D01*
X77437458Y-34481426D02*
X77572145Y-34346739D01*
X77572145Y-34346739D02*
X77605816Y-34245723D01*
X77605816Y-34245723D02*
X77605816Y-34178380D01*
X77605816Y-34178380D02*
X77572145Y-34077365D01*
X77572145Y-34077365D02*
X77437458Y-33942678D01*
X77437458Y-33942678D02*
X77336442Y-33909006D01*
X77336442Y-33909006D02*
X77269099Y-33909006D01*
X77269099Y-33909006D02*
X77168084Y-33942678D01*
X109561142Y-76526819D02*
X109227809Y-76050628D01*
X108989714Y-76526819D02*
X108989714Y-75526819D01*
X108989714Y-75526819D02*
X109370666Y-75526819D01*
X109370666Y-75526819D02*
X109465904Y-75574438D01*
X109465904Y-75574438D02*
X109513523Y-75622057D01*
X109513523Y-75622057D02*
X109561142Y-75717295D01*
X109561142Y-75717295D02*
X109561142Y-75860152D01*
X109561142Y-75860152D02*
X109513523Y-75955390D01*
X109513523Y-75955390D02*
X109465904Y-76003009D01*
X109465904Y-76003009D02*
X109370666Y-76050628D01*
X109370666Y-76050628D02*
X108989714Y-76050628D01*
X110513523Y-76526819D02*
X109942095Y-76526819D01*
X110227809Y-76526819D02*
X110227809Y-75526819D01*
X110227809Y-75526819D02*
X110132571Y-75669676D01*
X110132571Y-75669676D02*
X110037333Y-75764914D01*
X110037333Y-75764914D02*
X109942095Y-75812533D01*
X110846857Y-75526819D02*
X111513523Y-75526819D01*
X111513523Y-75526819D02*
X111084952Y-76526819D01*
X109561142Y-57730819D02*
X109227809Y-57254628D01*
X108989714Y-57730819D02*
X108989714Y-56730819D01*
X108989714Y-56730819D02*
X109370666Y-56730819D01*
X109370666Y-56730819D02*
X109465904Y-56778438D01*
X109465904Y-56778438D02*
X109513523Y-56826057D01*
X109513523Y-56826057D02*
X109561142Y-56921295D01*
X109561142Y-56921295D02*
X109561142Y-57064152D01*
X109561142Y-57064152D02*
X109513523Y-57159390D01*
X109513523Y-57159390D02*
X109465904Y-57207009D01*
X109465904Y-57207009D02*
X109370666Y-57254628D01*
X109370666Y-57254628D02*
X108989714Y-57254628D01*
X109942095Y-56826057D02*
X109989714Y-56778438D01*
X109989714Y-56778438D02*
X110084952Y-56730819D01*
X110084952Y-56730819D02*
X110323047Y-56730819D01*
X110323047Y-56730819D02*
X110418285Y-56778438D01*
X110418285Y-56778438D02*
X110465904Y-56826057D01*
X110465904Y-56826057D02*
X110513523Y-56921295D01*
X110513523Y-56921295D02*
X110513523Y-57016533D01*
X110513523Y-57016533D02*
X110465904Y-57159390D01*
X110465904Y-57159390D02*
X109894476Y-57730819D01*
X109894476Y-57730819D02*
X110513523Y-57730819D01*
X111465904Y-57730819D02*
X110894476Y-57730819D01*
X111180190Y-57730819D02*
X111180190Y-56730819D01*
X111180190Y-56730819D02*
X111084952Y-56873676D01*
X111084952Y-56873676D02*
X110989714Y-56968914D01*
X110989714Y-56968914D02*
X110894476Y-57016533D01*
X78298680Y-37436828D02*
X78298680Y-37504172D01*
X78298680Y-37504172D02*
X78231336Y-37638859D01*
X78231336Y-37638859D02*
X78163993Y-37706202D01*
X78163993Y-37706202D02*
X78029306Y-37773546D01*
X78029306Y-37773546D02*
X77894619Y-37773546D01*
X77894619Y-37773546D02*
X77793604Y-37739874D01*
X77793604Y-37739874D02*
X77625245Y-37638859D01*
X77625245Y-37638859D02*
X77524230Y-37537844D01*
X77524230Y-37537844D02*
X77423214Y-37369485D01*
X77423214Y-37369485D02*
X77389543Y-37268470D01*
X77389543Y-37268470D02*
X77389543Y-37133783D01*
X77389543Y-37133783D02*
X77456886Y-36999096D01*
X77456886Y-36999096D02*
X77524230Y-36931752D01*
X77524230Y-36931752D02*
X77658917Y-36864409D01*
X77658917Y-36864409D02*
X77726260Y-36864409D01*
X78500710Y-36426676D02*
X78972115Y-36898080D01*
X78062978Y-36325661D02*
X78399695Y-36999096D01*
X78399695Y-36999096D02*
X78837428Y-36561363D01*
X79174146Y-35753241D02*
X79645550Y-36224645D01*
X78736413Y-35652225D02*
X79073130Y-36325660D01*
X79073130Y-36325660D02*
X79510863Y-35887928D01*
X109577142Y-47824819D02*
X109243809Y-47348628D01*
X109005714Y-47824819D02*
X109005714Y-46824819D01*
X109005714Y-46824819D02*
X109386666Y-46824819D01*
X109386666Y-46824819D02*
X109481904Y-46872438D01*
X109481904Y-46872438D02*
X109529523Y-46920057D01*
X109529523Y-46920057D02*
X109577142Y-47015295D01*
X109577142Y-47015295D02*
X109577142Y-47158152D01*
X109577142Y-47158152D02*
X109529523Y-47253390D01*
X109529523Y-47253390D02*
X109481904Y-47301009D01*
X109481904Y-47301009D02*
X109386666Y-47348628D01*
X109386666Y-47348628D02*
X109005714Y-47348628D01*
X109958095Y-46920057D02*
X110005714Y-46872438D01*
X110005714Y-46872438D02*
X110100952Y-46824819D01*
X110100952Y-46824819D02*
X110339047Y-46824819D01*
X110339047Y-46824819D02*
X110434285Y-46872438D01*
X110434285Y-46872438D02*
X110481904Y-46920057D01*
X110481904Y-46920057D02*
X110529523Y-47015295D01*
X110529523Y-47015295D02*
X110529523Y-47110533D01*
X110529523Y-47110533D02*
X110481904Y-47253390D01*
X110481904Y-47253390D02*
X109910476Y-47824819D01*
X109910476Y-47824819D02*
X110529523Y-47824819D01*
X110862857Y-46824819D02*
X111481904Y-46824819D01*
X111481904Y-46824819D02*
X111148571Y-47205771D01*
X111148571Y-47205771D02*
X111291428Y-47205771D01*
X111291428Y-47205771D02*
X111386666Y-47253390D01*
X111386666Y-47253390D02*
X111434285Y-47301009D01*
X111434285Y-47301009D02*
X111481904Y-47396247D01*
X111481904Y-47396247D02*
X111481904Y-47634342D01*
X111481904Y-47634342D02*
X111434285Y-47729580D01*
X111434285Y-47729580D02*
X111386666Y-47777200D01*
X111386666Y-47777200D02*
X111291428Y-47824819D01*
X111291428Y-47824819D02*
X111005714Y-47824819D01*
X111005714Y-47824819D02*
X110910476Y-47777200D01*
X110910476Y-47777200D02*
X110862857Y-47729580D01*
X103944819Y-82954857D02*
X103468628Y-83288190D01*
X103944819Y-83526285D02*
X102944819Y-83526285D01*
X102944819Y-83526285D02*
X102944819Y-83145333D01*
X102944819Y-83145333D02*
X102992438Y-83050095D01*
X102992438Y-83050095D02*
X103040057Y-83002476D01*
X103040057Y-83002476D02*
X103135295Y-82954857D01*
X103135295Y-82954857D02*
X103278152Y-82954857D01*
X103278152Y-82954857D02*
X103373390Y-83002476D01*
X103373390Y-83002476D02*
X103421009Y-83050095D01*
X103421009Y-83050095D02*
X103468628Y-83145333D01*
X103468628Y-83145333D02*
X103468628Y-83526285D01*
X103040057Y-82573904D02*
X102992438Y-82526285D01*
X102992438Y-82526285D02*
X102944819Y-82431047D01*
X102944819Y-82431047D02*
X102944819Y-82192952D01*
X102944819Y-82192952D02*
X102992438Y-82097714D01*
X102992438Y-82097714D02*
X103040057Y-82050095D01*
X103040057Y-82050095D02*
X103135295Y-82002476D01*
X103135295Y-82002476D02*
X103230533Y-82002476D01*
X103230533Y-82002476D02*
X103373390Y-82050095D01*
X103373390Y-82050095D02*
X103944819Y-82621523D01*
X103944819Y-82621523D02*
X103944819Y-82002476D01*
X103944819Y-81526285D02*
X103944819Y-81335809D01*
X103944819Y-81335809D02*
X103897200Y-81240571D01*
X103897200Y-81240571D02*
X103849580Y-81192952D01*
X103849580Y-81192952D02*
X103706723Y-81097714D01*
X103706723Y-81097714D02*
X103516247Y-81050095D01*
X103516247Y-81050095D02*
X103135295Y-81050095D01*
X103135295Y-81050095D02*
X103040057Y-81097714D01*
X103040057Y-81097714D02*
X102992438Y-81145333D01*
X102992438Y-81145333D02*
X102944819Y-81240571D01*
X102944819Y-81240571D02*
X102944819Y-81431047D01*
X102944819Y-81431047D02*
X102992438Y-81526285D01*
X102992438Y-81526285D02*
X103040057Y-81573904D01*
X103040057Y-81573904D02*
X103135295Y-81621523D01*
X103135295Y-81621523D02*
X103373390Y-81621523D01*
X103373390Y-81621523D02*
X103468628Y-81573904D01*
X103468628Y-81573904D02*
X103516247Y-81526285D01*
X103516247Y-81526285D02*
X103563866Y-81431047D01*
X103563866Y-81431047D02*
X103563866Y-81240571D01*
X103563866Y-81240571D02*
X103516247Y-81145333D01*
X103516247Y-81145333D02*
X103468628Y-81097714D01*
X103468628Y-81097714D02*
X103373390Y-81050095D01*
X94292819Y-82954857D02*
X93816628Y-83288190D01*
X94292819Y-83526285D02*
X93292819Y-83526285D01*
X93292819Y-83526285D02*
X93292819Y-83145333D01*
X93292819Y-83145333D02*
X93340438Y-83050095D01*
X93340438Y-83050095D02*
X93388057Y-83002476D01*
X93388057Y-83002476D02*
X93483295Y-82954857D01*
X93483295Y-82954857D02*
X93626152Y-82954857D01*
X93626152Y-82954857D02*
X93721390Y-83002476D01*
X93721390Y-83002476D02*
X93769009Y-83050095D01*
X93769009Y-83050095D02*
X93816628Y-83145333D01*
X93816628Y-83145333D02*
X93816628Y-83526285D01*
X94292819Y-82002476D02*
X94292819Y-82573904D01*
X94292819Y-82288190D02*
X93292819Y-82288190D01*
X93292819Y-82288190D02*
X93435676Y-82383428D01*
X93435676Y-82383428D02*
X93530914Y-82478666D01*
X93530914Y-82478666D02*
X93578533Y-82573904D01*
X93292819Y-81097714D02*
X93292819Y-81573904D01*
X93292819Y-81573904D02*
X93769009Y-81621523D01*
X93769009Y-81621523D02*
X93721390Y-81573904D01*
X93721390Y-81573904D02*
X93673771Y-81478666D01*
X93673771Y-81478666D02*
X93673771Y-81240571D01*
X93673771Y-81240571D02*
X93721390Y-81145333D01*
X93721390Y-81145333D02*
X93769009Y-81097714D01*
X93769009Y-81097714D02*
X93864247Y-81050095D01*
X93864247Y-81050095D02*
X94102342Y-81050095D01*
X94102342Y-81050095D02*
X94197580Y-81097714D01*
X94197580Y-81097714D02*
X94245200Y-81145333D01*
X94245200Y-81145333D02*
X94292819Y-81240571D01*
X94292819Y-81240571D02*
X94292819Y-81478666D01*
X94292819Y-81478666D02*
X94245200Y-81573904D01*
X94245200Y-81573904D02*
X94197580Y-81621523D01*
X75501178Y-59964481D02*
X74928758Y-60536901D01*
X74928758Y-60536901D02*
X74895086Y-60637916D01*
X74895086Y-60637916D02*
X74895086Y-60705260D01*
X74895086Y-60705260D02*
X74928758Y-60806275D01*
X74928758Y-60806275D02*
X75063445Y-60940962D01*
X75063445Y-60940962D02*
X75164460Y-60974634D01*
X75164460Y-60974634D02*
X75231804Y-60974634D01*
X75231804Y-60974634D02*
X75332819Y-60940962D01*
X75332819Y-60940962D02*
X75905239Y-60368542D01*
X76174613Y-60637916D02*
X76612345Y-61075649D01*
X76612345Y-61075649D02*
X76107269Y-61109321D01*
X76107269Y-61109321D02*
X76208284Y-61210336D01*
X76208284Y-61210336D02*
X76241956Y-61311351D01*
X76241956Y-61311351D02*
X76241956Y-61378695D01*
X76241956Y-61378695D02*
X76208284Y-61479710D01*
X76208284Y-61479710D02*
X76039926Y-61648069D01*
X76039926Y-61648069D02*
X75938910Y-61681741D01*
X75938910Y-61681741D02*
X75871567Y-61681741D01*
X75871567Y-61681741D02*
X75770552Y-61648069D01*
X75770552Y-61648069D02*
X75568521Y-61446038D01*
X75568521Y-61446038D02*
X75534849Y-61345023D01*
X75534849Y-61345023D02*
X75534849Y-61277680D01*
D11*
X69499010Y-61918457D02*
X69129543Y-61548990D01*
X70538457Y-60879010D02*
X70168990Y-60509543D01*
X110431064Y-59717000D02*
X109976936Y-59717000D01*
X110431064Y-61187000D02*
X109976936Y-61187000D01*
X110431064Y-64289000D02*
X109976936Y-64289000D01*
X110431064Y-65759000D02*
X109976936Y-65759000D01*
X84472000Y-89423000D02*
X84472000Y-86773000D01*
X87232000Y-86773000D02*
X84472000Y-86773000D01*
X87232000Y-89423000D02*
X84472000Y-89423000D01*
X87232000Y-89423000D02*
X87232000Y-86773000D01*
X87232000Y-90693000D02*
X87232000Y-92073000D01*
X87232000Y-92073000D02*
X85852000Y-92073000D01*
X64981064Y-78767000D02*
X64526936Y-78767000D01*
X64981064Y-80237000D02*
X64526936Y-80237000D01*
X70944732Y-38459770D02*
X70623615Y-38138653D01*
X71984179Y-37420323D02*
X71663062Y-37099206D01*
X65015252Y-82323000D02*
X64492748Y-82323000D01*
X65015252Y-83793000D02*
X64492748Y-83793000D01*
X83103564Y-43646079D02*
X82734097Y-43276612D01*
X84143011Y-42606632D02*
X83773544Y-42237165D01*
X89117034Y-49601015D02*
X88747567Y-49231548D01*
X90156481Y-48561568D02*
X89787014Y-48192101D01*
X113920000Y-54246000D02*
X113920000Y-57006000D01*
X116570000Y-54246000D02*
X113920000Y-54246000D01*
X116570000Y-54246000D02*
X116570000Y-57006000D01*
X116570000Y-57006000D02*
X113920000Y-57006000D01*
X117840000Y-54246000D02*
X119220000Y-54246000D01*
X119220000Y-54246000D02*
X119220000Y-55626000D01*
X85753720Y-46296235D02*
X86123187Y-46665702D01*
X86793167Y-45256788D02*
X87162634Y-45626255D01*
X110431064Y-68861000D02*
X109976936Y-68861000D01*
X110431064Y-70331000D02*
X109976936Y-70331000D01*
X49166000Y-57150000D02*
X49166000Y-34180000D01*
X51926000Y-34180000D02*
X49166000Y-34180000D01*
X51926000Y-57150000D02*
X49166000Y-57150000D01*
X51926000Y-57150000D02*
X51926000Y-34180000D01*
X51926000Y-58420000D02*
X51926000Y-59800000D01*
X51926000Y-59800000D02*
X50546000Y-59800000D01*
X91451901Y-47266148D02*
X91082434Y-46896681D01*
X92491348Y-46226701D02*
X92121881Y-45857234D01*
X71459464Y-59927598D02*
X71089997Y-59558131D01*
X72498911Y-58888151D02*
X72129444Y-58518684D01*
X105421000Y-53114752D02*
X105421000Y-52592248D01*
X106891000Y-53114752D02*
X106891000Y-52592248D01*
X85101000Y-82539064D02*
X85101000Y-82084936D01*
X86571000Y-82539064D02*
X86571000Y-82084936D01*
X64406000Y-89408000D02*
X64406000Y-86758000D01*
X67166000Y-86758000D02*
X64406000Y-86758000D01*
X67166000Y-89408000D02*
X64406000Y-89408000D01*
X67166000Y-89408000D02*
X67166000Y-86758000D01*
X67166000Y-90678000D02*
X67166000Y-92058000D01*
X67166000Y-92058000D02*
X65786000Y-92058000D01*
X64973728Y-45185175D02*
X64652611Y-44864058D01*
X66013175Y-44145728D02*
X65692058Y-43824611D01*
X74566000Y-89423000D02*
X74566000Y-86773000D01*
X77326000Y-86773000D02*
X74566000Y-86773000D01*
X77326000Y-89423000D02*
X74566000Y-89423000D01*
X77326000Y-89423000D02*
X77326000Y-86773000D01*
X77326000Y-90693000D02*
X77326000Y-92073000D01*
X77326000Y-92073000D02*
X75946000Y-92073000D01*
X113920000Y-44340000D02*
X113920000Y-47100000D01*
X116570000Y-44340000D02*
X113920000Y-44340000D01*
X116570000Y-44340000D02*
X116570000Y-47100000D01*
X116570000Y-47100000D02*
X113920000Y-47100000D01*
X117840000Y-44340000D02*
X119220000Y-44340000D01*
X119220000Y-44340000D02*
X119220000Y-45720000D01*
X83034748Y-77751000D02*
X83557252Y-77751000D01*
X83034748Y-79221000D02*
X83557252Y-79221000D01*
X98950000Y-89423000D02*
X98950000Y-86773000D01*
X101710000Y-86773000D02*
X98950000Y-86773000D01*
X101710000Y-89423000D02*
X98950000Y-89423000D01*
X101710000Y-89423000D02*
X101710000Y-86773000D01*
X101710000Y-90693000D02*
X101710000Y-92073000D01*
X101710000Y-92073000D02*
X100330000Y-92073000D01*
X93771564Y-44916079D02*
X93402097Y-44546612D01*
X94811011Y-43876632D02*
X94441544Y-43507165D01*
X102317248Y-77751000D02*
X102839752Y-77751000D01*
X102317248Y-79221000D02*
X102839752Y-79221000D01*
X80275000Y-82539064D02*
X80275000Y-82084936D01*
X81745000Y-82539064D02*
X81745000Y-82084936D01*
X62592193Y-47611966D02*
X62271076Y-47290849D01*
X63631640Y-46572519D02*
X63310523Y-46251402D01*
X99579000Y-82507064D02*
X99579000Y-82052936D01*
X101049000Y-82507064D02*
X101049000Y-82052936D01*
X105421000Y-62766752D02*
X105421000Y-62244248D01*
X106891000Y-62766752D02*
X106891000Y-62244248D01*
X110463064Y-35333000D02*
X110008936Y-35333000D01*
X110463064Y-36803000D02*
X110008936Y-36803000D01*
X92665248Y-77751000D02*
X93187752Y-77751000D01*
X92665248Y-79221000D02*
X93187752Y-79221000D01*
X89298000Y-89428000D02*
X89298000Y-86778000D01*
X92058000Y-86778000D02*
X89298000Y-86778000D01*
X92058000Y-89428000D02*
X89298000Y-89428000D01*
X92058000Y-89428000D02*
X92058000Y-86778000D01*
X92058000Y-90698000D02*
X92058000Y-92078000D01*
X92058000Y-92078000D02*
X90678000Y-92078000D01*
X84881564Y-41868079D02*
X84512097Y-41498612D01*
X85921011Y-40828632D02*
X85551544Y-40459165D01*
X89927000Y-82539064D02*
X89927000Y-82084936D01*
X91397000Y-82539064D02*
X91397000Y-82084936D01*
X113920000Y-49420000D02*
X113920000Y-52180000D01*
X116570000Y-49420000D02*
X113920000Y-49420000D01*
X116570000Y-49420000D02*
X116570000Y-52180000D01*
X116570000Y-52180000D02*
X113920000Y-52180000D01*
X117840000Y-49420000D02*
X119220000Y-49420000D01*
X119220000Y-49420000D02*
X119220000Y-50800000D01*
X67441531Y-42762627D02*
X67120414Y-42441510D01*
X68480978Y-41723180D02*
X68159861Y-41402063D01*
X113920000Y-63644000D02*
X113920000Y-66404000D01*
X116570000Y-63644000D02*
X113920000Y-63644000D01*
X116570000Y-63644000D02*
X116570000Y-66404000D01*
X116570000Y-66404000D02*
X113920000Y-66404000D01*
X117840000Y-63644000D02*
X119220000Y-63644000D01*
X119220000Y-63644000D02*
X119220000Y-65024000D01*
X113941000Y-34688000D02*
X113941000Y-37448000D01*
X116591000Y-34688000D02*
X113941000Y-34688000D01*
X116591000Y-34688000D02*
X116591000Y-37448000D01*
X116591000Y-37448000D02*
X113941000Y-37448000D01*
X117861000Y-34688000D02*
X119241000Y-34688000D01*
X119241000Y-34688000D02*
X119241000Y-36068000D01*
X113920000Y-39260000D02*
X113920000Y-42020000D01*
X116570000Y-39260000D02*
X113920000Y-39260000D01*
X116570000Y-39260000D02*
X116570000Y-42020000D01*
X116570000Y-42020000D02*
X113920000Y-42020000D01*
X117840000Y-39260000D02*
X119220000Y-39260000D01*
X119220000Y-39260000D02*
X119220000Y-40640000D01*
X94124000Y-89428000D02*
X94124000Y-86778000D01*
X96884000Y-86778000D02*
X94124000Y-86778000D01*
X96884000Y-89428000D02*
X94124000Y-89428000D01*
X96884000Y-89428000D02*
X96884000Y-86778000D01*
X96884000Y-90698000D02*
X96884000Y-92078000D01*
X96884000Y-92078000D02*
X95504000Y-92078000D01*
X105421000Y-71910752D02*
X105421000Y-71388248D01*
X106891000Y-71910752D02*
X106891000Y-71388248D01*
X113920000Y-73042000D02*
X113920000Y-75802000D01*
X116570000Y-73042000D02*
X113920000Y-73042000D01*
X116570000Y-73042000D02*
X116570000Y-75802000D01*
X116570000Y-75802000D02*
X113920000Y-75802000D01*
X117840000Y-73042000D02*
X119220000Y-73042000D01*
X119220000Y-73042000D02*
X119220000Y-74422000D01*
X113915000Y-68216000D02*
X113915000Y-70976000D01*
X116565000Y-68216000D02*
X113915000Y-68216000D01*
X116565000Y-68216000D02*
X116565000Y-70976000D01*
X116565000Y-70976000D02*
X113915000Y-70976000D01*
X117835000Y-68216000D02*
X119215000Y-68216000D01*
X119215000Y-68216000D02*
X119215000Y-69596000D01*
X69486000Y-89423000D02*
X69486000Y-86773000D01*
X72246000Y-86773000D02*
X69486000Y-86773000D01*
X72246000Y-89423000D02*
X69486000Y-89423000D01*
X72246000Y-89423000D02*
X72246000Y-86773000D01*
X72246000Y-90693000D02*
X72246000Y-92073000D01*
X72246000Y-92073000D02*
X70866000Y-92073000D01*
X75195000Y-82539064D02*
X75195000Y-82084936D01*
X76665000Y-82539064D02*
X76665000Y-82084936D01*
X73150248Y-77751000D02*
X73672752Y-77751000D01*
X73150248Y-79221000D02*
X73672752Y-79221000D01*
X110447064Y-39905000D02*
X109992936Y-39905000D01*
X110447064Y-41375000D02*
X109992936Y-41375000D01*
X103760000Y-89408000D02*
X103760000Y-86758000D01*
X106520000Y-86758000D02*
X103760000Y-86758000D01*
X106520000Y-89408000D02*
X103760000Y-89408000D01*
X106520000Y-89408000D02*
X106520000Y-86758000D01*
X106520000Y-90678000D02*
X106520000Y-92058000D01*
X106520000Y-92058000D02*
X105140000Y-92058000D01*
X110431064Y-50065000D02*
X109976936Y-50065000D01*
X110431064Y-51535000D02*
X109976936Y-51535000D01*
X79646000Y-89423000D02*
X79646000Y-86773000D01*
X82406000Y-86773000D02*
X79646000Y-86773000D01*
X82406000Y-89423000D02*
X79646000Y-89423000D01*
X82406000Y-89423000D02*
X82406000Y-86773000D01*
X82406000Y-90693000D02*
X82406000Y-92073000D01*
X82406000Y-92073000D02*
X81026000Y-92073000D01*
X80927720Y-39587009D02*
X81297187Y-39217542D01*
X81967167Y-40626456D02*
X82336634Y-40256989D01*
X113920000Y-59072000D02*
X113920000Y-61832000D01*
X116570000Y-59072000D02*
X113920000Y-59072000D01*
X116570000Y-59072000D02*
X116570000Y-61832000D01*
X116570000Y-61832000D02*
X113920000Y-61832000D01*
X117840000Y-59072000D02*
X119220000Y-59072000D01*
X119220000Y-59072000D02*
X119220000Y-60452000D01*
X70115000Y-82761064D02*
X70115000Y-82306936D01*
X71585000Y-82761064D02*
X71585000Y-82306936D01*
X105421000Y-43208752D02*
X105421000Y-42686248D01*
X106891000Y-43208752D02*
X106891000Y-42686248D01*
X76976407Y-35635697D02*
X77345874Y-35266230D01*
X78015854Y-36675144D02*
X78385321Y-36305677D01*
X110431064Y-73687000D02*
X109976936Y-73687000D01*
X110431064Y-75157000D02*
X109976936Y-75157000D01*
X110431064Y-54891000D02*
X109976936Y-54891000D01*
X110431064Y-56361000D02*
X109976936Y-56361000D01*
X78982469Y-37580947D02*
X79351936Y-37211480D01*
X80021916Y-38620394D02*
X80391383Y-38250927D01*
X110447064Y-44985000D02*
X109992936Y-44985000D01*
X110447064Y-46455000D02*
X109992936Y-46455000D01*
X104405000Y-82539064D02*
X104405000Y-82084936D01*
X105875000Y-82539064D02*
X105875000Y-82084936D01*
X94753000Y-82539064D02*
X94753000Y-82084936D01*
X96223000Y-82539064D02*
X96223000Y-82084936D01*
D12*
X71312789Y-52523658D02*
X71871404Y-51965044D01*
X71312789Y-52523658D02*
X71871404Y-53082272D01*
X78383857Y-45452590D02*
X77825243Y-46011205D01*
X78383857Y-45452590D02*
X78942471Y-46011205D01*
X78383857Y-59594726D02*
X77825243Y-59036111D01*
X78383857Y-59594726D02*
X78942471Y-59036111D01*
X85454925Y-52523658D02*
X84896310Y-51965044D01*
X85454925Y-52523658D02*
X84896310Y-53082272D01*
D13*
X81093081Y-60436183D02*
G75*
G02*
X80893081Y-60436183I-100000J0D01*
G01*
X80893081Y-60436183D02*
G75*
G02*
X81093081Y-60436183I100000J0D01*
G01*
M02*
