M48
; DRILL file {KiCad 9.0.4} date 2026-03-09T21:43:13-0500
; FORMAT={-:-/ absolute / metric / decimal}
; #@! TF.CreationDate,2026-03-09T21:43:13-05:00
; #@! TF.GenerationSoftware,Kicad,Pcbnew,9.0.4
; #@! TF.FileFunction,Plated,1,2,PTH
FMAT,2
METRIC
; #@! TA.AperFunction,Plated,PTH,ViaDrill
T1C0.300
; #@! TA.AperFunction,Plated,PTH,ComponentDrill
T2C1.000
%
G90
G05
T1
X59.944Y-58.42
X72.038Y-56.972
X73.66Y-58.594
X88.519Y-43.196
X97.409Y-42.18
T2
X50.546Y-35.56
X50.546Y-38.1
X50.546Y-40.64
X50.546Y-43.18
X50.546Y-45.72
X50.546Y-48.26
X50.546Y-50.8
X50.546Y-53.34
X50.546Y-55.88
X50.546Y-58.42
X65.786Y-88.138
X65.786Y-90.678
X70.866Y-88.153
X70.866Y-90.693
X75.946Y-88.153
X75.946Y-90.693
X81.026Y-88.153
X81.026Y-90.693
X85.852Y-88.153
X85.852Y-90.693
X90.678Y-88.158
X90.678Y-90.698
X95.504Y-88.158
X95.504Y-90.698
X100.33Y-88.153
X100.33Y-90.693
X105.14Y-88.138
X105.14Y-90.678
X115.295Y-69.596
X115.3Y-40.64
X115.3Y-45.72
X115.3Y-50.8
X115.3Y-55.626
X115.3Y-60.452
X115.3Y-65.024
X115.3Y-74.422
X115.321Y-36.068
X117.835Y-69.596
X117.84Y-40.64
X117.84Y-45.72
X117.84Y-50.8
X117.84Y-55.626
X117.84Y-60.452
X117.84Y-65.024
X117.84Y-74.422
X117.861Y-36.068
M30
