G04 #@! TF.GenerationSoftware,KiCad,Pcbnew,9.0.4*
G04 #@! TF.CreationDate,2026-03-09T23:35:53-05:00*
G04 #@! TF.ProjectId,ADS1299 Referential Montage,41445331-3239-4392-9052-65666572656e,rev?*
G04 #@! TF.SameCoordinates,Original*
G04 #@! TF.FileFunction,Legend,Top*
G04 #@! TF.FilePolarity,Positive*
%FSLAX46Y46*%
G04 Gerber Fmt 4.6, Leading zero omitted, Abs format (unit mm)*
G04 Created by KiCad (PCBNEW 9.0.4) date 2026-03-09 23:35:53*
%MOMM*%
%LPD*%
G01*
G04 APERTURE LIST*
%ADD10C,0.150000*%
%ADD11C,0.120000*%
%ADD12C,0.200000*%
%ADD13C,0.127000*%
G04 APERTURE END LIST*
D10*
X169873972Y-71320173D02*
X169873972Y-71387517D01*
X169873972Y-71387517D02*
X169806628Y-71522204D01*
X169806628Y-71522204D02*
X169739285Y-71589547D01*
X169739285Y-71589547D02*
X169604598Y-71656891D01*
X169604598Y-71656891D02*
X169469911Y-71656891D01*
X169469911Y-71656891D02*
X169368896Y-71623219D01*
X169368896Y-71623219D02*
X169200537Y-71522204D01*
X169200537Y-71522204D02*
X169099522Y-71421189D01*
X169099522Y-71421189D02*
X168998506Y-71252830D01*
X168998506Y-71252830D02*
X168964835Y-71151815D01*
X168964835Y-71151815D02*
X168964835Y-71017128D01*
X168964835Y-71017128D02*
X169032178Y-70882441D01*
X169032178Y-70882441D02*
X169099522Y-70815097D01*
X169099522Y-70815097D02*
X169234209Y-70747754D01*
X169234209Y-70747754D02*
X169301552Y-70747754D01*
X169873972Y-70040647D02*
X169537254Y-70377364D01*
X169537254Y-70377364D02*
X169840300Y-70747754D01*
X169840300Y-70747754D02*
X169840300Y-70680410D01*
X169840300Y-70680410D02*
X169873972Y-70579395D01*
X169873972Y-70579395D02*
X170042331Y-70411036D01*
X170042331Y-70411036D02*
X170143346Y-70377364D01*
X170143346Y-70377364D02*
X170210689Y-70377364D01*
X170210689Y-70377364D02*
X170311705Y-70411036D01*
X170311705Y-70411036D02*
X170480063Y-70579395D01*
X170480063Y-70579395D02*
X170513735Y-70680410D01*
X170513735Y-70680410D02*
X170513735Y-70747754D01*
X170513735Y-70747754D02*
X170480063Y-70848769D01*
X170480063Y-70848769D02*
X170311705Y-71017128D01*
X170311705Y-71017128D02*
X170210689Y-71050799D01*
X170210689Y-71050799D02*
X170143346Y-71050799D01*
X169537254Y-48796891D02*
X169537254Y-48864235D01*
X169537254Y-48864235D02*
X169469910Y-48998922D01*
X169469910Y-48998922D02*
X169402567Y-49066265D01*
X169402567Y-49066265D02*
X169267880Y-49133609D01*
X169267880Y-49133609D02*
X169133193Y-49133609D01*
X169133193Y-49133609D02*
X169032178Y-49099937D01*
X169032178Y-49099937D02*
X168863819Y-48998922D01*
X168863819Y-48998922D02*
X168762804Y-48897907D01*
X168762804Y-48897907D02*
X168661788Y-48729548D01*
X168661788Y-48729548D02*
X168628117Y-48628533D01*
X168628117Y-48628533D02*
X168628117Y-48493846D01*
X168628117Y-48493846D02*
X168695460Y-48359159D01*
X168695460Y-48359159D02*
X168762804Y-48291815D01*
X168762804Y-48291815D02*
X168897491Y-48224472D01*
X168897491Y-48224472D02*
X168964834Y-48224472D01*
X169234208Y-47955098D02*
X169234208Y-47887754D01*
X169234208Y-47887754D02*
X169267880Y-47786739D01*
X169267880Y-47786739D02*
X169436239Y-47618380D01*
X169436239Y-47618380D02*
X169537254Y-47584708D01*
X169537254Y-47584708D02*
X169604597Y-47584708D01*
X169604597Y-47584708D02*
X169705613Y-47618380D01*
X169705613Y-47618380D02*
X169772956Y-47685724D01*
X169772956Y-47685724D02*
X169840300Y-47820411D01*
X169840300Y-47820411D02*
X169840300Y-48628533D01*
X169840300Y-48628533D02*
X170278032Y-48190800D01*
X170951468Y-47517365D02*
X170547407Y-47921426D01*
X170749437Y-47719395D02*
X170042330Y-47012288D01*
X170042330Y-47012288D02*
X170076002Y-47180647D01*
X170076002Y-47180647D02*
X170076002Y-47315334D01*
X170076002Y-47315334D02*
X170042330Y-47416349D01*
X169873972Y-53032173D02*
X169873972Y-53099517D01*
X169873972Y-53099517D02*
X169806628Y-53234204D01*
X169806628Y-53234204D02*
X169739285Y-53301547D01*
X169739285Y-53301547D02*
X169604598Y-53368891D01*
X169604598Y-53368891D02*
X169469911Y-53368891D01*
X169469911Y-53368891D02*
X169368896Y-53335219D01*
X169368896Y-53335219D02*
X169200537Y-53234204D01*
X169200537Y-53234204D02*
X169099522Y-53133189D01*
X169099522Y-53133189D02*
X168998506Y-52964830D01*
X168998506Y-52964830D02*
X168964835Y-52863815D01*
X168964835Y-52863815D02*
X168964835Y-52729128D01*
X168964835Y-52729128D02*
X169032178Y-52594441D01*
X169032178Y-52594441D02*
X169099522Y-52527097D01*
X169099522Y-52527097D02*
X169234209Y-52459754D01*
X169234209Y-52459754D02*
X169301552Y-52459754D01*
X170614750Y-52426082D02*
X170210689Y-52830143D01*
X170412720Y-52628112D02*
X169705613Y-51921006D01*
X169705613Y-51921006D02*
X169739285Y-52089364D01*
X169739285Y-52089364D02*
X169739285Y-52224051D01*
X169739285Y-52224051D02*
X169705613Y-52325067D01*
X169873972Y-57604173D02*
X169873972Y-57671517D01*
X169873972Y-57671517D02*
X169806628Y-57806204D01*
X169806628Y-57806204D02*
X169739285Y-57873547D01*
X169739285Y-57873547D02*
X169604598Y-57940891D01*
X169604598Y-57940891D02*
X169469911Y-57940891D01*
X169469911Y-57940891D02*
X169368896Y-57907219D01*
X169368896Y-57907219D02*
X169200537Y-57806204D01*
X169200537Y-57806204D02*
X169099522Y-57705189D01*
X169099522Y-57705189D02*
X168998506Y-57536830D01*
X168998506Y-57536830D02*
X168964835Y-57435815D01*
X168964835Y-57435815D02*
X168964835Y-57301128D01*
X168964835Y-57301128D02*
X169032178Y-57166441D01*
X169032178Y-57166441D02*
X169099522Y-57099097D01*
X169099522Y-57099097D02*
X169234209Y-57031754D01*
X169234209Y-57031754D02*
X169301552Y-57031754D01*
X169570926Y-56762380D02*
X169570926Y-56695036D01*
X169570926Y-56695036D02*
X169604598Y-56594021D01*
X169604598Y-56594021D02*
X169772957Y-56425662D01*
X169772957Y-56425662D02*
X169873972Y-56391990D01*
X169873972Y-56391990D02*
X169941315Y-56391990D01*
X169941315Y-56391990D02*
X170042331Y-56425662D01*
X170042331Y-56425662D02*
X170109674Y-56493006D01*
X170109674Y-56493006D02*
X170177018Y-56627693D01*
X170177018Y-56627693D02*
X170177018Y-57435815D01*
X170177018Y-57435815D02*
X170614750Y-56998082D01*
X169873972Y-62176173D02*
X169873972Y-62243517D01*
X169873972Y-62243517D02*
X169806628Y-62378204D01*
X169806628Y-62378204D02*
X169739285Y-62445547D01*
X169739285Y-62445547D02*
X169604598Y-62512891D01*
X169604598Y-62512891D02*
X169469911Y-62512891D01*
X169469911Y-62512891D02*
X169368896Y-62479219D01*
X169368896Y-62479219D02*
X169200537Y-62378204D01*
X169200537Y-62378204D02*
X169099522Y-62277189D01*
X169099522Y-62277189D02*
X168998506Y-62108830D01*
X168998506Y-62108830D02*
X168964835Y-62007815D01*
X168964835Y-62007815D02*
X168964835Y-61873128D01*
X168964835Y-61873128D02*
X169032178Y-61738441D01*
X169032178Y-61738441D02*
X169099522Y-61671097D01*
X169099522Y-61671097D02*
X169234209Y-61603754D01*
X169234209Y-61603754D02*
X169301552Y-61603754D01*
X169469911Y-61300708D02*
X169907644Y-60862975D01*
X169907644Y-60862975D02*
X169941315Y-61368051D01*
X169941315Y-61368051D02*
X170042331Y-61267036D01*
X170042331Y-61267036D02*
X170143346Y-61233364D01*
X170143346Y-61233364D02*
X170210689Y-61233364D01*
X170210689Y-61233364D02*
X170311705Y-61267036D01*
X170311705Y-61267036D02*
X170480063Y-61435395D01*
X170480063Y-61435395D02*
X170513735Y-61536410D01*
X170513735Y-61536410D02*
X170513735Y-61603754D01*
X170513735Y-61603754D02*
X170480063Y-61704769D01*
X170480063Y-61704769D02*
X170278033Y-61906799D01*
X170278033Y-61906799D02*
X170177018Y-61940471D01*
X170177018Y-61940471D02*
X170109674Y-61940471D01*
X169895472Y-66748173D02*
X169895472Y-66815517D01*
X169895472Y-66815517D02*
X169828128Y-66950204D01*
X169828128Y-66950204D02*
X169760785Y-67017547D01*
X169760785Y-67017547D02*
X169626098Y-67084891D01*
X169626098Y-67084891D02*
X169491411Y-67084891D01*
X169491411Y-67084891D02*
X169390396Y-67051219D01*
X169390396Y-67051219D02*
X169222037Y-66950204D01*
X169222037Y-66950204D02*
X169121022Y-66849189D01*
X169121022Y-66849189D02*
X169020006Y-66680830D01*
X169020006Y-66680830D02*
X168986335Y-66579815D01*
X168986335Y-66579815D02*
X168986335Y-66445128D01*
X168986335Y-66445128D02*
X169053678Y-66310441D01*
X169053678Y-66310441D02*
X169121022Y-66243097D01*
X169121022Y-66243097D02*
X169255709Y-66175754D01*
X169255709Y-66175754D02*
X169323052Y-66175754D01*
X170097502Y-65738021D02*
X170568907Y-66209425D01*
X169659770Y-65637006D02*
X169996487Y-66310441D01*
X169996487Y-66310441D02*
X170434220Y-65872708D01*
X169895472Y-75892173D02*
X169895472Y-75959517D01*
X169895472Y-75959517D02*
X169828128Y-76094204D01*
X169828128Y-76094204D02*
X169760785Y-76161547D01*
X169760785Y-76161547D02*
X169626098Y-76228891D01*
X169626098Y-76228891D02*
X169491411Y-76228891D01*
X169491411Y-76228891D02*
X169390396Y-76195219D01*
X169390396Y-76195219D02*
X169222037Y-76094204D01*
X169222037Y-76094204D02*
X169121022Y-75993189D01*
X169121022Y-75993189D02*
X169020006Y-75824830D01*
X169020006Y-75824830D02*
X168986335Y-75723815D01*
X168986335Y-75723815D02*
X168986335Y-75589128D01*
X168986335Y-75589128D02*
X169053678Y-75454441D01*
X169053678Y-75454441D02*
X169121022Y-75387097D01*
X169121022Y-75387097D02*
X169255709Y-75319754D01*
X169255709Y-75319754D02*
X169323052Y-75319754D01*
X169861800Y-74646319D02*
X169727113Y-74781006D01*
X169727113Y-74781006D02*
X169693441Y-74882021D01*
X169693441Y-74882021D02*
X169693441Y-74949364D01*
X169693441Y-74949364D02*
X169727113Y-75117723D01*
X169727113Y-75117723D02*
X169828128Y-75286082D01*
X169828128Y-75286082D02*
X170097502Y-75555456D01*
X170097502Y-75555456D02*
X170198518Y-75589128D01*
X170198518Y-75589128D02*
X170265861Y-75589128D01*
X170265861Y-75589128D02*
X170366876Y-75555456D01*
X170366876Y-75555456D02*
X170501563Y-75420769D01*
X170501563Y-75420769D02*
X170535235Y-75319754D01*
X170535235Y-75319754D02*
X170535235Y-75252410D01*
X170535235Y-75252410D02*
X170501563Y-75151395D01*
X170501563Y-75151395D02*
X170333205Y-74983036D01*
X170333205Y-74983036D02*
X170232189Y-74949364D01*
X170232189Y-74949364D02*
X170164846Y-74949364D01*
X170164846Y-74949364D02*
X170063831Y-74983036D01*
X170063831Y-74983036D02*
X169929144Y-75117723D01*
X169929144Y-75117723D02*
X169895472Y-75218738D01*
X169895472Y-75218738D02*
X169895472Y-75286082D01*
X169895472Y-75286082D02*
X169929144Y-75387097D01*
X169895472Y-80464173D02*
X169895472Y-80531517D01*
X169895472Y-80531517D02*
X169828128Y-80666204D01*
X169828128Y-80666204D02*
X169760785Y-80733547D01*
X169760785Y-80733547D02*
X169626098Y-80800891D01*
X169626098Y-80800891D02*
X169491411Y-80800891D01*
X169491411Y-80800891D02*
X169390396Y-80767219D01*
X169390396Y-80767219D02*
X169222037Y-80666204D01*
X169222037Y-80666204D02*
X169121022Y-80565189D01*
X169121022Y-80565189D02*
X169020006Y-80396830D01*
X169020006Y-80396830D02*
X168986335Y-80295815D01*
X168986335Y-80295815D02*
X168986335Y-80161128D01*
X168986335Y-80161128D02*
X169053678Y-80026441D01*
X169053678Y-80026441D02*
X169121022Y-79959097D01*
X169121022Y-79959097D02*
X169255709Y-79891754D01*
X169255709Y-79891754D02*
X169323052Y-79891754D01*
X169491411Y-79588708D02*
X169962815Y-79117303D01*
X169962815Y-79117303D02*
X170366876Y-80127456D01*
X173808819Y-44616666D02*
X173332628Y-44949999D01*
X173808819Y-45188094D02*
X172808819Y-45188094D01*
X172808819Y-45188094D02*
X172808819Y-44807142D01*
X172808819Y-44807142D02*
X172856438Y-44711904D01*
X172856438Y-44711904D02*
X172904057Y-44664285D01*
X172904057Y-44664285D02*
X172999295Y-44616666D01*
X172999295Y-44616666D02*
X173142152Y-44616666D01*
X173142152Y-44616666D02*
X173237390Y-44664285D01*
X173237390Y-44664285D02*
X173285009Y-44711904D01*
X173285009Y-44711904D02*
X173332628Y-44807142D01*
X173332628Y-44807142D02*
X173332628Y-45188094D01*
X173808819Y-43664285D02*
X173808819Y-44235713D01*
X173808819Y-43949999D02*
X172808819Y-43949999D01*
X172808819Y-43949999D02*
X172951676Y-44045237D01*
X172951676Y-44045237D02*
X173046914Y-44140475D01*
X173046914Y-44140475D02*
X173094533Y-44235713D01*
X175908142Y-78828819D02*
X175574809Y-78352628D01*
X175336714Y-78828819D02*
X175336714Y-77828819D01*
X175336714Y-77828819D02*
X175717666Y-77828819D01*
X175717666Y-77828819D02*
X175812904Y-77876438D01*
X175812904Y-77876438D02*
X175860523Y-77924057D01*
X175860523Y-77924057D02*
X175908142Y-78019295D01*
X175908142Y-78019295D02*
X175908142Y-78162152D01*
X175908142Y-78162152D02*
X175860523Y-78257390D01*
X175860523Y-78257390D02*
X175812904Y-78305009D01*
X175812904Y-78305009D02*
X175717666Y-78352628D01*
X175717666Y-78352628D02*
X175336714Y-78352628D01*
X176860523Y-78828819D02*
X176289095Y-78828819D01*
X176574809Y-78828819D02*
X176574809Y-77828819D01*
X176574809Y-77828819D02*
X176479571Y-77971676D01*
X176479571Y-77971676D02*
X176384333Y-78066914D01*
X176384333Y-78066914D02*
X176289095Y-78114533D01*
X177193857Y-77828819D02*
X177812904Y-77828819D01*
X177812904Y-77828819D02*
X177479571Y-78209771D01*
X177479571Y-78209771D02*
X177622428Y-78209771D01*
X177622428Y-78209771D02*
X177717666Y-78257390D01*
X177717666Y-78257390D02*
X177765285Y-78305009D01*
X177765285Y-78305009D02*
X177812904Y-78400247D01*
X177812904Y-78400247D02*
X177812904Y-78638342D01*
X177812904Y-78638342D02*
X177765285Y-78733580D01*
X177765285Y-78733580D02*
X177717666Y-78781200D01*
X177717666Y-78781200D02*
X177622428Y-78828819D01*
X177622428Y-78828819D02*
X177336714Y-78828819D01*
X177336714Y-78828819D02*
X177241476Y-78781200D01*
X177241476Y-78781200D02*
X177193857Y-78733580D01*
X186217009Y-87859999D02*
X186264628Y-87717142D01*
X186264628Y-87717142D02*
X186312247Y-87669523D01*
X186312247Y-87669523D02*
X186407485Y-87621904D01*
X186407485Y-87621904D02*
X186550342Y-87621904D01*
X186550342Y-87621904D02*
X186645580Y-87669523D01*
X186645580Y-87669523D02*
X186693200Y-87717142D01*
X186693200Y-87717142D02*
X186740819Y-87812380D01*
X186740819Y-87812380D02*
X186740819Y-88193332D01*
X186740819Y-88193332D02*
X185740819Y-88193332D01*
X185740819Y-88193332D02*
X185740819Y-87859999D01*
X185740819Y-87859999D02*
X185788438Y-87764761D01*
X185788438Y-87764761D02*
X185836057Y-87717142D01*
X185836057Y-87717142D02*
X185931295Y-87669523D01*
X185931295Y-87669523D02*
X186026533Y-87669523D01*
X186026533Y-87669523D02*
X186121771Y-87717142D01*
X186121771Y-87717142D02*
X186169390Y-87764761D01*
X186169390Y-87764761D02*
X186217009Y-87859999D01*
X186217009Y-87859999D02*
X186217009Y-88193332D01*
X186740819Y-87193332D02*
X186074152Y-87193332D01*
X185740819Y-87193332D02*
X185788438Y-87240951D01*
X185788438Y-87240951D02*
X185836057Y-87193332D01*
X185836057Y-87193332D02*
X185788438Y-87145713D01*
X185788438Y-87145713D02*
X185740819Y-87193332D01*
X185740819Y-87193332D02*
X185836057Y-87193332D01*
X186740819Y-86288571D02*
X186217009Y-86288571D01*
X186217009Y-86288571D02*
X186121771Y-86336190D01*
X186121771Y-86336190D02*
X186074152Y-86431428D01*
X186074152Y-86431428D02*
X186074152Y-86621904D01*
X186074152Y-86621904D02*
X186121771Y-86717142D01*
X186693200Y-86288571D02*
X186740819Y-86383809D01*
X186740819Y-86383809D02*
X186740819Y-86621904D01*
X186740819Y-86621904D02*
X186693200Y-86717142D01*
X186693200Y-86717142D02*
X186597961Y-86764761D01*
X186597961Y-86764761D02*
X186502723Y-86764761D01*
X186502723Y-86764761D02*
X186407485Y-86717142D01*
X186407485Y-86717142D02*
X186359866Y-86621904D01*
X186359866Y-86621904D02*
X186359866Y-86383809D01*
X186359866Y-86383809D02*
X186312247Y-86288571D01*
X186693200Y-85859999D02*
X186740819Y-85764761D01*
X186740819Y-85764761D02*
X186740819Y-85574285D01*
X186740819Y-85574285D02*
X186693200Y-85479047D01*
X186693200Y-85479047D02*
X186597961Y-85431428D01*
X186597961Y-85431428D02*
X186550342Y-85431428D01*
X186550342Y-85431428D02*
X186455104Y-85479047D01*
X186455104Y-85479047D02*
X186407485Y-85574285D01*
X186407485Y-85574285D02*
X186407485Y-85717142D01*
X186407485Y-85717142D02*
X186359866Y-85812380D01*
X186359866Y-85812380D02*
X186264628Y-85859999D01*
X186264628Y-85859999D02*
X186217009Y-85859999D01*
X186217009Y-85859999D02*
X186121771Y-85812380D01*
X186121771Y-85812380D02*
X186074152Y-85717142D01*
X186074152Y-85717142D02*
X186074152Y-85574285D01*
X186074152Y-85574285D02*
X186121771Y-85479047D01*
X186740819Y-84479047D02*
X186740819Y-85050475D01*
X186740819Y-84764761D02*
X185740819Y-84764761D01*
X185740819Y-84764761D02*
X185883676Y-84859999D01*
X185883676Y-84859999D02*
X185978914Y-84955237D01*
X185978914Y-84955237D02*
X186026533Y-85050475D01*
X185989819Y-82589523D02*
X186704104Y-82589523D01*
X186704104Y-82589523D02*
X186846961Y-82637142D01*
X186846961Y-82637142D02*
X186942200Y-82732380D01*
X186942200Y-82732380D02*
X186989819Y-82875237D01*
X186989819Y-82875237D02*
X186989819Y-82970475D01*
X186989819Y-82113332D02*
X185989819Y-82113332D01*
X185989819Y-82113332D02*
X185989819Y-81732380D01*
X185989819Y-81732380D02*
X186037438Y-81637142D01*
X186037438Y-81637142D02*
X186085057Y-81589523D01*
X186085057Y-81589523D02*
X186180295Y-81541904D01*
X186180295Y-81541904D02*
X186323152Y-81541904D01*
X186323152Y-81541904D02*
X186418390Y-81589523D01*
X186418390Y-81589523D02*
X186466009Y-81637142D01*
X186466009Y-81637142D02*
X186513628Y-81732380D01*
X186513628Y-81732380D02*
X186513628Y-82113332D01*
X186989819Y-80589523D02*
X186989819Y-81160951D01*
X186989819Y-80875237D02*
X185989819Y-80875237D01*
X185989819Y-80875237D02*
X186132676Y-80970475D01*
X186132676Y-80970475D02*
X186227914Y-81065713D01*
X186227914Y-81065713D02*
X186275533Y-81160951D01*
X186989819Y-79637142D02*
X186989819Y-80208570D01*
X186989819Y-79922856D02*
X185989819Y-79922856D01*
X185989819Y-79922856D02*
X186132676Y-80018094D01*
X186132676Y-80018094D02*
X186227914Y-80113332D01*
X186227914Y-80113332D02*
X186275533Y-80208570D01*
X186100819Y-54681333D02*
X186815104Y-54681333D01*
X186815104Y-54681333D02*
X186957961Y-54728952D01*
X186957961Y-54728952D02*
X187053200Y-54824190D01*
X187053200Y-54824190D02*
X187100819Y-54967047D01*
X187100819Y-54967047D02*
X187100819Y-55062285D01*
X187100819Y-54205142D02*
X186100819Y-54205142D01*
X186100819Y-54205142D02*
X186100819Y-53824190D01*
X186100819Y-53824190D02*
X186148438Y-53728952D01*
X186148438Y-53728952D02*
X186196057Y-53681333D01*
X186196057Y-53681333D02*
X186291295Y-53633714D01*
X186291295Y-53633714D02*
X186434152Y-53633714D01*
X186434152Y-53633714D02*
X186529390Y-53681333D01*
X186529390Y-53681333D02*
X186577009Y-53728952D01*
X186577009Y-53728952D02*
X186624628Y-53824190D01*
X186624628Y-53824190D02*
X186624628Y-54205142D01*
X186100819Y-52776571D02*
X186100819Y-52967047D01*
X186100819Y-52967047D02*
X186148438Y-53062285D01*
X186148438Y-53062285D02*
X186196057Y-53109904D01*
X186196057Y-53109904D02*
X186338914Y-53205142D01*
X186338914Y-53205142D02*
X186529390Y-53252761D01*
X186529390Y-53252761D02*
X186910342Y-53252761D01*
X186910342Y-53252761D02*
X187005580Y-53205142D01*
X187005580Y-53205142D02*
X187053200Y-53157523D01*
X187053200Y-53157523D02*
X187100819Y-53062285D01*
X187100819Y-53062285D02*
X187100819Y-52871809D01*
X187100819Y-52871809D02*
X187053200Y-52776571D01*
X187053200Y-52776571D02*
X187005580Y-52728952D01*
X187005580Y-52728952D02*
X186910342Y-52681333D01*
X186910342Y-52681333D02*
X186672247Y-52681333D01*
X186672247Y-52681333D02*
X186577009Y-52728952D01*
X186577009Y-52728952D02*
X186529390Y-52776571D01*
X186529390Y-52776571D02*
X186481771Y-52871809D01*
X186481771Y-52871809D02*
X186481771Y-53062285D01*
X186481771Y-53062285D02*
X186529390Y-53157523D01*
X186529390Y-53157523D02*
X186577009Y-53205142D01*
X186577009Y-53205142D02*
X186672247Y-53252761D01*
X186248819Y-45029333D02*
X186963104Y-45029333D01*
X186963104Y-45029333D02*
X187105961Y-45076952D01*
X187105961Y-45076952D02*
X187201200Y-45172190D01*
X187201200Y-45172190D02*
X187248819Y-45315047D01*
X187248819Y-45315047D02*
X187248819Y-45410285D01*
X187248819Y-44553142D02*
X186248819Y-44553142D01*
X186248819Y-44553142D02*
X186248819Y-44172190D01*
X186248819Y-44172190D02*
X186296438Y-44076952D01*
X186296438Y-44076952D02*
X186344057Y-44029333D01*
X186344057Y-44029333D02*
X186439295Y-43981714D01*
X186439295Y-43981714D02*
X186582152Y-43981714D01*
X186582152Y-43981714D02*
X186677390Y-44029333D01*
X186677390Y-44029333D02*
X186725009Y-44076952D01*
X186725009Y-44076952D02*
X186772628Y-44172190D01*
X186772628Y-44172190D02*
X186772628Y-44553142D01*
X187248819Y-43505523D02*
X187248819Y-43315047D01*
X187248819Y-43315047D02*
X187201200Y-43219809D01*
X187201200Y-43219809D02*
X187153580Y-43172190D01*
X187153580Y-43172190D02*
X187010723Y-43076952D01*
X187010723Y-43076952D02*
X186820247Y-43029333D01*
X186820247Y-43029333D02*
X186439295Y-43029333D01*
X186439295Y-43029333D02*
X186344057Y-43076952D01*
X186344057Y-43076952D02*
X186296438Y-43124571D01*
X186296438Y-43124571D02*
X186248819Y-43219809D01*
X186248819Y-43219809D02*
X186248819Y-43410285D01*
X186248819Y-43410285D02*
X186296438Y-43505523D01*
X186296438Y-43505523D02*
X186344057Y-43553142D01*
X186344057Y-43553142D02*
X186439295Y-43600761D01*
X186439295Y-43600761D02*
X186677390Y-43600761D01*
X186677390Y-43600761D02*
X186772628Y-43553142D01*
X186772628Y-43553142D02*
X186820247Y-43505523D01*
X186820247Y-43505523D02*
X186867866Y-43410285D01*
X186867866Y-43410285D02*
X186867866Y-43219809D01*
X186867866Y-43219809D02*
X186820247Y-43124571D01*
X186820247Y-43124571D02*
X186772628Y-43076952D01*
X186772628Y-43076952D02*
X186677390Y-43029333D01*
X186100819Y-50045833D02*
X186815104Y-50045833D01*
X186815104Y-50045833D02*
X186957961Y-50093452D01*
X186957961Y-50093452D02*
X187053200Y-50188690D01*
X187053200Y-50188690D02*
X187100819Y-50331547D01*
X187100819Y-50331547D02*
X187100819Y-50426785D01*
X187100819Y-49569642D02*
X186100819Y-49569642D01*
X186100819Y-49569642D02*
X186100819Y-49188690D01*
X186100819Y-49188690D02*
X186148438Y-49093452D01*
X186148438Y-49093452D02*
X186196057Y-49045833D01*
X186196057Y-49045833D02*
X186291295Y-48998214D01*
X186291295Y-48998214D02*
X186434152Y-48998214D01*
X186434152Y-48998214D02*
X186529390Y-49045833D01*
X186529390Y-49045833D02*
X186577009Y-49093452D01*
X186577009Y-49093452D02*
X186624628Y-49188690D01*
X186624628Y-49188690D02*
X186624628Y-49569642D01*
X186529390Y-48426785D02*
X186481771Y-48522023D01*
X186481771Y-48522023D02*
X186434152Y-48569642D01*
X186434152Y-48569642D02*
X186338914Y-48617261D01*
X186338914Y-48617261D02*
X186291295Y-48617261D01*
X186291295Y-48617261D02*
X186196057Y-48569642D01*
X186196057Y-48569642D02*
X186148438Y-48522023D01*
X186148438Y-48522023D02*
X186100819Y-48426785D01*
X186100819Y-48426785D02*
X186100819Y-48236309D01*
X186100819Y-48236309D02*
X186148438Y-48141071D01*
X186148438Y-48141071D02*
X186196057Y-48093452D01*
X186196057Y-48093452D02*
X186291295Y-48045833D01*
X186291295Y-48045833D02*
X186338914Y-48045833D01*
X186338914Y-48045833D02*
X186434152Y-48093452D01*
X186434152Y-48093452D02*
X186481771Y-48141071D01*
X186481771Y-48141071D02*
X186529390Y-48236309D01*
X186529390Y-48236309D02*
X186529390Y-48426785D01*
X186529390Y-48426785D02*
X186577009Y-48522023D01*
X186577009Y-48522023D02*
X186624628Y-48569642D01*
X186624628Y-48569642D02*
X186719866Y-48617261D01*
X186719866Y-48617261D02*
X186910342Y-48617261D01*
X186910342Y-48617261D02*
X187005580Y-48569642D01*
X187005580Y-48569642D02*
X187053200Y-48522023D01*
X187053200Y-48522023D02*
X187100819Y-48426785D01*
X187100819Y-48426785D02*
X187100819Y-48236309D01*
X187100819Y-48236309D02*
X187053200Y-48141071D01*
X187053200Y-48141071D02*
X187005580Y-48093452D01*
X187005580Y-48093452D02*
X186910342Y-48045833D01*
X186910342Y-48045833D02*
X186719866Y-48045833D01*
X186719866Y-48045833D02*
X186624628Y-48093452D01*
X186624628Y-48093452D02*
X186577009Y-48141071D01*
X186577009Y-48141071D02*
X186529390Y-48236309D01*
X185994819Y-73445523D02*
X186709104Y-73445523D01*
X186709104Y-73445523D02*
X186851961Y-73493142D01*
X186851961Y-73493142D02*
X186947200Y-73588380D01*
X186947200Y-73588380D02*
X186994819Y-73731237D01*
X186994819Y-73731237D02*
X186994819Y-73826475D01*
X186994819Y-72969332D02*
X185994819Y-72969332D01*
X185994819Y-72969332D02*
X185994819Y-72588380D01*
X185994819Y-72588380D02*
X186042438Y-72493142D01*
X186042438Y-72493142D02*
X186090057Y-72445523D01*
X186090057Y-72445523D02*
X186185295Y-72397904D01*
X186185295Y-72397904D02*
X186328152Y-72397904D01*
X186328152Y-72397904D02*
X186423390Y-72445523D01*
X186423390Y-72445523D02*
X186471009Y-72493142D01*
X186471009Y-72493142D02*
X186518628Y-72588380D01*
X186518628Y-72588380D02*
X186518628Y-72969332D01*
X186994819Y-71445523D02*
X186994819Y-72016951D01*
X186994819Y-71731237D02*
X185994819Y-71731237D01*
X185994819Y-71731237D02*
X186137676Y-71826475D01*
X186137676Y-71826475D02*
X186232914Y-71921713D01*
X186232914Y-71921713D02*
X186280533Y-72016951D01*
X185994819Y-70540761D02*
X185994819Y-71016951D01*
X185994819Y-71016951D02*
X186471009Y-71064570D01*
X186471009Y-71064570D02*
X186423390Y-71016951D01*
X186423390Y-71016951D02*
X186375771Y-70921713D01*
X186375771Y-70921713D02*
X186375771Y-70683618D01*
X186375771Y-70683618D02*
X186423390Y-70588380D01*
X186423390Y-70588380D02*
X186471009Y-70540761D01*
X186471009Y-70540761D02*
X186566247Y-70493142D01*
X186566247Y-70493142D02*
X186804342Y-70493142D01*
X186804342Y-70493142D02*
X186899580Y-70540761D01*
X186899580Y-70540761D02*
X186947200Y-70588380D01*
X186947200Y-70588380D02*
X186994819Y-70683618D01*
X186994819Y-70683618D02*
X186994819Y-70921713D01*
X186994819Y-70921713D02*
X186947200Y-71016951D01*
X186947200Y-71016951D02*
X186899580Y-71064570D01*
X185989819Y-63825333D02*
X186704104Y-63825333D01*
X186704104Y-63825333D02*
X186846961Y-63872952D01*
X186846961Y-63872952D02*
X186942200Y-63968190D01*
X186942200Y-63968190D02*
X186989819Y-64111047D01*
X186989819Y-64111047D02*
X186989819Y-64206285D01*
X186989819Y-63349142D02*
X185989819Y-63349142D01*
X185989819Y-63349142D02*
X185989819Y-62968190D01*
X185989819Y-62968190D02*
X186037438Y-62872952D01*
X186037438Y-62872952D02*
X186085057Y-62825333D01*
X186085057Y-62825333D02*
X186180295Y-62777714D01*
X186180295Y-62777714D02*
X186323152Y-62777714D01*
X186323152Y-62777714D02*
X186418390Y-62825333D01*
X186418390Y-62825333D02*
X186466009Y-62872952D01*
X186466009Y-62872952D02*
X186513628Y-62968190D01*
X186513628Y-62968190D02*
X186513628Y-63349142D01*
X186989819Y-61825333D02*
X186989819Y-62396761D01*
X186989819Y-62111047D02*
X185989819Y-62111047D01*
X185989819Y-62111047D02*
X186132676Y-62206285D01*
X186132676Y-62206285D02*
X186227914Y-62301523D01*
X186227914Y-62301523D02*
X186275533Y-62396761D01*
X175908142Y-83400819D02*
X175574809Y-82924628D01*
X175336714Y-83400819D02*
X175336714Y-82400819D01*
X175336714Y-82400819D02*
X175717666Y-82400819D01*
X175717666Y-82400819D02*
X175812904Y-82448438D01*
X175812904Y-82448438D02*
X175860523Y-82496057D01*
X175860523Y-82496057D02*
X175908142Y-82591295D01*
X175908142Y-82591295D02*
X175908142Y-82734152D01*
X175908142Y-82734152D02*
X175860523Y-82829390D01*
X175860523Y-82829390D02*
X175812904Y-82877009D01*
X175812904Y-82877009D02*
X175717666Y-82924628D01*
X175717666Y-82924628D02*
X175336714Y-82924628D01*
X176860523Y-83400819D02*
X176289095Y-83400819D01*
X176574809Y-83400819D02*
X176574809Y-82400819D01*
X176574809Y-82400819D02*
X176479571Y-82543676D01*
X176479571Y-82543676D02*
X176384333Y-82638914D01*
X176384333Y-82638914D02*
X176289095Y-82686533D01*
X177812904Y-83400819D02*
X177241476Y-83400819D01*
X177527190Y-83400819D02*
X177527190Y-82400819D01*
X177527190Y-82400819D02*
X177431952Y-82543676D01*
X177431952Y-82543676D02*
X177336714Y-82638914D01*
X177336714Y-82638914D02*
X177241476Y-82686533D01*
X176003142Y-51317319D02*
X175669809Y-50841128D01*
X175431714Y-51317319D02*
X175431714Y-50317319D01*
X175431714Y-50317319D02*
X175812666Y-50317319D01*
X175812666Y-50317319D02*
X175907904Y-50364938D01*
X175907904Y-50364938D02*
X175955523Y-50412557D01*
X175955523Y-50412557D02*
X176003142Y-50507795D01*
X176003142Y-50507795D02*
X176003142Y-50650652D01*
X176003142Y-50650652D02*
X175955523Y-50745890D01*
X175955523Y-50745890D02*
X175907904Y-50793509D01*
X175907904Y-50793509D02*
X175812666Y-50841128D01*
X175812666Y-50841128D02*
X175431714Y-50841128D01*
X176384095Y-50412557D02*
X176431714Y-50364938D01*
X176431714Y-50364938D02*
X176526952Y-50317319D01*
X176526952Y-50317319D02*
X176765047Y-50317319D01*
X176765047Y-50317319D02*
X176860285Y-50364938D01*
X176860285Y-50364938D02*
X176907904Y-50412557D01*
X176907904Y-50412557D02*
X176955523Y-50507795D01*
X176955523Y-50507795D02*
X176955523Y-50603033D01*
X176955523Y-50603033D02*
X176907904Y-50745890D01*
X176907904Y-50745890D02*
X176336476Y-51317319D01*
X176336476Y-51317319D02*
X176955523Y-51317319D01*
X177812666Y-50650652D02*
X177812666Y-51317319D01*
X177574571Y-50269700D02*
X177336476Y-50983985D01*
X177336476Y-50983985D02*
X177955523Y-50983985D01*
X185989819Y-68873523D02*
X186704104Y-68873523D01*
X186704104Y-68873523D02*
X186846961Y-68921142D01*
X186846961Y-68921142D02*
X186942200Y-69016380D01*
X186942200Y-69016380D02*
X186989819Y-69159237D01*
X186989819Y-69159237D02*
X186989819Y-69254475D01*
X186989819Y-68397332D02*
X185989819Y-68397332D01*
X185989819Y-68397332D02*
X185989819Y-68016380D01*
X185989819Y-68016380D02*
X186037438Y-67921142D01*
X186037438Y-67921142D02*
X186085057Y-67873523D01*
X186085057Y-67873523D02*
X186180295Y-67825904D01*
X186180295Y-67825904D02*
X186323152Y-67825904D01*
X186323152Y-67825904D02*
X186418390Y-67873523D01*
X186418390Y-67873523D02*
X186466009Y-67921142D01*
X186466009Y-67921142D02*
X186513628Y-68016380D01*
X186513628Y-68016380D02*
X186513628Y-68397332D01*
X186989819Y-66873523D02*
X186989819Y-67444951D01*
X186989819Y-67159237D02*
X185989819Y-67159237D01*
X185989819Y-67159237D02*
X186132676Y-67254475D01*
X186132676Y-67254475D02*
X186227914Y-67349713D01*
X186227914Y-67349713D02*
X186275533Y-67444951D01*
X185989819Y-66540189D02*
X185989819Y-65873523D01*
X185989819Y-65873523D02*
X186989819Y-66302094D01*
X175987142Y-55952819D02*
X175653809Y-55476628D01*
X175415714Y-55952819D02*
X175415714Y-54952819D01*
X175415714Y-54952819D02*
X175796666Y-54952819D01*
X175796666Y-54952819D02*
X175891904Y-55000438D01*
X175891904Y-55000438D02*
X175939523Y-55048057D01*
X175939523Y-55048057D02*
X175987142Y-55143295D01*
X175987142Y-55143295D02*
X175987142Y-55286152D01*
X175987142Y-55286152D02*
X175939523Y-55381390D01*
X175939523Y-55381390D02*
X175891904Y-55429009D01*
X175891904Y-55429009D02*
X175796666Y-55476628D01*
X175796666Y-55476628D02*
X175415714Y-55476628D01*
X176368095Y-55048057D02*
X176415714Y-55000438D01*
X176415714Y-55000438D02*
X176510952Y-54952819D01*
X176510952Y-54952819D02*
X176749047Y-54952819D01*
X176749047Y-54952819D02*
X176844285Y-55000438D01*
X176844285Y-55000438D02*
X176891904Y-55048057D01*
X176891904Y-55048057D02*
X176939523Y-55143295D01*
X176939523Y-55143295D02*
X176939523Y-55238533D01*
X176939523Y-55238533D02*
X176891904Y-55381390D01*
X176891904Y-55381390D02*
X176320476Y-55952819D01*
X176320476Y-55952819D02*
X176939523Y-55952819D01*
X177320476Y-55048057D02*
X177368095Y-55000438D01*
X177368095Y-55000438D02*
X177463333Y-54952819D01*
X177463333Y-54952819D02*
X177701428Y-54952819D01*
X177701428Y-54952819D02*
X177796666Y-55000438D01*
X177796666Y-55000438D02*
X177844285Y-55048057D01*
X177844285Y-55048057D02*
X177891904Y-55143295D01*
X177891904Y-55143295D02*
X177891904Y-55238533D01*
X177891904Y-55238533D02*
X177844285Y-55381390D01*
X177844285Y-55381390D02*
X177272857Y-55952819D01*
X177272857Y-55952819D02*
X177891904Y-55952819D01*
X186100819Y-59253333D02*
X186815104Y-59253333D01*
X186815104Y-59253333D02*
X186957961Y-59300952D01*
X186957961Y-59300952D02*
X187053200Y-59396190D01*
X187053200Y-59396190D02*
X187100819Y-59539047D01*
X187100819Y-59539047D02*
X187100819Y-59634285D01*
X187100819Y-58777142D02*
X186100819Y-58777142D01*
X186100819Y-58777142D02*
X186100819Y-58396190D01*
X186100819Y-58396190D02*
X186148438Y-58300952D01*
X186148438Y-58300952D02*
X186196057Y-58253333D01*
X186196057Y-58253333D02*
X186291295Y-58205714D01*
X186291295Y-58205714D02*
X186434152Y-58205714D01*
X186434152Y-58205714D02*
X186529390Y-58253333D01*
X186529390Y-58253333D02*
X186577009Y-58300952D01*
X186577009Y-58300952D02*
X186624628Y-58396190D01*
X186624628Y-58396190D02*
X186624628Y-58777142D01*
X186434152Y-57348571D02*
X187100819Y-57348571D01*
X186053200Y-57586666D02*
X186767485Y-57824761D01*
X186767485Y-57824761D02*
X186767485Y-57205714D01*
X175923142Y-69668819D02*
X175589809Y-69192628D01*
X175351714Y-69668819D02*
X175351714Y-68668819D01*
X175351714Y-68668819D02*
X175732666Y-68668819D01*
X175732666Y-68668819D02*
X175827904Y-68716438D01*
X175827904Y-68716438D02*
X175875523Y-68764057D01*
X175875523Y-68764057D02*
X175923142Y-68859295D01*
X175923142Y-68859295D02*
X175923142Y-69002152D01*
X175923142Y-69002152D02*
X175875523Y-69097390D01*
X175875523Y-69097390D02*
X175827904Y-69145009D01*
X175827904Y-69145009D02*
X175732666Y-69192628D01*
X175732666Y-69192628D02*
X175351714Y-69192628D01*
X176304095Y-68764057D02*
X176351714Y-68716438D01*
X176351714Y-68716438D02*
X176446952Y-68668819D01*
X176446952Y-68668819D02*
X176685047Y-68668819D01*
X176685047Y-68668819D02*
X176780285Y-68716438D01*
X176780285Y-68716438D02*
X176827904Y-68764057D01*
X176827904Y-68764057D02*
X176875523Y-68859295D01*
X176875523Y-68859295D02*
X176875523Y-68954533D01*
X176875523Y-68954533D02*
X176827904Y-69097390D01*
X176827904Y-69097390D02*
X176256476Y-69668819D01*
X176256476Y-69668819D02*
X176875523Y-69668819D01*
X177351714Y-69668819D02*
X177542190Y-69668819D01*
X177542190Y-69668819D02*
X177637428Y-69621200D01*
X177637428Y-69621200D02*
X177685047Y-69573580D01*
X177685047Y-69573580D02*
X177780285Y-69430723D01*
X177780285Y-69430723D02*
X177827904Y-69240247D01*
X177827904Y-69240247D02*
X177827904Y-68859295D01*
X177827904Y-68859295D02*
X177780285Y-68764057D01*
X177780285Y-68764057D02*
X177732666Y-68716438D01*
X177732666Y-68716438D02*
X177637428Y-68668819D01*
X177637428Y-68668819D02*
X177446952Y-68668819D01*
X177446952Y-68668819D02*
X177351714Y-68716438D01*
X177351714Y-68716438D02*
X177304095Y-68764057D01*
X177304095Y-68764057D02*
X177256476Y-68859295D01*
X177256476Y-68859295D02*
X177256476Y-69097390D01*
X177256476Y-69097390D02*
X177304095Y-69192628D01*
X177304095Y-69192628D02*
X177351714Y-69240247D01*
X177351714Y-69240247D02*
X177446952Y-69287866D01*
X177446952Y-69287866D02*
X177637428Y-69287866D01*
X177637428Y-69287866D02*
X177732666Y-69240247D01*
X177732666Y-69240247D02*
X177780285Y-69192628D01*
X177780285Y-69192628D02*
X177827904Y-69097390D01*
X175908142Y-74256819D02*
X175574809Y-73780628D01*
X175336714Y-74256819D02*
X175336714Y-73256819D01*
X175336714Y-73256819D02*
X175717666Y-73256819D01*
X175717666Y-73256819D02*
X175812904Y-73304438D01*
X175812904Y-73304438D02*
X175860523Y-73352057D01*
X175860523Y-73352057D02*
X175908142Y-73447295D01*
X175908142Y-73447295D02*
X175908142Y-73590152D01*
X175908142Y-73590152D02*
X175860523Y-73685390D01*
X175860523Y-73685390D02*
X175812904Y-73733009D01*
X175812904Y-73733009D02*
X175717666Y-73780628D01*
X175717666Y-73780628D02*
X175336714Y-73780628D01*
X176860523Y-74256819D02*
X176289095Y-74256819D01*
X176574809Y-74256819D02*
X176574809Y-73256819D01*
X176574809Y-73256819D02*
X176479571Y-73399676D01*
X176479571Y-73399676D02*
X176384333Y-73494914D01*
X176384333Y-73494914D02*
X176289095Y-73542533D01*
X177765285Y-73256819D02*
X177289095Y-73256819D01*
X177289095Y-73256819D02*
X177241476Y-73733009D01*
X177241476Y-73733009D02*
X177289095Y-73685390D01*
X177289095Y-73685390D02*
X177384333Y-73637771D01*
X177384333Y-73637771D02*
X177622428Y-73637771D01*
X177622428Y-73637771D02*
X177717666Y-73685390D01*
X177717666Y-73685390D02*
X177765285Y-73733009D01*
X177765285Y-73733009D02*
X177812904Y-73828247D01*
X177812904Y-73828247D02*
X177812904Y-74066342D01*
X177812904Y-74066342D02*
X177765285Y-74161580D01*
X177765285Y-74161580D02*
X177717666Y-74209200D01*
X177717666Y-74209200D02*
X177622428Y-74256819D01*
X177622428Y-74256819D02*
X177384333Y-74256819D01*
X177384333Y-74256819D02*
X177289095Y-74209200D01*
X177289095Y-74209200D02*
X177241476Y-74161580D01*
X175987142Y-60524819D02*
X175653809Y-60048628D01*
X175415714Y-60524819D02*
X175415714Y-59524819D01*
X175415714Y-59524819D02*
X175796666Y-59524819D01*
X175796666Y-59524819D02*
X175891904Y-59572438D01*
X175891904Y-59572438D02*
X175939523Y-59620057D01*
X175939523Y-59620057D02*
X175987142Y-59715295D01*
X175987142Y-59715295D02*
X175987142Y-59858152D01*
X175987142Y-59858152D02*
X175939523Y-59953390D01*
X175939523Y-59953390D02*
X175891904Y-60001009D01*
X175891904Y-60001009D02*
X175796666Y-60048628D01*
X175796666Y-60048628D02*
X175415714Y-60048628D01*
X176368095Y-59620057D02*
X176415714Y-59572438D01*
X176415714Y-59572438D02*
X176510952Y-59524819D01*
X176510952Y-59524819D02*
X176749047Y-59524819D01*
X176749047Y-59524819D02*
X176844285Y-59572438D01*
X176844285Y-59572438D02*
X176891904Y-59620057D01*
X176891904Y-59620057D02*
X176939523Y-59715295D01*
X176939523Y-59715295D02*
X176939523Y-59810533D01*
X176939523Y-59810533D02*
X176891904Y-59953390D01*
X176891904Y-59953390D02*
X176320476Y-60524819D01*
X176320476Y-60524819D02*
X176939523Y-60524819D01*
X177558571Y-59524819D02*
X177653809Y-59524819D01*
X177653809Y-59524819D02*
X177749047Y-59572438D01*
X177749047Y-59572438D02*
X177796666Y-59620057D01*
X177796666Y-59620057D02*
X177844285Y-59715295D01*
X177844285Y-59715295D02*
X177891904Y-59905771D01*
X177891904Y-59905771D02*
X177891904Y-60143866D01*
X177891904Y-60143866D02*
X177844285Y-60334342D01*
X177844285Y-60334342D02*
X177796666Y-60429580D01*
X177796666Y-60429580D02*
X177749047Y-60477200D01*
X177749047Y-60477200D02*
X177653809Y-60524819D01*
X177653809Y-60524819D02*
X177558571Y-60524819D01*
X177558571Y-60524819D02*
X177463333Y-60477200D01*
X177463333Y-60477200D02*
X177415714Y-60429580D01*
X177415714Y-60429580D02*
X177368095Y-60334342D01*
X177368095Y-60334342D02*
X177320476Y-60143866D01*
X177320476Y-60143866D02*
X177320476Y-59905771D01*
X177320476Y-59905771D02*
X177368095Y-59715295D01*
X177368095Y-59715295D02*
X177415714Y-59620057D01*
X177415714Y-59620057D02*
X177463333Y-59572438D01*
X177463333Y-59572438D02*
X177558571Y-59524819D01*
X185989819Y-78017523D02*
X186704104Y-78017523D01*
X186704104Y-78017523D02*
X186846961Y-78065142D01*
X186846961Y-78065142D02*
X186942200Y-78160380D01*
X186942200Y-78160380D02*
X186989819Y-78303237D01*
X186989819Y-78303237D02*
X186989819Y-78398475D01*
X186989819Y-77541332D02*
X185989819Y-77541332D01*
X185989819Y-77541332D02*
X185989819Y-77160380D01*
X185989819Y-77160380D02*
X186037438Y-77065142D01*
X186037438Y-77065142D02*
X186085057Y-77017523D01*
X186085057Y-77017523D02*
X186180295Y-76969904D01*
X186180295Y-76969904D02*
X186323152Y-76969904D01*
X186323152Y-76969904D02*
X186418390Y-77017523D01*
X186418390Y-77017523D02*
X186466009Y-77065142D01*
X186466009Y-77065142D02*
X186513628Y-77160380D01*
X186513628Y-77160380D02*
X186513628Y-77541332D01*
X186989819Y-76017523D02*
X186989819Y-76588951D01*
X186989819Y-76303237D02*
X185989819Y-76303237D01*
X185989819Y-76303237D02*
X186132676Y-76398475D01*
X186132676Y-76398475D02*
X186227914Y-76493713D01*
X186227914Y-76493713D02*
X186275533Y-76588951D01*
X185989819Y-75684189D02*
X185989819Y-75065142D01*
X185989819Y-75065142D02*
X186370771Y-75398475D01*
X186370771Y-75398475D02*
X186370771Y-75255618D01*
X186370771Y-75255618D02*
X186418390Y-75160380D01*
X186418390Y-75160380D02*
X186466009Y-75112761D01*
X186466009Y-75112761D02*
X186561247Y-75065142D01*
X186561247Y-75065142D02*
X186799342Y-75065142D01*
X186799342Y-75065142D02*
X186894580Y-75112761D01*
X186894580Y-75112761D02*
X186942200Y-75160380D01*
X186942200Y-75160380D02*
X186989819Y-75255618D01*
X186989819Y-75255618D02*
X186989819Y-75541332D01*
X186989819Y-75541332D02*
X186942200Y-75636570D01*
X186942200Y-75636570D02*
X186894580Y-75684189D01*
X174834819Y-87558666D02*
X174358628Y-87891999D01*
X174834819Y-88130094D02*
X173834819Y-88130094D01*
X173834819Y-88130094D02*
X173834819Y-87749142D01*
X173834819Y-87749142D02*
X173882438Y-87653904D01*
X173882438Y-87653904D02*
X173930057Y-87606285D01*
X173930057Y-87606285D02*
X174025295Y-87558666D01*
X174025295Y-87558666D02*
X174168152Y-87558666D01*
X174168152Y-87558666D02*
X174263390Y-87606285D01*
X174263390Y-87606285D02*
X174311009Y-87653904D01*
X174311009Y-87653904D02*
X174358628Y-87749142D01*
X174358628Y-87749142D02*
X174358628Y-88130094D01*
X174834819Y-87082475D02*
X174834819Y-86891999D01*
X174834819Y-86891999D02*
X174787200Y-86796761D01*
X174787200Y-86796761D02*
X174739580Y-86749142D01*
X174739580Y-86749142D02*
X174596723Y-86653904D01*
X174596723Y-86653904D02*
X174406247Y-86606285D01*
X174406247Y-86606285D02*
X174025295Y-86606285D01*
X174025295Y-86606285D02*
X173930057Y-86653904D01*
X173930057Y-86653904D02*
X173882438Y-86701523D01*
X173882438Y-86701523D02*
X173834819Y-86796761D01*
X173834819Y-86796761D02*
X173834819Y-86987237D01*
X173834819Y-86987237D02*
X173882438Y-87082475D01*
X173882438Y-87082475D02*
X173930057Y-87130094D01*
X173930057Y-87130094D02*
X174025295Y-87177713D01*
X174025295Y-87177713D02*
X174263390Y-87177713D01*
X174263390Y-87177713D02*
X174358628Y-87130094D01*
X174358628Y-87130094D02*
X174406247Y-87082475D01*
X174406247Y-87082475D02*
X174453866Y-86987237D01*
X174453866Y-86987237D02*
X174453866Y-86796761D01*
X174453866Y-86796761D02*
X174406247Y-86701523D01*
X174406247Y-86701523D02*
X174358628Y-86653904D01*
X174358628Y-86653904D02*
X174263390Y-86606285D01*
X175881142Y-65096819D02*
X175547809Y-64620628D01*
X175309714Y-65096819D02*
X175309714Y-64096819D01*
X175309714Y-64096819D02*
X175690666Y-64096819D01*
X175690666Y-64096819D02*
X175785904Y-64144438D01*
X175785904Y-64144438D02*
X175833523Y-64192057D01*
X175833523Y-64192057D02*
X175881142Y-64287295D01*
X175881142Y-64287295D02*
X175881142Y-64430152D01*
X175881142Y-64430152D02*
X175833523Y-64525390D01*
X175833523Y-64525390D02*
X175785904Y-64573009D01*
X175785904Y-64573009D02*
X175690666Y-64620628D01*
X175690666Y-64620628D02*
X175309714Y-64620628D01*
X176833523Y-65096819D02*
X176262095Y-65096819D01*
X176547809Y-65096819D02*
X176547809Y-64096819D01*
X176547809Y-64096819D02*
X176452571Y-64239676D01*
X176452571Y-64239676D02*
X176357333Y-64334914D01*
X176357333Y-64334914D02*
X176262095Y-64382533D01*
X177404952Y-64525390D02*
X177309714Y-64477771D01*
X177309714Y-64477771D02*
X177262095Y-64430152D01*
X177262095Y-64430152D02*
X177214476Y-64334914D01*
X177214476Y-64334914D02*
X177214476Y-64287295D01*
X177214476Y-64287295D02*
X177262095Y-64192057D01*
X177262095Y-64192057D02*
X177309714Y-64144438D01*
X177309714Y-64144438D02*
X177404952Y-64096819D01*
X177404952Y-64096819D02*
X177595428Y-64096819D01*
X177595428Y-64096819D02*
X177690666Y-64144438D01*
X177690666Y-64144438D02*
X177738285Y-64192057D01*
X177738285Y-64192057D02*
X177785904Y-64287295D01*
X177785904Y-64287295D02*
X177785904Y-64334914D01*
X177785904Y-64334914D02*
X177738285Y-64430152D01*
X177738285Y-64430152D02*
X177690666Y-64477771D01*
X177690666Y-64477771D02*
X177595428Y-64525390D01*
X177595428Y-64525390D02*
X177404952Y-64525390D01*
X177404952Y-64525390D02*
X177309714Y-64573009D01*
X177309714Y-64573009D02*
X177262095Y-64620628D01*
X177262095Y-64620628D02*
X177214476Y-64715866D01*
X177214476Y-64715866D02*
X177214476Y-64906342D01*
X177214476Y-64906342D02*
X177262095Y-65001580D01*
X177262095Y-65001580D02*
X177309714Y-65049200D01*
X177309714Y-65049200D02*
X177404952Y-65096819D01*
X177404952Y-65096819D02*
X177595428Y-65096819D01*
X177595428Y-65096819D02*
X177690666Y-65049200D01*
X177690666Y-65049200D02*
X177738285Y-65001580D01*
X177738285Y-65001580D02*
X177785904Y-64906342D01*
X177785904Y-64906342D02*
X177785904Y-64715866D01*
X177785904Y-64715866D02*
X177738285Y-64620628D01*
X177738285Y-64620628D02*
X177690666Y-64573009D01*
X177690666Y-64573009D02*
X177595428Y-64525390D01*
X178325580Y-88034857D02*
X178373200Y-88082476D01*
X178373200Y-88082476D02*
X178420819Y-88225333D01*
X178420819Y-88225333D02*
X178420819Y-88320571D01*
X178420819Y-88320571D02*
X178373200Y-88463428D01*
X178373200Y-88463428D02*
X178277961Y-88558666D01*
X178277961Y-88558666D02*
X178182723Y-88606285D01*
X178182723Y-88606285D02*
X177992247Y-88653904D01*
X177992247Y-88653904D02*
X177849390Y-88653904D01*
X177849390Y-88653904D02*
X177658914Y-88606285D01*
X177658914Y-88606285D02*
X177563676Y-88558666D01*
X177563676Y-88558666D02*
X177468438Y-88463428D01*
X177468438Y-88463428D02*
X177420819Y-88320571D01*
X177420819Y-88320571D02*
X177420819Y-88225333D01*
X177420819Y-88225333D02*
X177468438Y-88082476D01*
X177468438Y-88082476D02*
X177516057Y-88034857D01*
X178420819Y-87082476D02*
X178420819Y-87653904D01*
X178420819Y-87368190D02*
X177420819Y-87368190D01*
X177420819Y-87368190D02*
X177563676Y-87463428D01*
X177563676Y-87463428D02*
X177658914Y-87558666D01*
X177658914Y-87558666D02*
X177706533Y-87653904D01*
X177420819Y-86749142D02*
X177420819Y-86082476D01*
X177420819Y-86082476D02*
X178420819Y-86511047D01*
X152371082Y-52437357D02*
X152418702Y-52484976D01*
X152418702Y-52484976D02*
X152466321Y-52627833D01*
X152466321Y-52627833D02*
X152466321Y-52723071D01*
X152466321Y-52723071D02*
X152418702Y-52865928D01*
X152418702Y-52865928D02*
X152323463Y-52961166D01*
X152323463Y-52961166D02*
X152228225Y-53008785D01*
X152228225Y-53008785D02*
X152037749Y-53056404D01*
X152037749Y-53056404D02*
X151894892Y-53056404D01*
X151894892Y-53056404D02*
X151704416Y-53008785D01*
X151704416Y-53008785D02*
X151609178Y-52961166D01*
X151609178Y-52961166D02*
X151513940Y-52865928D01*
X151513940Y-52865928D02*
X151466321Y-52723071D01*
X151466321Y-52723071D02*
X151466321Y-52627833D01*
X151466321Y-52627833D02*
X151513940Y-52484976D01*
X151513940Y-52484976D02*
X151561559Y-52437357D01*
X151466321Y-52104023D02*
X151466321Y-51484976D01*
X151466321Y-51484976D02*
X151847273Y-51818309D01*
X151847273Y-51818309D02*
X151847273Y-51675452D01*
X151847273Y-51675452D02*
X151894892Y-51580214D01*
X151894892Y-51580214D02*
X151942511Y-51532595D01*
X151942511Y-51532595D02*
X152037749Y-51484976D01*
X152037749Y-51484976D02*
X152275844Y-51484976D01*
X152275844Y-51484976D02*
X152371082Y-51532595D01*
X152371082Y-51532595D02*
X152418702Y-51580214D01*
X152418702Y-51580214D02*
X152466321Y-51675452D01*
X152466321Y-51675452D02*
X152466321Y-51961166D01*
X152466321Y-51961166D02*
X152418702Y-52056404D01*
X152418702Y-52056404D02*
X152371082Y-52104023D01*
X151466321Y-50580214D02*
X151466321Y-51056404D01*
X151466321Y-51056404D02*
X151942511Y-51104023D01*
X151942511Y-51104023D02*
X151894892Y-51056404D01*
X151894892Y-51056404D02*
X151847273Y-50961166D01*
X151847273Y-50961166D02*
X151847273Y-50723071D01*
X151847273Y-50723071D02*
X151894892Y-50627833D01*
X151894892Y-50627833D02*
X151942511Y-50580214D01*
X151942511Y-50580214D02*
X152037749Y-50532595D01*
X152037749Y-50532595D02*
X152275844Y-50532595D01*
X152275844Y-50532595D02*
X152371082Y-50580214D01*
X152371082Y-50580214D02*
X152418702Y-50627833D01*
X152418702Y-50627833D02*
X152466321Y-50723071D01*
X152466321Y-50723071D02*
X152466321Y-50961166D01*
X152466321Y-50961166D02*
X152418702Y-51056404D01*
X152418702Y-51056404D02*
X152371082Y-51104023D01*
X129488594Y-68060955D02*
X129155261Y-67584764D01*
X128917166Y-68060955D02*
X128917166Y-67060955D01*
X128917166Y-67060955D02*
X129298118Y-67060955D01*
X129298118Y-67060955D02*
X129393356Y-67108574D01*
X129393356Y-67108574D02*
X129440975Y-67156193D01*
X129440975Y-67156193D02*
X129488594Y-67251431D01*
X129488594Y-67251431D02*
X129488594Y-67394288D01*
X129488594Y-67394288D02*
X129440975Y-67489526D01*
X129440975Y-67489526D02*
X129393356Y-67537145D01*
X129393356Y-67537145D02*
X129298118Y-67584764D01*
X129298118Y-67584764D02*
X128917166Y-67584764D01*
X129869547Y-67156193D02*
X129917166Y-67108574D01*
X129917166Y-67108574D02*
X130012404Y-67060955D01*
X130012404Y-67060955D02*
X130250499Y-67060955D01*
X130250499Y-67060955D02*
X130345737Y-67108574D01*
X130345737Y-67108574D02*
X130393356Y-67156193D01*
X130393356Y-67156193D02*
X130440975Y-67251431D01*
X130440975Y-67251431D02*
X130440975Y-67346669D01*
X130440975Y-67346669D02*
X130393356Y-67489526D01*
X130393356Y-67489526D02*
X129821928Y-68060955D01*
X129821928Y-68060955D02*
X130440975Y-68060955D01*
X131298118Y-67060955D02*
X131107642Y-67060955D01*
X131107642Y-67060955D02*
X131012404Y-67108574D01*
X131012404Y-67108574D02*
X130964785Y-67156193D01*
X130964785Y-67156193D02*
X130869547Y-67299050D01*
X130869547Y-67299050D02*
X130821928Y-67489526D01*
X130821928Y-67489526D02*
X130821928Y-67870478D01*
X130821928Y-67870478D02*
X130869547Y-67965716D01*
X130869547Y-67965716D02*
X130917166Y-68013336D01*
X130917166Y-68013336D02*
X131012404Y-68060955D01*
X131012404Y-68060955D02*
X131202880Y-68060955D01*
X131202880Y-68060955D02*
X131298118Y-68013336D01*
X131298118Y-68013336D02*
X131345737Y-67965716D01*
X131345737Y-67965716D02*
X131393356Y-67870478D01*
X131393356Y-67870478D02*
X131393356Y-67632383D01*
X131393356Y-67632383D02*
X131345737Y-67537145D01*
X131345737Y-67537145D02*
X131298118Y-67489526D01*
X131298118Y-67489526D02*
X131202880Y-67441907D01*
X131202880Y-67441907D02*
X131012404Y-67441907D01*
X131012404Y-67441907D02*
X130917166Y-67489526D01*
X130917166Y-67489526D02*
X130869547Y-67537145D01*
X130869547Y-67537145D02*
X130821928Y-67632383D01*
X155673081Y-52415857D02*
X155720701Y-52463476D01*
X155720701Y-52463476D02*
X155768320Y-52606333D01*
X155768320Y-52606333D02*
X155768320Y-52701571D01*
X155768320Y-52701571D02*
X155720701Y-52844428D01*
X155720701Y-52844428D02*
X155625462Y-52939666D01*
X155625462Y-52939666D02*
X155530224Y-52987285D01*
X155530224Y-52987285D02*
X155339748Y-53034904D01*
X155339748Y-53034904D02*
X155196891Y-53034904D01*
X155196891Y-53034904D02*
X155006415Y-52987285D01*
X155006415Y-52987285D02*
X154911177Y-52939666D01*
X154911177Y-52939666D02*
X154815939Y-52844428D01*
X154815939Y-52844428D02*
X154768320Y-52701571D01*
X154768320Y-52701571D02*
X154768320Y-52606333D01*
X154768320Y-52606333D02*
X154815939Y-52463476D01*
X154815939Y-52463476D02*
X154863558Y-52415857D01*
X154768320Y-52082523D02*
X154768320Y-51463476D01*
X154768320Y-51463476D02*
X155149272Y-51796809D01*
X155149272Y-51796809D02*
X155149272Y-51653952D01*
X155149272Y-51653952D02*
X155196891Y-51558714D01*
X155196891Y-51558714D02*
X155244510Y-51511095D01*
X155244510Y-51511095D02*
X155339748Y-51463476D01*
X155339748Y-51463476D02*
X155577843Y-51463476D01*
X155577843Y-51463476D02*
X155673081Y-51511095D01*
X155673081Y-51511095D02*
X155720701Y-51558714D01*
X155720701Y-51558714D02*
X155768320Y-51653952D01*
X155768320Y-51653952D02*
X155768320Y-51939666D01*
X155768320Y-51939666D02*
X155720701Y-52034904D01*
X155720701Y-52034904D02*
X155673081Y-52082523D01*
X155101653Y-50606333D02*
X155768320Y-50606333D01*
X154720701Y-50844428D02*
X155434986Y-51082523D01*
X155434986Y-51082523D02*
X155434986Y-50463476D01*
X129520595Y-71460955D02*
X129187262Y-70984764D01*
X128949167Y-71460955D02*
X128949167Y-70460955D01*
X128949167Y-70460955D02*
X129330119Y-70460955D01*
X129330119Y-70460955D02*
X129425357Y-70508574D01*
X129425357Y-70508574D02*
X129472976Y-70556193D01*
X129472976Y-70556193D02*
X129520595Y-70651431D01*
X129520595Y-70651431D02*
X129520595Y-70794288D01*
X129520595Y-70794288D02*
X129472976Y-70889526D01*
X129472976Y-70889526D02*
X129425357Y-70937145D01*
X129425357Y-70937145D02*
X129330119Y-70984764D01*
X129330119Y-70984764D02*
X128949167Y-70984764D01*
X129901548Y-70556193D02*
X129949167Y-70508574D01*
X129949167Y-70508574D02*
X130044405Y-70460955D01*
X130044405Y-70460955D02*
X130282500Y-70460955D01*
X130282500Y-70460955D02*
X130377738Y-70508574D01*
X130377738Y-70508574D02*
X130425357Y-70556193D01*
X130425357Y-70556193D02*
X130472976Y-70651431D01*
X130472976Y-70651431D02*
X130472976Y-70746669D01*
X130472976Y-70746669D02*
X130425357Y-70889526D01*
X130425357Y-70889526D02*
X129853929Y-71460955D01*
X129853929Y-71460955D02*
X130472976Y-71460955D01*
X131377738Y-70460955D02*
X130901548Y-70460955D01*
X130901548Y-70460955D02*
X130853929Y-70937145D01*
X130853929Y-70937145D02*
X130901548Y-70889526D01*
X130901548Y-70889526D02*
X130996786Y-70841907D01*
X130996786Y-70841907D02*
X131234881Y-70841907D01*
X131234881Y-70841907D02*
X131330119Y-70889526D01*
X131330119Y-70889526D02*
X131377738Y-70937145D01*
X131377738Y-70937145D02*
X131425357Y-71032383D01*
X131425357Y-71032383D02*
X131425357Y-71270478D01*
X131425357Y-71270478D02*
X131377738Y-71365716D01*
X131377738Y-71365716D02*
X131330119Y-71413336D01*
X131330119Y-71413336D02*
X131234881Y-71460955D01*
X131234881Y-71460955D02*
X130996786Y-71460955D01*
X130996786Y-71460955D02*
X130901548Y-71413336D01*
X130901548Y-71413336D02*
X130853929Y-71365716D01*
X140821062Y-49723429D02*
X140773443Y-49771049D01*
X140773443Y-49771049D02*
X140630586Y-49818668D01*
X140630586Y-49818668D02*
X140535348Y-49818668D01*
X140535348Y-49818668D02*
X140392491Y-49771049D01*
X140392491Y-49771049D02*
X140297253Y-49675810D01*
X140297253Y-49675810D02*
X140249634Y-49580572D01*
X140249634Y-49580572D02*
X140202015Y-49390096D01*
X140202015Y-49390096D02*
X140202015Y-49247239D01*
X140202015Y-49247239D02*
X140249634Y-49056763D01*
X140249634Y-49056763D02*
X140297253Y-48961525D01*
X140297253Y-48961525D02*
X140392491Y-48866287D01*
X140392491Y-48866287D02*
X140535348Y-48818668D01*
X140535348Y-48818668D02*
X140630586Y-48818668D01*
X140630586Y-48818668D02*
X140773443Y-48866287D01*
X140773443Y-48866287D02*
X140821062Y-48913906D01*
X141202015Y-48913906D02*
X141249634Y-48866287D01*
X141249634Y-48866287D02*
X141344872Y-48818668D01*
X141344872Y-48818668D02*
X141582967Y-48818668D01*
X141582967Y-48818668D02*
X141678205Y-48866287D01*
X141678205Y-48866287D02*
X141725824Y-48913906D01*
X141725824Y-48913906D02*
X141773443Y-49009144D01*
X141773443Y-49009144D02*
X141773443Y-49104382D01*
X141773443Y-49104382D02*
X141725824Y-49247239D01*
X141725824Y-49247239D02*
X141154396Y-49818668D01*
X141154396Y-49818668D02*
X141773443Y-49818668D01*
X142630586Y-49152001D02*
X142630586Y-49818668D01*
X142392491Y-48771049D02*
X142154396Y-49485334D01*
X142154396Y-49485334D02*
X142773443Y-49485334D01*
X129520594Y-64602955D02*
X129187261Y-64126764D01*
X128949166Y-64602955D02*
X128949166Y-63602955D01*
X128949166Y-63602955D02*
X129330118Y-63602955D01*
X129330118Y-63602955D02*
X129425356Y-63650574D01*
X129425356Y-63650574D02*
X129472975Y-63698193D01*
X129472975Y-63698193D02*
X129520594Y-63793431D01*
X129520594Y-63793431D02*
X129520594Y-63936288D01*
X129520594Y-63936288D02*
X129472975Y-64031526D01*
X129472975Y-64031526D02*
X129425356Y-64079145D01*
X129425356Y-64079145D02*
X129330118Y-64126764D01*
X129330118Y-64126764D02*
X128949166Y-64126764D01*
X129901547Y-63698193D02*
X129949166Y-63650574D01*
X129949166Y-63650574D02*
X130044404Y-63602955D01*
X130044404Y-63602955D02*
X130282499Y-63602955D01*
X130282499Y-63602955D02*
X130377737Y-63650574D01*
X130377737Y-63650574D02*
X130425356Y-63698193D01*
X130425356Y-63698193D02*
X130472975Y-63793431D01*
X130472975Y-63793431D02*
X130472975Y-63888669D01*
X130472975Y-63888669D02*
X130425356Y-64031526D01*
X130425356Y-64031526D02*
X129853928Y-64602955D01*
X129853928Y-64602955D02*
X130472975Y-64602955D01*
X130806309Y-63602955D02*
X131472975Y-63602955D01*
X131472975Y-63602955D02*
X131044404Y-64602955D01*
X137095772Y-51833064D02*
X137143392Y-51880683D01*
X137143392Y-51880683D02*
X137191011Y-52023540D01*
X137191011Y-52023540D02*
X137191011Y-52118778D01*
X137191011Y-52118778D02*
X137143392Y-52261635D01*
X137143392Y-52261635D02*
X137048153Y-52356873D01*
X137048153Y-52356873D02*
X136952915Y-52404492D01*
X136952915Y-52404492D02*
X136762439Y-52452111D01*
X136762439Y-52452111D02*
X136619582Y-52452111D01*
X136619582Y-52452111D02*
X136429106Y-52404492D01*
X136429106Y-52404492D02*
X136333868Y-52356873D01*
X136333868Y-52356873D02*
X136238630Y-52261635D01*
X136238630Y-52261635D02*
X136191011Y-52118778D01*
X136191011Y-52118778D02*
X136191011Y-52023540D01*
X136191011Y-52023540D02*
X136238630Y-51880683D01*
X136238630Y-51880683D02*
X136286249Y-51833064D01*
X136286249Y-51452111D02*
X136238630Y-51404492D01*
X136238630Y-51404492D02*
X136191011Y-51309254D01*
X136191011Y-51309254D02*
X136191011Y-51071159D01*
X136191011Y-51071159D02*
X136238630Y-50975921D01*
X136238630Y-50975921D02*
X136286249Y-50928302D01*
X136286249Y-50928302D02*
X136381487Y-50880683D01*
X136381487Y-50880683D02*
X136476725Y-50880683D01*
X136476725Y-50880683D02*
X136619582Y-50928302D01*
X136619582Y-50928302D02*
X137191011Y-51499730D01*
X137191011Y-51499730D02*
X137191011Y-50880683D01*
X136191011Y-50023540D02*
X136191011Y-50214016D01*
X136191011Y-50214016D02*
X136238630Y-50309254D01*
X136238630Y-50309254D02*
X136286249Y-50356873D01*
X136286249Y-50356873D02*
X136429106Y-50452111D01*
X136429106Y-50452111D02*
X136619582Y-50499730D01*
X136619582Y-50499730D02*
X137000534Y-50499730D01*
X137000534Y-50499730D02*
X137095772Y-50452111D01*
X137095772Y-50452111D02*
X137143392Y-50404492D01*
X137143392Y-50404492D02*
X137191011Y-50309254D01*
X137191011Y-50309254D02*
X137191011Y-50118778D01*
X137191011Y-50118778D02*
X137143392Y-50023540D01*
X137143392Y-50023540D02*
X137095772Y-49975921D01*
X137095772Y-49975921D02*
X137000534Y-49928302D01*
X137000534Y-49928302D02*
X136762439Y-49928302D01*
X136762439Y-49928302D02*
X136667201Y-49975921D01*
X136667201Y-49975921D02*
X136619582Y-50023540D01*
X136619582Y-50023540D02*
X136571963Y-50118778D01*
X136571963Y-50118778D02*
X136571963Y-50309254D01*
X136571963Y-50309254D02*
X136619582Y-50404492D01*
X136619582Y-50404492D02*
X136667201Y-50452111D01*
X136667201Y-50452111D02*
X136762439Y-50499730D01*
X131507772Y-51833064D02*
X131555392Y-51880683D01*
X131555392Y-51880683D02*
X131603011Y-52023540D01*
X131603011Y-52023540D02*
X131603011Y-52118778D01*
X131603011Y-52118778D02*
X131555392Y-52261635D01*
X131555392Y-52261635D02*
X131460153Y-52356873D01*
X131460153Y-52356873D02*
X131364915Y-52404492D01*
X131364915Y-52404492D02*
X131174439Y-52452111D01*
X131174439Y-52452111D02*
X131031582Y-52452111D01*
X131031582Y-52452111D02*
X130841106Y-52404492D01*
X130841106Y-52404492D02*
X130745868Y-52356873D01*
X130745868Y-52356873D02*
X130650630Y-52261635D01*
X130650630Y-52261635D02*
X130603011Y-52118778D01*
X130603011Y-52118778D02*
X130603011Y-52023540D01*
X130603011Y-52023540D02*
X130650630Y-51880683D01*
X130650630Y-51880683D02*
X130698249Y-51833064D01*
X131603011Y-50880683D02*
X131603011Y-51452111D01*
X131603011Y-51166397D02*
X130603011Y-51166397D01*
X130603011Y-51166397D02*
X130745868Y-51261635D01*
X130745868Y-51261635D02*
X130841106Y-51356873D01*
X130841106Y-51356873D02*
X130888725Y-51452111D01*
X131031582Y-50309254D02*
X130983963Y-50404492D01*
X130983963Y-50404492D02*
X130936344Y-50452111D01*
X130936344Y-50452111D02*
X130841106Y-50499730D01*
X130841106Y-50499730D02*
X130793487Y-50499730D01*
X130793487Y-50499730D02*
X130698249Y-50452111D01*
X130698249Y-50452111D02*
X130650630Y-50404492D01*
X130650630Y-50404492D02*
X130603011Y-50309254D01*
X130603011Y-50309254D02*
X130603011Y-50118778D01*
X130603011Y-50118778D02*
X130650630Y-50023540D01*
X130650630Y-50023540D02*
X130698249Y-49975921D01*
X130698249Y-49975921D02*
X130793487Y-49928302D01*
X130793487Y-49928302D02*
X130841106Y-49928302D01*
X130841106Y-49928302D02*
X130936344Y-49975921D01*
X130936344Y-49975921D02*
X130983963Y-50023540D01*
X130983963Y-50023540D02*
X131031582Y-50118778D01*
X131031582Y-50118778D02*
X131031582Y-50309254D01*
X131031582Y-50309254D02*
X131079201Y-50404492D01*
X131079201Y-50404492D02*
X131126820Y-50452111D01*
X131126820Y-50452111D02*
X131222058Y-50499730D01*
X131222058Y-50499730D02*
X131412534Y-50499730D01*
X131412534Y-50499730D02*
X131507772Y-50452111D01*
X131507772Y-50452111D02*
X131555392Y-50404492D01*
X131555392Y-50404492D02*
X131603011Y-50309254D01*
X131603011Y-50309254D02*
X131603011Y-50118778D01*
X131603011Y-50118778D02*
X131555392Y-50023540D01*
X131555392Y-50023540D02*
X131507772Y-49975921D01*
X131507772Y-49975921D02*
X131412534Y-49928302D01*
X131412534Y-49928302D02*
X131222058Y-49928302D01*
X131222058Y-49928302D02*
X131126820Y-49975921D01*
X131126820Y-49975921D02*
X131079201Y-50023540D01*
X131079201Y-50023540D02*
X131031582Y-50118778D01*
X134301771Y-51790064D02*
X134349391Y-51837683D01*
X134349391Y-51837683D02*
X134397010Y-51980540D01*
X134397010Y-51980540D02*
X134397010Y-52075778D01*
X134397010Y-52075778D02*
X134349391Y-52218635D01*
X134349391Y-52218635D02*
X134254152Y-52313873D01*
X134254152Y-52313873D02*
X134158914Y-52361492D01*
X134158914Y-52361492D02*
X133968438Y-52409111D01*
X133968438Y-52409111D02*
X133825581Y-52409111D01*
X133825581Y-52409111D02*
X133635105Y-52361492D01*
X133635105Y-52361492D02*
X133539867Y-52313873D01*
X133539867Y-52313873D02*
X133444629Y-52218635D01*
X133444629Y-52218635D02*
X133397010Y-52075778D01*
X133397010Y-52075778D02*
X133397010Y-51980540D01*
X133397010Y-51980540D02*
X133444629Y-51837683D01*
X133444629Y-51837683D02*
X133492248Y-51790064D01*
X133730343Y-50932921D02*
X134397010Y-50932921D01*
X133349391Y-51171016D02*
X134063676Y-51409111D01*
X134063676Y-51409111D02*
X134063676Y-50790064D01*
X133730343Y-49980540D02*
X134397010Y-49980540D01*
X133349391Y-50218635D02*
X134063676Y-50456730D01*
X134063676Y-50456730D02*
X134063676Y-49837683D01*
X148253095Y-69697653D02*
X148253095Y-70507176D01*
X148253095Y-70507176D02*
X148300714Y-70602414D01*
X148300714Y-70602414D02*
X148348333Y-70650034D01*
X148348333Y-70650034D02*
X148443571Y-70697653D01*
X148443571Y-70697653D02*
X148634047Y-70697653D01*
X148634047Y-70697653D02*
X148729285Y-70650034D01*
X148729285Y-70650034D02*
X148776904Y-70602414D01*
X148776904Y-70602414D02*
X148824523Y-70507176D01*
X148824523Y-70507176D02*
X148824523Y-69697653D01*
X149205476Y-69697653D02*
X149824523Y-69697653D01*
X149824523Y-69697653D02*
X149491190Y-70078605D01*
X149491190Y-70078605D02*
X149634047Y-70078605D01*
X149634047Y-70078605D02*
X149729285Y-70126224D01*
X149729285Y-70126224D02*
X149776904Y-70173843D01*
X149776904Y-70173843D02*
X149824523Y-70269081D01*
X149824523Y-70269081D02*
X149824523Y-70507176D01*
X149824523Y-70507176D02*
X149776904Y-70602414D01*
X149776904Y-70602414D02*
X149729285Y-70650034D01*
X149729285Y-70650034D02*
X149634047Y-70697653D01*
X149634047Y-70697653D02*
X149348333Y-70697653D01*
X149348333Y-70697653D02*
X149253095Y-70650034D01*
X149253095Y-70650034D02*
X149205476Y-70602414D01*
X144486480Y-76472076D02*
X144438861Y-76519696D01*
X144438861Y-76519696D02*
X144296004Y-76567315D01*
X144296004Y-76567315D02*
X144200766Y-76567315D01*
X144200766Y-76567315D02*
X144057909Y-76519696D01*
X144057909Y-76519696D02*
X143962671Y-76424457D01*
X143962671Y-76424457D02*
X143915052Y-76329219D01*
X143915052Y-76329219D02*
X143867433Y-76138743D01*
X143867433Y-76138743D02*
X143867433Y-75995886D01*
X143867433Y-75995886D02*
X143915052Y-75805410D01*
X143915052Y-75805410D02*
X143962671Y-75710172D01*
X143962671Y-75710172D02*
X144057909Y-75614934D01*
X144057909Y-75614934D02*
X144200766Y-75567315D01*
X144200766Y-75567315D02*
X144296004Y-75567315D01*
X144296004Y-75567315D02*
X144438861Y-75614934D01*
X144438861Y-75614934D02*
X144486480Y-75662553D01*
X144867433Y-75662553D02*
X144915052Y-75614934D01*
X144915052Y-75614934D02*
X145010290Y-75567315D01*
X145010290Y-75567315D02*
X145248385Y-75567315D01*
X145248385Y-75567315D02*
X145343623Y-75614934D01*
X145343623Y-75614934D02*
X145391242Y-75662553D01*
X145391242Y-75662553D02*
X145438861Y-75757791D01*
X145438861Y-75757791D02*
X145438861Y-75853029D01*
X145438861Y-75853029D02*
X145391242Y-75995886D01*
X145391242Y-75995886D02*
X144819814Y-76567315D01*
X144819814Y-76567315D02*
X145438861Y-76567315D01*
X145819814Y-75662553D02*
X145867433Y-75614934D01*
X145867433Y-75614934D02*
X145962671Y-75567315D01*
X145962671Y-75567315D02*
X146200766Y-75567315D01*
X146200766Y-75567315D02*
X146296004Y-75614934D01*
X146296004Y-75614934D02*
X146343623Y-75662553D01*
X146343623Y-75662553D02*
X146391242Y-75757791D01*
X146391242Y-75757791D02*
X146391242Y-75853029D01*
X146391242Y-75853029D02*
X146343623Y-75995886D01*
X146343623Y-75995886D02*
X145772195Y-76567315D01*
X145772195Y-76567315D02*
X146391242Y-76567315D01*
X144464980Y-73678076D02*
X144417361Y-73725696D01*
X144417361Y-73725696D02*
X144274504Y-73773315D01*
X144274504Y-73773315D02*
X144179266Y-73773315D01*
X144179266Y-73773315D02*
X144036409Y-73725696D01*
X144036409Y-73725696D02*
X143941171Y-73630457D01*
X143941171Y-73630457D02*
X143893552Y-73535219D01*
X143893552Y-73535219D02*
X143845933Y-73344743D01*
X143845933Y-73344743D02*
X143845933Y-73201886D01*
X143845933Y-73201886D02*
X143893552Y-73011410D01*
X143893552Y-73011410D02*
X143941171Y-72916172D01*
X143941171Y-72916172D02*
X144036409Y-72820934D01*
X144036409Y-72820934D02*
X144179266Y-72773315D01*
X144179266Y-72773315D02*
X144274504Y-72773315D01*
X144274504Y-72773315D02*
X144417361Y-72820934D01*
X144417361Y-72820934D02*
X144464980Y-72868553D01*
X144845933Y-72868553D02*
X144893552Y-72820934D01*
X144893552Y-72820934D02*
X144988790Y-72773315D01*
X144988790Y-72773315D02*
X145226885Y-72773315D01*
X145226885Y-72773315D02*
X145322123Y-72820934D01*
X145322123Y-72820934D02*
X145369742Y-72868553D01*
X145369742Y-72868553D02*
X145417361Y-72963791D01*
X145417361Y-72963791D02*
X145417361Y-73059029D01*
X145417361Y-73059029D02*
X145369742Y-73201886D01*
X145369742Y-73201886D02*
X144798314Y-73773315D01*
X144798314Y-73773315D02*
X145417361Y-73773315D01*
X145750695Y-72773315D02*
X146369742Y-72773315D01*
X146369742Y-72773315D02*
X146036409Y-73154267D01*
X146036409Y-73154267D02*
X146179266Y-73154267D01*
X146179266Y-73154267D02*
X146274504Y-73201886D01*
X146274504Y-73201886D02*
X146322123Y-73249505D01*
X146322123Y-73249505D02*
X146369742Y-73344743D01*
X146369742Y-73344743D02*
X146369742Y-73582838D01*
X146369742Y-73582838D02*
X146322123Y-73678076D01*
X146322123Y-73678076D02*
X146274504Y-73725696D01*
X146274504Y-73725696D02*
X146179266Y-73773315D01*
X146179266Y-73773315D02*
X145893552Y-73773315D01*
X145893552Y-73773315D02*
X145798314Y-73725696D01*
X145798314Y-73725696D02*
X145750695Y-73678076D01*
X146147642Y-54363579D02*
X146100023Y-54411199D01*
X146100023Y-54411199D02*
X145957166Y-54458818D01*
X145957166Y-54458818D02*
X145861928Y-54458818D01*
X145861928Y-54458818D02*
X145719071Y-54411199D01*
X145719071Y-54411199D02*
X145623833Y-54315960D01*
X145623833Y-54315960D02*
X145576214Y-54220722D01*
X145576214Y-54220722D02*
X145528595Y-54030246D01*
X145528595Y-54030246D02*
X145528595Y-53887389D01*
X145528595Y-53887389D02*
X145576214Y-53696913D01*
X145576214Y-53696913D02*
X145623833Y-53601675D01*
X145623833Y-53601675D02*
X145719071Y-53506437D01*
X145719071Y-53506437D02*
X145861928Y-53458818D01*
X145861928Y-53458818D02*
X145957166Y-53458818D01*
X145957166Y-53458818D02*
X146100023Y-53506437D01*
X146100023Y-53506437D02*
X146147642Y-53554056D01*
X147004785Y-53792151D02*
X147004785Y-54458818D01*
X146766690Y-53411199D02*
X146528595Y-54125484D01*
X146528595Y-54125484D02*
X147147642Y-54125484D01*
X147433357Y-53458818D02*
X148052404Y-53458818D01*
X148052404Y-53458818D02*
X147719071Y-53839770D01*
X147719071Y-53839770D02*
X147861928Y-53839770D01*
X147861928Y-53839770D02*
X147957166Y-53887389D01*
X147957166Y-53887389D02*
X148004785Y-53935008D01*
X148004785Y-53935008D02*
X148052404Y-54030246D01*
X148052404Y-54030246D02*
X148052404Y-54268341D01*
X148052404Y-54268341D02*
X148004785Y-54363579D01*
X148004785Y-54363579D02*
X147957166Y-54411199D01*
X147957166Y-54411199D02*
X147861928Y-54458818D01*
X147861928Y-54458818D02*
X147576214Y-54458818D01*
X147576214Y-54458818D02*
X147480976Y-54411199D01*
X147480976Y-54411199D02*
X147433357Y-54363579D01*
X141185830Y-54087680D02*
X141138211Y-54135300D01*
X141138211Y-54135300D02*
X140995354Y-54182919D01*
X140995354Y-54182919D02*
X140900116Y-54182919D01*
X140900116Y-54182919D02*
X140757259Y-54135300D01*
X140757259Y-54135300D02*
X140662021Y-54040061D01*
X140662021Y-54040061D02*
X140614402Y-53944823D01*
X140614402Y-53944823D02*
X140566783Y-53754347D01*
X140566783Y-53754347D02*
X140566783Y-53611490D01*
X140566783Y-53611490D02*
X140614402Y-53421014D01*
X140614402Y-53421014D02*
X140662021Y-53325776D01*
X140662021Y-53325776D02*
X140757259Y-53230538D01*
X140757259Y-53230538D02*
X140900116Y-53182919D01*
X140900116Y-53182919D02*
X140995354Y-53182919D01*
X140995354Y-53182919D02*
X141138211Y-53230538D01*
X141138211Y-53230538D02*
X141185830Y-53278157D01*
X141566783Y-53278157D02*
X141614402Y-53230538D01*
X141614402Y-53230538D02*
X141709640Y-53182919D01*
X141709640Y-53182919D02*
X141947735Y-53182919D01*
X141947735Y-53182919D02*
X142042973Y-53230538D01*
X142042973Y-53230538D02*
X142090592Y-53278157D01*
X142090592Y-53278157D02*
X142138211Y-53373395D01*
X142138211Y-53373395D02*
X142138211Y-53468633D01*
X142138211Y-53468633D02*
X142090592Y-53611490D01*
X142090592Y-53611490D02*
X141519164Y-54182919D01*
X141519164Y-54182919D02*
X142138211Y-54182919D01*
X143042973Y-53182919D02*
X142566783Y-53182919D01*
X142566783Y-53182919D02*
X142519164Y-53659109D01*
X142519164Y-53659109D02*
X142566783Y-53611490D01*
X142566783Y-53611490D02*
X142662021Y-53563871D01*
X142662021Y-53563871D02*
X142900116Y-53563871D01*
X142900116Y-53563871D02*
X142995354Y-53611490D01*
X142995354Y-53611490D02*
X143042973Y-53659109D01*
X143042973Y-53659109D02*
X143090592Y-53754347D01*
X143090592Y-53754347D02*
X143090592Y-53992442D01*
X143090592Y-53992442D02*
X143042973Y-54087680D01*
X143042973Y-54087680D02*
X142995354Y-54135300D01*
X142995354Y-54135300D02*
X142900116Y-54182919D01*
X142900116Y-54182919D02*
X142662021Y-54182919D01*
X142662021Y-54182919D02*
X142566783Y-54135300D01*
X142566783Y-54135300D02*
X142519164Y-54087680D01*
X128955152Y-59083239D02*
X128621819Y-58607048D01*
X128383724Y-59083239D02*
X128383724Y-58083239D01*
X128383724Y-58083239D02*
X128764676Y-58083239D01*
X128764676Y-58083239D02*
X128859914Y-58130858D01*
X128859914Y-58130858D02*
X128907533Y-58178477D01*
X128907533Y-58178477D02*
X128955152Y-58273715D01*
X128955152Y-58273715D02*
X128955152Y-58416572D01*
X128955152Y-58416572D02*
X128907533Y-58511810D01*
X128907533Y-58511810D02*
X128859914Y-58559429D01*
X128859914Y-58559429D02*
X128764676Y-58607048D01*
X128764676Y-58607048D02*
X128383724Y-58607048D01*
X129336105Y-58178477D02*
X129383724Y-58130858D01*
X129383724Y-58130858D02*
X129478962Y-58083239D01*
X129478962Y-58083239D02*
X129717057Y-58083239D01*
X129717057Y-58083239D02*
X129812295Y-58130858D01*
X129812295Y-58130858D02*
X129859914Y-58178477D01*
X129859914Y-58178477D02*
X129907533Y-58273715D01*
X129907533Y-58273715D02*
X129907533Y-58368953D01*
X129907533Y-58368953D02*
X129859914Y-58511810D01*
X129859914Y-58511810D02*
X129288486Y-59083239D01*
X129288486Y-59083239D02*
X129907533Y-59083239D01*
X130478962Y-58511810D02*
X130383724Y-58464191D01*
X130383724Y-58464191D02*
X130336105Y-58416572D01*
X130336105Y-58416572D02*
X130288486Y-58321334D01*
X130288486Y-58321334D02*
X130288486Y-58273715D01*
X130288486Y-58273715D02*
X130336105Y-58178477D01*
X130336105Y-58178477D02*
X130383724Y-58130858D01*
X130383724Y-58130858D02*
X130478962Y-58083239D01*
X130478962Y-58083239D02*
X130669438Y-58083239D01*
X130669438Y-58083239D02*
X130764676Y-58130858D01*
X130764676Y-58130858D02*
X130812295Y-58178477D01*
X130812295Y-58178477D02*
X130859914Y-58273715D01*
X130859914Y-58273715D02*
X130859914Y-58321334D01*
X130859914Y-58321334D02*
X130812295Y-58416572D01*
X130812295Y-58416572D02*
X130764676Y-58464191D01*
X130764676Y-58464191D02*
X130669438Y-58511810D01*
X130669438Y-58511810D02*
X130478962Y-58511810D01*
X130478962Y-58511810D02*
X130383724Y-58559429D01*
X130383724Y-58559429D02*
X130336105Y-58607048D01*
X130336105Y-58607048D02*
X130288486Y-58702286D01*
X130288486Y-58702286D02*
X130288486Y-58892762D01*
X130288486Y-58892762D02*
X130336105Y-58988000D01*
X130336105Y-58988000D02*
X130383724Y-59035620D01*
X130383724Y-59035620D02*
X130478962Y-59083239D01*
X130478962Y-59083239D02*
X130669438Y-59083239D01*
X130669438Y-59083239D02*
X130764676Y-59035620D01*
X130764676Y-59035620D02*
X130812295Y-58988000D01*
X130812295Y-58988000D02*
X130859914Y-58892762D01*
X130859914Y-58892762D02*
X130859914Y-58702286D01*
X130859914Y-58702286D02*
X130812295Y-58607048D01*
X130812295Y-58607048D02*
X130764676Y-58559429D01*
X130764676Y-58559429D02*
X130669438Y-58511810D01*
X122348666Y-76002819D02*
X122348666Y-76717104D01*
X122348666Y-76717104D02*
X122301047Y-76859961D01*
X122301047Y-76859961D02*
X122205809Y-76955200D01*
X122205809Y-76955200D02*
X122062952Y-77002819D01*
X122062952Y-77002819D02*
X121967714Y-77002819D01*
X123348666Y-77002819D02*
X122777238Y-77002819D01*
X123062952Y-77002819D02*
X123062952Y-76002819D01*
X123062952Y-76002819D02*
X122967714Y-76145676D01*
X122967714Y-76145676D02*
X122872476Y-76240914D01*
X122872476Y-76240914D02*
X122777238Y-76288533D01*
D11*
G04 #@! TO.C,C5*
X171260490Y-72840457D02*
X171629957Y-72470990D01*
X170221043Y-71801010D02*
X170590510Y-71431543D01*
G04 #@! TO.C,C21*
X171260490Y-49980457D02*
X171629957Y-49610990D01*
X170221043Y-48941010D02*
X170590510Y-48571543D01*
G04 #@! TO.C,C1*
X170221043Y-53513009D02*
X170590509Y-53143543D01*
X171260491Y-54552457D02*
X171629957Y-54182991D01*
G04 #@! TO.C,C2*
X170221043Y-58085010D02*
X170590510Y-57715543D01*
X171260490Y-59124457D02*
X171629957Y-58754990D01*
G04 #@! TO.C,C3*
X170221043Y-62657010D02*
X170590510Y-62287543D01*
X171260490Y-63696457D02*
X171629957Y-63326990D01*
G04 #@! TO.C,C4*
X170242543Y-67229010D02*
X170612010Y-66859543D01*
X171281990Y-68268457D02*
X171651457Y-67898990D01*
G04 #@! TO.C,C6*
X170242543Y-76373010D02*
X170612010Y-76003543D01*
X171281990Y-77412457D02*
X171651457Y-77042990D01*
G04 #@! TO.C,C7*
X170242543Y-80945010D02*
X170612010Y-80575543D01*
X171281990Y-81984457D02*
X171651457Y-81614990D01*
G04 #@! TO.C,R1*
X170969000Y-44222936D02*
X170969000Y-44677064D01*
X172439000Y-44222936D02*
X172439000Y-44677064D01*
G04 #@! TO.C,R13*
X176778064Y-75989000D02*
X176323936Y-75989000D01*
X176778064Y-77459000D02*
X176323936Y-77459000D01*
G04 #@! TO.C,Bias1*
X185286000Y-84980000D02*
X185286000Y-86360000D01*
X183906000Y-84980000D02*
X185286000Y-84980000D01*
X182636000Y-84980000D02*
X179986000Y-84980000D01*
X182636000Y-84980000D02*
X182636000Y-87740000D01*
X179986000Y-84980000D02*
X179986000Y-87740000D01*
X182636000Y-87740000D02*
X179986000Y-87740000D01*
G04 #@! TO.C,JP11*
X185535000Y-79900000D02*
X185535000Y-81280000D01*
X184155000Y-79900000D02*
X185535000Y-79900000D01*
X182885000Y-79900000D02*
X180235000Y-79900000D01*
X182885000Y-79900000D02*
X182885000Y-82660000D01*
X180235000Y-79900000D02*
X180235000Y-82660000D01*
X182885000Y-82660000D02*
X180235000Y-82660000D01*
G04 #@! TO.C,JP6*
X185646000Y-52468000D02*
X185646000Y-53848000D01*
X184266000Y-52468000D02*
X185646000Y-52468000D01*
X182996000Y-55228000D02*
X180346000Y-55228000D01*
X182996000Y-52468000D02*
X182996000Y-55228000D01*
X182996000Y-52468000D02*
X180346000Y-52468000D01*
X180346000Y-52468000D02*
X180346000Y-55228000D01*
G04 #@! TO.C,JP9*
X185794000Y-42816000D02*
X185794000Y-44196000D01*
X184414000Y-42816000D02*
X185794000Y-42816000D01*
X183144000Y-45576000D02*
X180494000Y-45576000D01*
X183144000Y-42816000D02*
X183144000Y-45576000D01*
X183144000Y-42816000D02*
X180494000Y-42816000D01*
X180494000Y-42816000D02*
X180494000Y-45576000D01*
G04 #@! TO.C,JP8*
X185646000Y-47832500D02*
X185646000Y-49212500D01*
X184266000Y-47832500D02*
X185646000Y-47832500D01*
X182996000Y-50592500D02*
X180346000Y-50592500D01*
X182996000Y-47832500D02*
X182996000Y-50592500D01*
X182996000Y-47832500D02*
X180346000Y-47832500D01*
X180346000Y-47832500D02*
X180346000Y-50592500D01*
G04 #@! TO.C,JP15*
X185540000Y-70756000D02*
X185540000Y-72136000D01*
X184160000Y-70756000D02*
X185540000Y-70756000D01*
X182890000Y-70756000D02*
X180240000Y-70756000D01*
X182890000Y-70756000D02*
X182890000Y-73516000D01*
X180240000Y-70756000D02*
X180240000Y-73516000D01*
X182890000Y-73516000D02*
X180240000Y-73516000D01*
G04 #@! TO.C,JP1*
X185535000Y-61612000D02*
X185535000Y-62992000D01*
X184155000Y-61612000D02*
X185535000Y-61612000D01*
X182885000Y-64372000D02*
X180235000Y-64372000D01*
X182885000Y-61612000D02*
X182885000Y-64372000D01*
X182885000Y-61612000D02*
X180235000Y-61612000D01*
X180235000Y-61612000D02*
X180235000Y-64372000D01*
G04 #@! TO.C,R11*
X176778064Y-80561000D02*
X176323936Y-80561000D01*
X176778064Y-82031000D02*
X176323936Y-82031000D01*
G04 #@! TO.C,R24*
X176873064Y-49947500D02*
X176418936Y-49947500D01*
X176873064Y-48477500D02*
X176418936Y-48477500D01*
G04 #@! TO.C,JP17*
X185535000Y-66184000D02*
X185535000Y-67564000D01*
X184155000Y-66184000D02*
X185535000Y-66184000D01*
X182885000Y-66184000D02*
X180235000Y-66184000D01*
X182885000Y-66184000D02*
X182885000Y-68944000D01*
X180235000Y-66184000D02*
X180235000Y-68944000D01*
X182885000Y-68944000D02*
X180235000Y-68944000D01*
G04 #@! TO.C,R22*
X176857064Y-54583000D02*
X176402936Y-54583000D01*
X176857064Y-53113000D02*
X176402936Y-53113000D01*
G04 #@! TO.C,JP4*
X185646000Y-57040000D02*
X185646000Y-58420000D01*
X184266000Y-57040000D02*
X185646000Y-57040000D01*
X182996000Y-59800000D02*
X180346000Y-59800000D01*
X182996000Y-57040000D02*
X182996000Y-59800000D01*
X182996000Y-57040000D02*
X180346000Y-57040000D01*
X180346000Y-57040000D02*
X180346000Y-59800000D01*
G04 #@! TO.C,R29*
X176793064Y-66829000D02*
X176338936Y-66829000D01*
X176793064Y-68299000D02*
X176338936Y-68299000D01*
G04 #@! TO.C,R15*
X176778064Y-71417000D02*
X176323936Y-71417000D01*
X176778064Y-72887000D02*
X176323936Y-72887000D01*
G04 #@! TO.C,R20*
X176857064Y-57685000D02*
X176402936Y-57685000D01*
X176857064Y-59155000D02*
X176402936Y-59155000D01*
G04 #@! TO.C,JP13*
X185535000Y-75328000D02*
X185535000Y-76708000D01*
X184155000Y-75328000D02*
X185535000Y-75328000D01*
X182885000Y-75328000D02*
X180235000Y-75328000D01*
X182885000Y-75328000D02*
X182885000Y-78088000D01*
X180235000Y-75328000D02*
X180235000Y-78088000D01*
X182885000Y-78088000D02*
X180235000Y-78088000D01*
G04 #@! TO.C,R9*
X171995000Y-87164936D02*
X171995000Y-87619064D01*
X173465000Y-87164936D02*
X173465000Y-87619064D01*
G04 #@! TO.C,R18*
X176751064Y-63727000D02*
X176296936Y-63727000D01*
X176751064Y-62257000D02*
X176296936Y-62257000D01*
G04 #@! TO.C,C17*
X175551000Y-87130748D02*
X175551000Y-87653252D01*
X177021000Y-87130748D02*
X177021000Y-87653252D01*
G04 #@! TO.C,C35*
X154426501Y-52055753D02*
X154426501Y-51533247D01*
X152956501Y-52055753D02*
X152956501Y-51533247D01*
G04 #@! TO.C,R26*
X130358516Y-65221136D02*
X129904388Y-65221136D01*
X130358516Y-66691136D02*
X129904388Y-66691136D01*
G04 #@! TO.C,C34*
X157728500Y-52034253D02*
X157728500Y-51511747D01*
X156258500Y-52034253D02*
X156258500Y-51511747D01*
G04 #@! TO.C,R25*
X130390517Y-68621136D02*
X129936389Y-68621136D01*
X130390517Y-70091136D02*
X129936389Y-70091136D01*
G04 #@! TO.C,C24*
X142089941Y-48798630D02*
X141567435Y-48798630D01*
X142089941Y-50268630D02*
X141567435Y-50268630D01*
G04 #@! TO.C,R27*
X130390516Y-61763136D02*
X129936388Y-61763136D01*
X130390516Y-63233136D02*
X129936388Y-63233136D01*
G04 #@! TO.C,C26*
X139151191Y-51451460D02*
X139151191Y-50928954D01*
X137681191Y-51451460D02*
X137681191Y-50928954D01*
G04 #@! TO.C,C18*
X133563191Y-51451460D02*
X133563191Y-50928954D01*
X132093191Y-51451460D02*
X132093191Y-50928954D01*
G04 #@! TO.C,C44*
X136357190Y-51408460D02*
X136357190Y-50885954D01*
X134887190Y-51408460D02*
X134887190Y-50885954D01*
D12*
G04 #@! TO.C,U3*
X152570000Y-66147834D02*
G75*
G02*
X152370000Y-66147834I-100000J0D01*
G01*
X152370000Y-66147834D02*
G75*
G02*
X152570000Y-66147834I100000J0D01*
G01*
D13*
X150030000Y-57397834D02*
X150029999Y-58187834D01*
X150030000Y-57397834D02*
X149240000Y-57397835D01*
X150030000Y-67397834D02*
X150029999Y-66607834D01*
X150030000Y-67397834D02*
X149240000Y-67397833D01*
X140030000Y-57397834D02*
X140820000Y-57397835D01*
X140030000Y-57397834D02*
X140030001Y-58187834D01*
X140030000Y-67397834D02*
X140820000Y-67397833D01*
X140030000Y-67397834D02*
X140030001Y-66607834D01*
D11*
G04 #@! TO.C,C22*
X145390591Y-73853496D02*
X144868085Y-73853496D01*
X145390591Y-75323496D02*
X144868085Y-75323496D01*
G04 #@! TO.C,C23*
X145369091Y-71059496D02*
X144846585Y-71059496D01*
X145369091Y-72529496D02*
X144846585Y-72529496D01*
G04 #@! TO.C,C43*
X147051753Y-53059000D02*
X146529247Y-53059000D01*
X147051753Y-51589000D02*
X146529247Y-51589000D01*
G04 #@! TO.C,C42*
X151124501Y-52055753D02*
X151124501Y-51533247D01*
X149654501Y-52055753D02*
X149654501Y-51533247D01*
G04 #@! TO.C,C25*
X142089941Y-51313101D02*
X141567435Y-51313101D01*
X142089941Y-52783101D02*
X141567435Y-52783101D01*
G04 #@! TO.C,R28*
X129825074Y-56243420D02*
X129370946Y-56243420D01*
X129825074Y-57713420D02*
X129370946Y-57713420D01*
G04 #@! TO.C,J1*
X121302000Y-72898000D02*
X121302000Y-49928000D01*
X124062000Y-49928000D02*
X121302000Y-49928000D01*
X124062000Y-72898000D02*
X121302000Y-72898000D01*
X124062000Y-72898000D02*
X124062000Y-49928000D01*
X124062000Y-74168000D02*
X124062000Y-75548000D01*
X124062000Y-75548000D02*
X122682000Y-75548000D01*
G04 #@! TD*
M02*
