M48
; DRILL file {KiCad 9.0.4} date 2026-03-09T23:36:30-0500
; FORMAT={-:-/ absolute / metric / decimal}
; #@! TF.CreationDate,2026-03-09T23:36:30-05:00
; #@! TF.GenerationSoftware,Kicad,Pcbnew,9.0.4
; #@! TF.FileFunction,MixedPlating,1,2
FMAT,2
METRIC
; #@! TA.AperFunction,Plated,PTH,ViaDrill
T1C0.300
; #@! TA.AperFunction,Plated,PTH,ComponentDrill
T2C1.000
%
G90
G05
T1
X135.636Y-66.04
X135.89Y-66.802
X143.689Y-70.031
X145.982Y-70.031
X148.082Y-61.976
X153.162Y-68.834
X173.482Y-61.468
X173.482Y-65.532
X173.482Y-70.104
X173.482Y-74.676
X173.482Y-79.248
X173.736Y-47.498
X173.736Y-52.324
X173.736Y-56.642
T2
X122.682Y-51.308
X122.682Y-53.848
X122.682Y-56.388
X122.682Y-58.928
X122.682Y-61.468
X122.682Y-64.008
X122.682Y-66.548
X122.682Y-69.088
X122.682Y-71.628
X122.682Y-74.168
X181.366Y-86.36
X181.615Y-62.992
X181.615Y-67.564
X181.615Y-76.708
X181.615Y-81.28
X181.62Y-72.136
X181.726Y-49.212
X181.726Y-53.848
X181.726Y-58.42
X181.874Y-44.196
X183.906Y-86.36
X184.155Y-62.992
X184.155Y-67.564
X184.155Y-76.708
X184.155Y-81.28
X184.16Y-72.136
X184.266Y-49.212
X184.266Y-53.848
X184.266Y-58.42
X184.414Y-44.196
M30
